<svg width="34" height="35" viewBox="0 0 34 35" fill="none" xmlns="http://www.w3.org/2000/svg">
<path d="M32.1241 0H1.87586C1.37835 0 0.90122 0.197635 0.549427 0.549427C0.197635 0.90122 0 1.37835 0 1.87586L0 32.1241C0 32.6216 0.197635 33.0988 0.549427 33.4506C0.90122 33.8024 1.37835 34 1.87586 34H18.1724V20.8514H13.7466V15.7045H18.1724V11.9176C18.1724 7.5269 20.8572 5.13517 24.7731 5.13517C26.0927 5.1323 27.4115 5.19882 28.7241 5.33448V9.92448H26.0276C23.8938 9.92448 23.4776 10.9328 23.4776 12.4217V15.6986H28.5776L27.9152 20.8455H23.4483V34H32.1241C32.6216 34 33.0988 33.8024 33.4506 33.4506C33.8024 33.0988 34 32.6216 34 32.1241V1.87586C34 1.37835 33.8024 0.90122 33.4506 0.549427C33.0988 0.197635 32.6216 0 32.1241 0V0Z" fill="#4267B2"/>
<path d="M23.4089 34.0707V20.8605H27.8531L28.5165 15.6896H23.4089V12.3973C23.4089 10.9014 23.8257 9.88839 25.9627 9.88839H28.6926V5.27102C27.3761 5.13452 26.0533 5.06768 24.7298 5.07078C20.8022 5.07078 18.1251 7.4737 18.1251 11.8849V15.6896H13.6926V20.8605H18.1251V34.0707H23.4089Z" fill="white"/>
</svg>
