<svg width="34" height="34" viewBox="0 0 34 34" fill="none" xmlns="http://www.w3.org/2000/svg">
<path opacity="0.2" fill-rule="evenodd" clip-rule="evenodd" d="M17.0001 -7.94716e-09C7.61246 -7.94716e-09 0 7.80345 0 17.4303C0 25.1315 4.87106 31.6652 11.6257 33.9701C12.4753 34.1314 12.7873 33.5919 12.7873 33.1315C12.7873 32.7159 12.7715 31.3428 12.7642 29.8863C8.03473 30.9407 7.03675 27.8298 7.03675 27.8298C6.26343 25.815 5.1492 25.2793 5.1492 25.2793C3.60678 24.1975 5.26546 24.2197 5.26546 24.2197C6.97257 24.3424 7.87145 26.0159 7.87145 26.0159C9.38769 28.6807 11.8484 27.9103 12.8185 27.4649C12.9711 26.3386 13.4117 25.5691 13.8978 25.1341C10.1219 24.6934 6.15252 23.1988 6.15252 16.5199C6.15252 14.6169 6.81661 13.0619 7.9041 11.8413C7.72759 11.402 7.1457 9.6294 8.06879 7.22847C8.06879 7.22847 9.49635 6.76001 12.745 9.01517C14.1011 8.62897 15.5554 8.43529 17.0001 8.42865C18.4449 8.43529 19.9003 8.62897 21.2589 9.01517C24.5037 6.76001 25.9292 7.22847 25.9292 7.22847C26.8546 9.6294 26.2724 11.402 26.0959 11.8413C27.1859 13.0619 27.8455 14.6169 27.8455 16.5199C27.8455 23.2147 23.8686 24.6887 20.083 25.1203C20.6928 25.6612 21.2361 26.7219 21.2361 28.3482C21.2361 30.6801 21.2164 32.5571 21.2164 33.1315C21.2164 33.5954 21.5224 34.1389 22.3841 33.9677C29.1351 31.6603 34 25.1289 34 17.4303C34 7.80345 26.3887 -7.94716e-09 17.0001 -7.94716e-09Z" fill="white"/>
</svg>
