<svg width="34" height="34" viewBox="0 0 34 34" fill="none" xmlns="http://www.w3.org/2000/svg">
<rect width="34" height="34" rx="2" fill="#FF3E00"/>
<path fill-rule="evenodd" clip-rule="evenodd" d="M14.4253 22.475L14.2414 19.15L14.4253 10.925C14.4253 10.6352 14.6725 10.4 14.977 10.4C15.2816 10.4 15.5287 10.6352 15.5287 10.925L15.7126 19.15L15.5287 22.475C15.5287 22.7648 15.2816 23 14.977 23C14.6725 23 14.4253 22.7648 14.4253 22.475ZM12.2184 22.475L12.0345 19.15L12.2184 13.025C12.2184 12.7352 12.4656 12.5 12.7701 12.5C13.0747 12.5 13.3218 12.7352 13.3218 13.025L13.5057 19.15L13.3218 22.475C13.3218 22.7648 13.0747 23 12.7701 23C12.4656 23 12.2184 22.7648 12.2184 22.475ZM10.0115 22.475L9.82759 19.15L10.0115 12.325C10.0115 12.0352 10.2587 11.8 10.5632 11.8C10.8678 11.8 11.1149 12.0352 11.1149 12.325L11.2989 19.15L11.1149 22.475C11.1149 22.7648 10.8678 23 10.5632 23C10.2587 23 10.0115 22.7648 10.0115 22.475ZM7.8046 22.475L7.62069 19.15L7.8046 13.725C7.8046 13.4352 8.05177 13.2 8.35632 13.2C8.66087 13.2 8.90805 13.4352 8.90805 13.725L9.09195 19.15L8.90805 22.475C8.90805 22.7648 8.66087 23 8.35632 23C8.05177 23 7.8046 22.7648 7.8046 22.475ZM5.5977 22.475L5.41379 19.15L5.5977 16.525C5.5977 16.2352 5.84487 16 6.14943 16C6.45398 16 6.70115 16.2352 6.70115 16.525L6.88506 19.15L6.70115 22.475C6.70115 22.7648 6.45398 23 6.14943 23C5.84487 23 5.5977 22.7648 5.5977 22.475ZM3.3908 22.475L3.2069 19.15L3.3908 15.825C3.3908 15.5352 3.63798 15.3 3.94253 15.3C4.24708 15.3 4.49425 15.5352 4.49425 15.825L4.67816 19.15L4.49425 22.475C4.49425 22.7648 4.24708 23 3.94253 23C3.63798 23 3.3908 22.7648 3.3908 22.475ZM1.18391 21.075L1 19.15L1.18391 17.225C1.18391 16.9352 1.43108 16.7 1.73563 16.7C2.04018 16.7 2.28736 16.9352 2.28736 17.225L2.47126 19.15L2.28736 21.075C2.28736 21.3648 2.04018 21.6 1.73563 21.6C1.43108 21.6 1.18391 21.3648 1.18391 21.075ZM27.0196 14.8732C27.5065 14.6972 28.0343 14.6 28.5862 14.6C31.0238 14.6 33 16.4804 33 18.8C33 21.1196 31.0238 23 28.5862 23H17.5522C16.9425 23 16.4483 22.5283 16.4483 21.949V10.75C16.4483 9 19.7586 9 19.7586 9C23.4182 9 26.4532 11.543 27.0196 14.8732Z" fill="white"/>
</svg>
