<svg width="34" height="34" viewBox="0 0 34 34" fill="none" xmlns="http://www.w3.org/2000/svg">
<g opacity="0.2">
<path d="M26.9044 15.1009C21.5072 11.8957 12.6046 11.6009 7.4523 13.1647C6.62488 13.4158 5.7499 12.9485 5.49928 12.1214C5.24849 11.2934 5.71507 10.4191 6.54311 10.1676C12.4576 8.37229 22.2896 8.71899 28.503 12.4073C29.2471 12.8492 29.4913 13.8103 29.0502 14.5532C28.6087 15.2974 27.6468 15.5427 26.9044 15.1009ZM26.7277 19.8483C26.349 20.4628 25.5456 20.6555 24.932 20.2782C20.4323 17.5123 13.571 16.711 8.24761 18.327C7.55727 18.5356 6.8281 18.1463 6.61841 17.4573C6.41041 16.767 6.79983 16.0391 7.48893 15.8292C13.5702 13.9838 21.1301 14.8777 26.2982 18.0536C26.9118 18.4316 27.105 19.2353 26.7277 19.8483ZM24.6789 24.4076C24.378 24.9011 23.7356 25.0556 23.2439 24.7549C19.312 22.3518 14.3631 21.8091 8.53478 23.1403C7.97315 23.2691 7.41339 22.9172 7.28531 22.3556C7.15667 21.7941 7.50728 21.2343 8.07016 21.1061C14.4482 19.6481 19.9193 20.2756 24.3326 22.9724C24.8246 23.2729 24.9796 23.9157 24.6789 24.4076ZM17 0.257275C7.75283 0.257275 0.256287 7.75367 0.256287 17.0007C0.256287 26.2489 7.75283 33.7446 17 33.7446C26.2474 33.7446 33.7436 26.2489 33.7436 17.0007C33.7436 7.75367 26.2474 0.257275 17 0.257275Z" fill="#1ED760"/>
</g>
</svg>
