<svg width="34" height="34" viewBox="0 0 34 34" fill="none" xmlns="http://www.w3.org/2000/svg">
<g opacity="0.2" clip-path="url(#clip0)">
<path d="M33.9983 8.67737C33.9971 7.63186 33.9066 6.59359 33.6581 5.57341C33.2094 3.72117 32.154 2.30184 30.5691 1.26478C29.7561 0.73298 28.8636 0.404979 27.9107 0.233743C27.1773 0.102301 26.4379 0.0420064 25.6937 0.0203004C25.6358 0.0178886 25.5755 0.00944741 25.5176 0.00341797H8.48141C8.2667 0.0154768 8.052 0.0275357 7.8373 0.0395946C6.77827 0.099889 5.72647 0.215654 4.73137 0.608774C2.83524 1.35884 1.46984 2.66602 0.668931 4.54479C0.397539 5.1815 0.255209 5.8568 0.155095 6.54053C0.0742808 7.09524 0.0284457 7.65236 0.0127653 8.2131C0.0115591 8.25651 0.00190958 8.29993 -0.00170898 8.34334V25.6587C0.0103529 25.8589 0.0212086 26.059 0.0344766 26.2592C0.105642 27.4132 0.252796 28.56 0.73889 29.62C1.66042 31.6314 3.20072 32.9531 5.3212 33.5886C5.91826 33.7683 6.53341 33.8539 7.15339 33.9118C7.93862 33.9865 8.72626 33.9986 9.5139 33.9986C14.7234 33.9986 19.9329 33.9986 25.1425 33.9962C25.8867 33.9962 26.6273 33.9492 27.3667 33.8563C28.5331 33.7068 29.6295 33.3595 30.6198 32.7083C31.8115 31.9245 32.7053 30.885 33.283 29.5802C33.5472 28.9833 33.698 28.349 33.8065 27.7051C33.9681 26.7488 34.0031 25.7817 34.0019 24.8146C33.9995 19.4351 34.0031 14.0568 33.9983 8.67737ZM24.8976 14.3294C24.8976 17.0269 24.8988 19.7245 24.8964 22.4209C24.8964 23.0118 24.8156 23.5918 24.5526 24.1296C24.1437 24.9665 23.4743 25.4923 22.5866 25.7443C22.092 25.8854 21.5866 25.9662 21.0716 25.9891C19.7231 26.053 18.5579 25.1389 18.3167 23.8137C18.1164 22.7199 18.6399 21.514 19.7894 20.9509C20.2478 20.7242 20.7375 20.5976 21.232 20.4914C21.7676 20.3757 22.3055 20.2744 22.8386 20.1514C23.227 20.0622 23.4864 19.8246 23.5624 19.4206C23.5805 19.3314 23.5877 19.2385 23.5877 19.1469C23.5889 16.5759 23.5889 14.0062 23.5865 11.4364C23.5865 11.3484 23.572 11.2592 23.5503 11.1748C23.4948 10.9613 23.3392 10.8311 23.1197 10.8431C22.8929 10.8564 22.6698 10.8926 22.4466 10.9372C21.3695 11.1494 20.2936 11.3677 19.2177 11.5848C18.1188 11.8054 17.02 12.0285 15.92 12.2504C15.271 12.3819 14.6221 12.5121 13.9732 12.6435C13.9503 12.6484 13.9273 12.6556 13.9056 12.6616C13.5136 12.7702 13.3713 12.9498 13.3532 13.355C13.3508 13.4165 13.352 13.478 13.352 13.5407C13.3508 17.2259 13.352 20.9123 13.3496 24.5963C13.3496 25.192 13.2832 25.7805 13.0444 26.334C12.65 27.2432 11.9528 27.8088 11.012 28.0825C10.515 28.226 10.0048 28.308 9.48857 28.3261C8.1304 28.3767 7.00262 27.4747 6.76983 26.1386C6.56839 24.987 7.0955 23.751 8.403 23.1975C8.90839 22.9852 9.43912 22.8683 9.97225 22.7573C10.3787 22.6717 10.7864 22.5945 11.1917 22.5077C11.7333 22.3895 12.0167 22.0495 12.0397 21.496C12.0421 21.4236 12.0409 21.3549 12.0409 21.2825C12.0409 17.0896 12.0409 12.8956 12.0433 8.70269C12.0433 8.52784 12.0614 8.34816 12.1024 8.17813C12.2013 7.77416 12.4896 7.54383 12.8755 7.44375C13.2374 7.34969 13.6053 7.28457 13.972 7.2098C15.0105 6.99998 16.049 6.79136 17.0876 6.58274C18.1611 6.36568 19.2334 6.14983 20.3069 5.93277C21.2549 5.74103 22.203 5.54688 23.1535 5.35997C23.4647 5.29847 23.7807 5.23576 24.0943 5.21044C24.5333 5.17547 24.8349 5.45162 24.8795 5.89297C24.8904 5.99789 24.8964 6.104 24.8964 6.21012C24.8988 8.91734 24.8988 11.6234 24.8976 14.3294Z" fill="white"/>
</g>
<defs>
<clipPath id="clip0">
<rect width="34" height="34" fill="white"/>
</clipPath>
</defs>
</svg>
