<svg width="55" height="34" viewBox="0 0 55 34" fill="none" xmlns="http://www.w3.org/2000/svg">
<g opacity="0.2">
<path d="M47 19.9523C47 8.95931 38.2438 0 27.5 0C16.7562 0 8 8.95931 8 19.9523C8 25.0366 9.88016 29.901 13.2913 33.6111C13.7479 34.1058 14.5 34.1333 15.0103 33.6661L17.1054 31.6324C17.5888 31.1652 17.6157 30.3957 17.1591 29.901C14.688 27.2077 13.3182 23.6625 13.3182 19.9798C13.3182 11.9824 19.6839 5.46903 27.5 5.46903C35.3161 5.46903 41.6818 11.9824 41.6818 19.9798C41.6818 23.69 40.312 27.2077 37.8409 29.901C37.3843 30.3957 37.4112 31.1652 37.8946 31.6324L39.9897 33.6661C40.4731 34.1333 41.2521 34.1058 41.7087 33.6111C45.1198 29.8735 47 25.0366 47 19.9523Z" fill="#99CC00"/>
<path d="M55 19.7921C55 17.0796 54.5694 14.422 53.7369 11.8465C53.5073 11.2163 52.7896 10.8601 52.1294 11.0519L49.1726 11.9287C48.4837 12.1205 48.1105 12.8054 48.3114 13.463C48.9717 15.5179 49.3162 17.6276 49.3162 19.7921C49.3162 23.6279 48.2253 27.3542 46.1872 30.642C45.814 31.2174 46.0149 31.9845 46.6465 32.3133L49.2875 33.8203C49.8903 34.1764 50.6941 33.9847 51.0672 33.4093C53.6508 29.3269 55 24.6143 55 19.7921Z" fill="#99CC00"/>
<path d="M8.83164 30.6186C6.78914 27.3621 5.69597 23.6129 5.69597 19.7817C5.69597 17.6197 6.04119 15.4852 6.70284 13.4601C6.90421 12.8033 6.53024 12.1191 5.83982 11.9276L2.87676 11.0519C2.18634 10.8603 1.46714 11.2161 1.26577 11.8455C0.431515 14.4179 0 17.0724 0 19.7817C0 24.5981 1.38084 29.3051 3.94116 33.41C4.31513 33.9847 5.09186 34.1762 5.72474 33.8205L8.37136 32.3153C8.97548 31.9596 9.17685 31.1933 8.83164 30.6186Z" fill="#99CC00"/>
</g>
</svg>
