<svg width="104" height="18" viewBox="0 0 104 18" fill="none" xmlns="http://www.w3.org/2000/svg">
<path opacity="0.4" d="M3.608 13.162C2.684 13.162 1.964 13.006 1.448 12.694C0.932 12.382 0.566 11.89 0.35 11.218C0.134 10.546 0.0260001 9.64 0.0260001 8.5C0.0260001 7.636 0.0920001 6.88 0.224 6.232C0.356 5.572 0.668 5.002 1.16 4.522C1.652 4.042 2.396 3.802 3.392 3.802C3.764 3.802 4.13 3.82 4.49 3.856C4.85 3.88 5.354 3.946 6.002 4.054L5.948 4.792C5 4.684 4.268 4.63 3.752 4.63C3.02 4.63 2.45 4.75 2.042 4.99C1.646 5.218 1.364 5.614 1.196 6.178C1.028 6.73 0.944 7.522 0.944 8.554C0.944 9.526 1.022 10.282 1.178 10.822C1.346 11.362 1.634 11.758 2.042 12.01C2.462 12.25 3.062 12.37 3.842 12.37L5.984 12.208L6.02 12.964C4.928 13.096 4.124 13.162 3.608 13.162ZM11.3805 13.162C10.3965 13.162 9.63448 13.018 9.09448 12.73C8.56648 12.43 8.19448 11.956 7.97848 11.308C7.76248 10.648 7.65448 9.742 7.65448 8.59C7.65448 7.378 7.76848 6.436 7.99648 5.764C8.22448 5.08 8.60248 4.588 9.13048 4.288C9.67048 3.988 10.4205 3.838 11.3805 3.838C12.3525 3.838 13.1025 3.994 13.6305 4.306C14.1705 4.606 14.5485 5.098 14.7645 5.782C14.9925 6.454 15.1065 7.39 15.1065 8.59C15.1065 9.742 14.9985 10.648 14.7825 11.308C14.5785 11.956 14.2065 12.43 13.6665 12.73C13.1385 13.018 12.3765 13.162 11.3805 13.162ZM11.4165 12.37C12.1965 12.37 12.7785 12.25 13.1625 12.01C13.5585 11.77 13.8285 11.392 13.9725 10.876C14.1165 10.348 14.1885 9.586 14.1885 8.59C14.1885 7.534 14.1105 6.73 13.9545 6.178C13.7985 5.614 13.5225 5.218 13.1265 4.99C12.7425 4.75 12.1725 4.63 11.4165 4.63C10.6485 4.63 10.0605 4.75 9.65248 4.99C9.25648 5.218 8.98048 5.614 8.82448 6.178C8.66848 6.73 8.59048 7.534 8.59048 8.59C8.59048 9.574 8.66248 10.33 8.80648 10.858C8.95048 11.386 9.22048 11.77 9.61648 12.01C10.0245 12.25 10.6245 12.37 11.4165 12.37ZM17.4891 4H18.3711V4.684C19.2951 4.12 20.2671 3.838 21.2871 3.838C22.4271 3.838 23.1951 4.156 23.5911 4.792C23.9751 4.54 24.4911 4.318 25.1391 4.126C25.7871 3.934 26.4471 3.838 27.1191 3.838C27.8391 3.838 28.3971 3.982 28.7931 4.27C29.1891 4.558 29.4651 5.02 29.6211 5.656C29.7771 6.292 29.8551 7.174 29.8551 8.302V13H28.9731V8.32C28.9731 7.324 28.9191 6.574 28.8111 6.07C28.7031 5.554 28.5051 5.188 28.2171 4.972C27.9291 4.744 27.4971 4.63 26.9211 4.63C26.4051 4.63 25.8951 4.696 25.3911 4.828C24.8871 4.96 24.5151 5.098 24.2751 5.242L23.8971 5.44C24.1011 5.608 24.2031 6.568 24.2031 8.32V13H23.3031V8.356C23.3031 7.372 23.2491 6.622 23.1411 6.106C23.0331 5.578 22.8351 5.2 22.5471 4.972C22.2711 4.744 21.8571 4.63 21.3051 4.63C20.8251 4.63 20.3391 4.696 19.8471 4.828C19.3551 4.948 18.9831 5.086 18.7311 5.242L18.3891 5.44V13H17.4891V4ZM32.5184 4H33.3824V13H32.5184V4ZM32.5184 0.399999H33.3824V1.588H32.5184V0.399999ZM36.1395 4H37.0215V4.684C37.5975 4.372 38.1315 4.156 38.6235 4.036C39.1155 3.904 39.6255 3.838 40.1535 3.838C40.9215 3.838 41.5095 3.976 41.9175 4.252C42.3375 4.516 42.6255 4.966 42.7815 5.602C42.9495 6.226 43.0335 7.126 43.0335 8.302V13H42.1695V8.32C42.1695 7.348 42.1095 6.604 41.9895 6.088C41.8815 5.572 41.6835 5.2 41.3955 4.972C41.1075 4.744 40.6815 4.63 40.1175 4.63C39.6255 4.63 39.1215 4.696 38.6055 4.828C38.0895 4.96 37.6995 5.098 37.4355 5.242L37.0395 5.44V13H36.1395V4ZM48.8524 17.266C47.9164 17.266 47.1904 17.17 46.6744 16.978C46.1704 16.798 45.8164 16.516 45.6124 16.132C45.4204 15.748 45.3244 15.226 45.3244 14.566C45.3244 14.146 45.3664 13.816 45.4504 13.576C45.5464 13.336 45.6844 13.132 45.8644 12.964C46.0444 12.784 46.3564 12.526 46.8004 12.19C46.6564 12.094 46.5484 11.944 46.4764 11.74C46.4044 11.524 46.3684 11.296 46.3684 11.056C46.3684 10.9 46.3984 10.732 46.4584 10.552C46.5304 10.372 46.6864 10.048 46.9264 9.58C45.9304 9.232 45.4324 8.326 45.4324 6.862C45.4324 5.83 45.6904 5.068 46.2064 4.576C46.7224 4.072 47.5444 3.82 48.6724 3.82C49.2364 3.82 49.8484 3.898 50.5084 4.054L53.0644 3.982V4.81H51.2104C51.6544 5.182 51.8764 5.872 51.8764 6.88C51.8764 7.948 51.6124 8.71 51.0844 9.166C50.5684 9.61 49.7284 9.832 48.5644 9.832C48.1804 9.832 47.8624 9.808 47.6104 9.76C47.5864 9.808 47.5624 9.868 47.5384 9.94C47.5264 10 47.5024 10.06 47.4664 10.12C47.3944 10.3 47.3344 10.468 47.2864 10.624C47.2384 10.768 47.2144 10.9 47.2144 11.02C47.2144 11.368 47.3404 11.596 47.5924 11.704C47.8564 11.812 48.2584 11.866 48.7984 11.866H49.6444C50.3764 11.854 50.9704 11.908 51.4264 12.028C51.8824 12.148 52.2364 12.394 52.4884 12.766C52.7404 13.126 52.8664 13.654 52.8664 14.35C52.8664 15.37 52.5604 16.108 51.9484 16.564C51.3484 17.032 50.3164 17.266 48.8524 17.266ZM48.6544 9.094C49.5064 9.094 50.1064 8.926 50.4544 8.59C50.8024 8.254 50.9764 7.666 50.9764 6.826C50.9764 5.998 50.8024 5.416 50.4544 5.08C50.1064 4.744 49.5184 4.576 48.6904 4.576C47.8264 4.576 47.2144 4.75 46.8544 5.098C46.4944 5.434 46.3144 6.016 46.3144 6.844C46.3144 7.672 46.4884 8.254 46.8364 8.59C47.1964 8.926 47.8024 9.094 48.6544 9.094ZM48.9604 16.51C49.7164 16.51 50.3104 16.438 50.7424 16.294C51.1744 16.162 51.4804 15.934 51.6604 15.61C51.8524 15.298 51.9484 14.872 51.9484 14.332C51.9484 13.876 51.8824 13.528 51.7504 13.288C51.6304 13.06 51.3964 12.898 51.0484 12.802C50.7124 12.694 50.2024 12.646 49.5184 12.658L47.4304 12.586C46.9264 12.934 46.5964 13.222 46.4404 13.45C46.2844 13.69 46.2064 14.038 46.2064 14.494C46.2064 15.01 46.2904 15.412 46.4584 15.7C46.6264 15.988 46.9024 16.192 47.2864 16.312C47.6824 16.444 48.2404 16.51 48.9604 16.51ZM61.4274 13.162C60.6954 13.162 59.8494 13.09 58.8894 12.946L58.3494 12.856L58.4214 12.064C59.7774 12.268 60.8034 12.37 61.4994 12.37C62.3394 12.37 62.9574 12.226 63.3534 11.938C63.7494 11.65 63.9474 11.188 63.9474 10.552C63.9474 10.096 63.8454 9.754 63.6414 9.526C63.4494 9.286 63.1974 9.118 62.8854 9.022C62.5854 8.926 62.1654 8.842 61.6254 8.77C61.5414 8.746 61.4034 8.722 61.2114 8.698C60.4314 8.566 59.8314 8.416 59.4114 8.248C58.9914 8.08 58.6914 7.852 58.5114 7.564C58.3314 7.276 58.2414 6.886 58.2414 6.394C58.2414 5.446 58.5234 4.786 59.0874 4.414C59.6634 4.042 60.4914 3.856 61.5714 3.856C62.5314 3.856 63.3654 3.916 64.0734 4.036L64.5414 4.126L64.5054 4.9C63.2814 4.708 62.2914 4.612 61.5354 4.612C60.6954 4.612 60.0834 4.75 59.6994 5.026C59.3274 5.302 59.1414 5.716 59.1414 6.268C59.1414 6.652 59.2314 6.946 59.4114 7.15C59.5914 7.354 59.8254 7.504 60.1134 7.6C60.4134 7.684 60.8454 7.774 61.4094 7.87C61.4934 7.894 61.6194 7.918 61.7874 7.942C62.5794 8.086 63.1794 8.242 63.5874 8.41C64.0074 8.566 64.3194 8.8 64.5234 9.112C64.7394 9.424 64.8474 9.868 64.8474 10.444C64.8474 11.404 64.5654 12.1 64.0014 12.532C63.4494 12.952 62.5914 13.162 61.4274 13.162ZM70.4078 13.162C69.4238 13.162 68.6618 13.018 68.1218 12.73C67.5938 12.43 67.2218 11.956 67.0058 11.308C66.7898 10.648 66.6818 9.742 66.6818 8.59C66.6818 7.378 66.7958 6.436 67.0238 5.764C67.2518 5.08 67.6298 4.588 68.1578 4.288C68.6978 3.988 69.4478 3.838 70.4078 3.838C71.3798 3.838 72.1298 3.994 72.6578 4.306C73.1978 4.606 73.5758 5.098 73.7918 5.782C74.0198 6.454 74.1338 7.39 74.1338 8.59C74.1338 9.742 74.0258 10.648 73.8098 11.308C73.6058 11.956 73.2338 12.43 72.6938 12.73C72.1658 13.018 71.4038 13.162 70.4078 13.162ZM70.4438 12.37C71.2238 12.37 71.8058 12.25 72.1898 12.01C72.5858 11.77 72.8558 11.392 72.9998 10.876C73.1438 10.348 73.2158 9.586 73.2158 8.59C73.2158 7.534 73.1378 6.73 72.9818 6.178C72.8258 5.614 72.5498 5.218 72.1538 4.99C71.7698 4.75 71.1998 4.63 70.4438 4.63C69.6758 4.63 69.0878 4.75 68.6798 4.99C68.2838 5.218 68.0078 5.614 67.8518 6.178C67.6958 6.73 67.6178 7.534 67.6178 8.59C67.6178 9.574 67.6898 10.33 67.8338 10.858C67.9778 11.386 68.2478 11.77 68.6438 12.01C69.0518 12.25 69.6518 12.37 70.4438 12.37ZM79.8824 13.162C78.8984 13.162 78.1364 13.018 77.5964 12.73C77.0684 12.43 76.6964 11.956 76.4804 11.308C76.2644 10.648 76.1564 9.742 76.1564 8.59C76.1564 7.378 76.2704 6.436 76.4984 5.764C76.7264 5.08 77.1044 4.588 77.6324 4.288C78.1724 3.988 78.9224 3.838 79.8824 3.838C80.8544 3.838 81.6044 3.994 82.1324 4.306C82.6724 4.606 83.0504 5.098 83.2664 5.782C83.4944 6.454 83.6084 7.39 83.6084 8.59C83.6084 9.742 83.5004 10.648 83.2844 11.308C83.0804 11.956 82.7084 12.43 82.1684 12.73C81.6404 13.018 80.8784 13.162 79.8824 13.162ZM79.9184 12.37C80.6984 12.37 81.2804 12.25 81.6644 12.01C82.0604 11.77 82.3304 11.392 82.4744 10.876C82.6184 10.348 82.6904 9.586 82.6904 8.59C82.6904 7.534 82.6124 6.73 82.4564 6.178C82.3004 5.614 82.0244 5.218 81.6284 4.99C81.2444 4.75 80.6744 4.63 79.9184 4.63C79.1504 4.63 78.5624 4.75 78.1544 4.99C77.7584 5.218 77.4824 5.614 77.3264 6.178C77.1704 6.73 77.0924 7.534 77.0924 8.59C77.0924 9.574 77.1644 10.33 77.3084 10.858C77.4524 11.386 77.7224 11.77 78.1184 12.01C78.5264 12.25 79.1264 12.37 79.9184 12.37ZM85.991 4H86.873V4.684C87.449 4.372 87.983 4.156 88.475 4.036C88.967 3.904 89.477 3.838 90.005 3.838C90.773 3.838 91.361 3.976 91.769 4.252C92.189 4.516 92.477 4.966 92.633 5.602C92.801 6.226 92.885 7.126 92.885 8.302V13H92.021V8.32C92.021 7.348 91.961 6.604 91.841 6.088C91.733 5.572 91.535 5.2 91.247 4.972C90.959 4.744 90.533 4.63 89.969 4.63C89.477 4.63 88.973 4.696 88.457 4.828C87.941 4.96 87.551 5.098 87.287 5.242L86.891 5.44V13H85.991V4ZM95.464 11.362H96.454V13H95.464V11.362ZM99.0499 11.362H100.04V13H99.0499V11.362ZM102.636 11.362H103.626V13H102.636V11.362Z" fill="#8B8B8B"/>
</svg>
