<svg width="193" height="15" viewBox="0 0 193 15" fill="none" xmlns="http://www.w3.org/2000/svg">
<path opacity="0.6" d="M4.78708 11.012C3.91108 11.012 3.11908 10.802 2.41108 10.382C1.70308 9.95 1.14508 9.368 0.737078 8.636C0.329078 7.892 0.125078 7.07 0.125078 6.17C0.125078 5.282 0.323078 4.472 0.719078 3.74C1.12708 3.008 1.68508 2.432 2.39308 2.012C3.10108 1.58 3.89308 1.364 4.76908 1.364C5.63308 1.364 6.41908 1.58 7.12708 2.012C7.83508 2.444 8.39308 3.032 8.80108 3.776C9.20908 4.508 9.41308 5.318 9.41308 6.206C9.41308 7.094 9.20908 7.904 8.80108 8.636C8.40508 9.368 7.85308 9.95 7.14508 10.382C6.44908 10.802 5.66308 11.012 4.78708 11.012ZM4.75108 10.346C5.49508 10.346 6.17308 10.166 6.78508 9.806C7.39708 9.434 7.87708 8.93 8.22508 8.294C8.58508 7.658 8.76508 6.956 8.76508 6.188C8.76508 5.42 8.59108 4.718 8.24308 4.082C7.89508 3.434 7.41508 2.924 6.80308 2.552C6.19108 2.18 5.51308 1.994 4.76908 1.994C3.62908 1.994 2.67508 2.402 1.90708 3.218C1.15108 4.046 0.773078 5.036 0.773078 6.188C0.773078 6.956 0.947078 7.658 1.29508 8.294C1.64308 8.93 2.11708 9.434 2.71708 9.806C3.32908 10.166 4.00708 10.346 4.75108 10.346ZM4.84108 8.978C4.07308 8.978 3.53308 8.756 3.22108 8.312C2.92108 7.868 2.77108 7.16 2.77108 6.188C2.77108 5.228 2.92108 4.526 3.22108 4.082C3.53308 3.638 4.05508 3.416 4.78708 3.416C5.27908 3.416 5.67508 3.446 5.97508 3.506L6.15508 3.56L6.10108 4.262C5.63308 4.19 5.17108 4.154 4.71508 4.154C4.27108 4.154 3.96508 4.304 3.79708 4.604C3.62908 4.904 3.54508 5.426 3.54508 6.17C3.54508 6.938 3.62908 7.478 3.79708 7.79C3.97708 8.09 4.31908 8.24 4.82308 8.24L6.10108 8.114L6.15508 8.816C5.65108 8.924 5.21308 8.978 4.84108 8.978ZM15.8249 13.244L19.6949 9.122C20.2229 8.582 20.6309 8.144 20.9189 7.808C21.2069 7.46 21.4709 7.052 21.7109 6.584C21.9629 6.104 22.0889 5.618 22.0889 5.126C22.0889 4.286 21.8549 3.686 21.3869 3.326C20.9189 2.966 20.1569 2.786 19.1009 2.786C18.3809 2.786 17.5169 2.9 16.5089 3.128L16.0229 3.236L15.9149 2.426C16.9949 2.114 18.1529 1.958 19.3889 1.958C20.6129 1.958 21.5249 2.204 22.1249 2.696C22.7249 3.188 23.0249 3.974 23.0249 5.054C23.0249 5.834 22.8449 6.536 22.4849 7.16C22.1369 7.772 21.5129 8.516 20.6129 9.392L16.9589 13.208H23.3669V14H15.8249V13.244ZM29.6591 14.18C28.6991 14.18 27.9131 13.988 27.3011 13.604C26.6891 13.22 26.2271 12.584 25.9151 11.696C25.6031 10.796 25.4471 9.59 25.4471 8.078C25.4471 6.566 25.6031 5.366 25.9151 4.478C26.2271 3.578 26.6891 2.93 27.3011 2.534C27.9131 2.138 28.6991 1.94 29.6591 1.94C30.6071 1.94 31.3871 2.138 31.9991 2.534C32.6111 2.93 33.0731 3.578 33.3851 4.478C33.6971 5.378 33.8531 6.578 33.8531 8.078C33.8531 9.59 33.6971 10.796 33.3851 11.696C33.0731 12.584 32.6111 13.22 31.9991 13.604C31.3871 13.988 30.6071 14.18 29.6591 14.18ZM29.6591 13.37C30.4271 13.37 31.0451 13.208 31.5131 12.884C31.9931 12.548 32.3471 11.996 32.5751 11.228C32.8031 10.46 32.9171 9.41 32.9171 8.078C32.9171 6.746 32.8031 5.696 32.5751 4.928C32.3471 4.16 31.9931 3.614 31.5131 3.29C31.0451 2.954 30.4271 2.786 29.6591 2.786C28.8911 2.786 28.2671 2.954 27.7871 3.29C27.3191 3.614 26.9711 4.16 26.7431 4.928C26.5151 5.696 26.4011 6.746 26.4011 8.078C26.4011 9.41 26.5151 10.46 26.7431 11.228C26.9711 11.996 27.3191 12.548 27.7871 12.884C28.2671 13.208 28.8911 13.37 29.6591 13.37ZM40.5594 3.128L37.2834 5.288L36.8694 4.604L40.5954 2.12H41.4594V14H40.5594V3.128ZM49.2097 14.162C48.4057 14.162 47.5057 14.102 46.5097 13.982L46.0777 13.928L46.1677 13.154C47.2237 13.286 48.2377 13.352 49.2097 13.352C51.6097 13.352 52.8277 11.792 52.8637 8.672C51.5917 9.176 50.4397 9.428 49.4077 9.428C48.1237 9.428 47.1697 9.134 46.5457 8.546C45.9217 7.958 45.6097 7.07 45.6097 5.882C45.6097 5.09 45.7717 4.4 46.0957 3.812C46.4317 3.224 46.8937 2.768 47.4817 2.444C48.0817 2.12 48.7777 1.958 49.5697 1.958C52.4017 1.958 53.8177 4.07 53.8177 8.294C53.8177 10.346 53.4337 11.84 52.6657 12.776C51.9097 13.7 50.7577 14.162 49.2097 14.162ZM49.4617 8.6C50.3017 8.6 51.2557 8.414 52.3237 8.042L52.8817 7.862C52.8217 4.466 51.7357 2.768 49.6237 2.768C48.6757 2.768 47.9257 3.05 47.3737 3.614C46.8337 4.166 46.5637 4.922 46.5637 5.882C46.5637 7.694 47.5297 8.6 49.4617 8.6ZM63.525 14.162C62.541 14.162 61.779 14.018 61.239 13.73C60.711 13.43 60.339 12.956 60.123 12.308C59.907 11.648 59.799 10.742 59.799 9.59C59.799 8.378 59.913 7.436 60.141 6.764C60.369 6.08 60.747 5.588 61.275 5.288C61.815 4.988 62.565 4.838 63.525 4.838C64.497 4.838 65.247 4.994 65.775 5.306C66.315 5.606 66.693 6.098 66.909 6.782C67.137 7.454 67.251 8.39 67.251 9.59C67.251 10.742 67.143 11.648 66.927 12.308C66.723 12.956 66.351 13.43 65.811 13.73C65.283 14.018 64.521 14.162 63.525 14.162ZM63.561 13.37C64.341 13.37 64.923 13.25 65.307 13.01C65.703 12.77 65.973 12.392 66.117 11.876C66.261 11.348 66.333 10.586 66.333 9.59C66.333 8.534 66.255 7.73 66.099 7.178C65.943 6.614 65.667 6.218 65.271 5.99C64.887 5.75 64.317 5.63 63.561 5.63C62.793 5.63 62.205 5.75 61.797 5.99C61.401 6.218 61.125 6.614 60.969 7.178C60.813 7.73 60.735 8.534 60.735 9.59C60.735 10.574 60.807 11.33 60.951 11.858C61.095 12.386 61.365 12.77 61.761 13.01C62.169 13.25 62.769 13.37 63.561 13.37ZM68.6118 5H69.5838L71.9778 13.208H72.7158L75.1818 5H76.1178L73.4178 14H71.3118L68.6118 5ZM81.1015 14.162C79.7575 14.162 78.8095 13.808 78.2575 13.1C77.7175 12.392 77.4475 11.27 77.4475 9.734C77.4475 8.066 77.7415 6.836 78.3295 6.044C78.9295 5.24 79.8655 4.838 81.1375 4.838C82.3135 4.838 83.1835 5.186 83.7475 5.882C84.3115 6.566 84.5935 7.64 84.5935 9.104L84.5755 9.86H78.3475C78.3355 10.724 78.4195 11.414 78.5995 11.93C78.7795 12.434 79.0855 12.806 79.5175 13.046C79.9615 13.274 80.5735 13.388 81.3535 13.388C81.6775 13.388 82.0555 13.382 82.4875 13.37C82.9315 13.346 83.3395 13.316 83.7115 13.28L84.2515 13.226L84.2875 13.964C83.0395 14.096 81.9775 14.162 81.1015 14.162ZM83.6935 9.104C83.6935 7.856 83.4895 6.962 83.0815 6.422C82.6735 5.87 82.0255 5.594 81.1375 5.594C80.2135 5.594 79.5175 5.882 79.0495 6.458C78.5815 7.022 78.3415 7.904 78.3295 9.104H83.6935ZM86.8602 5H87.7422V6.332C88.7622 5.588 89.9202 5.078 91.2162 4.802V5.72C90.7242 5.816 90.1722 5.984 89.5602 6.224C88.9602 6.464 88.5222 6.68 88.2462 6.872L87.7602 7.142V14H86.8602V5ZM94.3821 2.282H90.3141V1.454H99.3141V2.282H95.2821V14H94.3821V2.282ZM100.923 0.932H101.823V5.54C102.843 5.072 103.857 4.838 104.865 4.838C105.657 4.838 106.263 4.976 106.683 5.252C107.103 5.516 107.397 5.966 107.565 6.602C107.733 7.226 107.817 8.126 107.817 9.302V14H106.917V9.338C106.917 8.306 106.857 7.532 106.737 7.016C106.629 6.5 106.419 6.14 106.107 5.936C105.795 5.732 105.321 5.63 104.685 5.63C103.893 5.63 103.065 5.798 102.201 6.134L101.823 6.278V14H100.923V0.932ZM113.762 14.162C112.418 14.162 111.47 13.808 110.918 13.1C110.378 12.392 110.108 11.27 110.108 9.734C110.108 8.066 110.402 6.836 110.99 6.044C111.59 5.24 112.526 4.838 113.798 4.838C114.974 4.838 115.844 5.186 116.408 5.882C116.972 6.566 117.254 7.64 117.254 9.104L117.236 9.86H111.008C110.996 10.724 111.08 11.414 111.26 11.93C111.44 12.434 111.746 12.806 112.178 13.046C112.622 13.274 113.234 13.388 114.014 13.388C114.338 13.388 114.716 13.382 115.148 13.37C115.592 13.346 116 13.316 116.372 13.28L116.912 13.226L116.948 13.964C115.7 14.096 114.638 14.162 113.762 14.162ZM116.354 9.104C116.354 7.856 116.15 6.962 115.742 6.422C115.334 5.87 114.686 5.594 113.798 5.594C112.874 5.594 112.178 5.882 111.71 6.458C111.242 7.022 111.002 7.904 110.99 9.104H116.354ZM128.574 1.454V14H126.702L121.014 2.264H120.672V14H119.772V1.454H121.662L127.296 13.19H127.692V1.454H128.574ZM134.785 14.162C133.441 14.162 132.493 13.808 131.941 13.1C131.401 12.392 131.131 11.27 131.131 9.734C131.131 8.066 131.425 6.836 132.013 6.044C132.613 5.24 133.549 4.838 134.821 4.838C135.997 4.838 136.867 5.186 137.431 5.882C137.995 6.566 138.277 7.64 138.277 9.104L138.259 9.86H132.031C132.019 10.724 132.103 11.414 132.283 11.93C132.463 12.434 132.769 12.806 133.201 13.046C133.645 13.274 134.257 13.388 135.037 13.388C135.361 13.388 135.739 13.382 136.171 13.37C136.615 13.346 137.023 13.316 137.395 13.28L137.935 13.226L137.971 13.964C136.723 14.096 135.661 14.162 134.785 14.162ZM137.377 9.104C137.377 7.856 137.173 6.962 136.765 6.422C136.357 5.87 135.709 5.594 134.821 5.594C133.897 5.594 133.201 5.882 132.733 6.458C132.265 7.022 132.025 7.904 132.013 9.104H137.377ZM139.665 5H140.565L142.707 13.208H142.923L145.407 5.18H146.343L148.809 13.208H149.061L151.167 5H152.085L149.745 14H148.161L145.875 6.296L143.589 14H141.987L139.665 5ZM155.266 2.264V7.196H160.72V8.006H155.266V13.19H161.8V14H154.366V1.454H161.8V2.264H155.266ZM165.935 14.162C165.143 14.162 164.537 13.934 164.117 13.478C163.709 13.022 163.505 12.38 163.505 11.552C163.505 10.724 163.709 10.1 164.117 9.68C164.525 9.248 165.179 8.978 166.079 8.87L169.301 8.546V7.682C169.301 6.986 169.151 6.476 168.851 6.152C168.563 5.816 168.161 5.648 167.645 5.648C167.117 5.648 166.625 5.666 166.169 5.702C165.713 5.738 164.999 5.81 164.027 5.918L163.973 5.18C165.269 4.952 166.421 4.838 167.429 4.838C168.377 4.838 169.073 5.066 169.517 5.522C169.961 5.978 170.183 6.698 170.183 7.682V12.668C170.195 12.86 170.309 13.022 170.525 13.154C170.741 13.286 171.041 13.376 171.425 13.424L171.389 14.162C170.957 14.162 170.567 14.096 170.219 13.964C169.883 13.832 169.619 13.646 169.427 13.406C168.299 13.91 167.135 14.162 165.935 14.162ZM166.007 13.388C166.943 13.388 167.879 13.22 168.815 12.884L169.301 12.722V9.284L166.187 9.59C165.563 9.638 165.113 9.812 164.837 10.112C164.573 10.412 164.441 10.856 164.441 11.444C164.441 12.74 164.963 13.388 166.007 13.388ZM173.011 5H173.893V6.332C174.913 5.588 176.071 5.078 177.367 4.802V5.72C176.875 5.816 176.323 5.984 175.711 6.224C175.111 6.464 174.673 6.68 174.397 6.872L173.911 7.142V14H173.011V5ZM181.83 14.198C181.254 14.198 180.804 14.102 180.48 13.91C180.156 13.718 179.922 13.394 179.778 12.938C179.634 12.47 179.562 11.81 179.562 10.958V5.792H178.194V5H179.562V2.138H180.426V5H183.576V5.792H180.426V10.346C180.426 11.174 180.456 11.792 180.516 12.2C180.576 12.596 180.708 12.896 180.912 13.1C181.128 13.304 181.476 13.406 181.956 13.406L183.666 13.262L183.738 14.018C182.898 14.138 182.262 14.198 181.83 14.198ZM185.245 0.932H186.145V5.54C187.165 5.072 188.179 4.838 189.187 4.838C189.979 4.838 190.585 4.976 191.005 5.252C191.425 5.516 191.719 5.966 191.887 6.602C192.055 7.226 192.139 8.126 192.139 9.302V14H191.239V9.338C191.239 8.306 191.179 7.532 191.059 7.016C190.951 6.5 190.741 6.14 190.429 5.936C190.117 5.732 189.643 5.63 189.007 5.63C188.215 5.63 187.387 5.798 186.523 6.134L186.145 6.278V14H185.245V0.932Z" fill="#BDBDBD"/>
</svg>
