<svg width="28" height="28" viewBox="0 0 28 28" fill="none" xmlns="http://www.w3.org/2000/svg">
<g clip-path="url(#clip0)">
<path d="M26.4552 0H1.54483C1.13511 0 0.742181 0.162758 0.45247 0.45247C0.162758 0.742181 0 1.13511 0 1.54483L0 26.4552C0 26.8649 0.162758 27.2578 0.45247 27.5475C0.742181 27.8372 1.13511 28 1.54483 28H14.9655V17.1717H11.3207V12.9331H14.9655V9.81448C14.9655 6.19862 17.1766 4.22897 20.4014 4.22897C21.4881 4.2266 22.5742 4.28138 23.6552 4.3931V8.1731H21.4345C19.6772 8.1731 19.3345 9.00345 19.3345 10.2297V12.9283H23.5345L22.989 17.1669H19.3103V28H26.4552C26.8649 28 27.2578 27.8372 27.5475 27.5475C27.8372 27.2578 28 26.8649 28 26.4552V1.54483C28 1.13511 27.8372 0.742181 27.5475 0.45247C27.2578 0.162758 26.8649 0 26.4552 0V0Z" fill="#4267B2"/>
<path d="M19.3103 28.0004V17.1721H22.9648L23.5103 12.9335H19.3103V10.2349C19.3103 9.00864 19.6531 8.1783 21.4103 8.1783H23.6552V4.39347C22.5726 4.28158 21.4849 4.22679 20.3965 4.22933C17.1669 4.22933 14.9655 6.19899 14.9655 9.81485V12.9335H11.3207V17.1721H14.9655V28.0004H19.3103Z" fill="white"/>
</g>
<defs>
<clipPath id="clip0">
<rect width="28" height="28" fill="white"/>
</clipPath>
</defs>
</svg>
