<svg width="28" height="28" viewBox="0 0 28 28" fill="none" xmlns="http://www.w3.org/2000/svg">
<path fill-rule="evenodd" clip-rule="evenodd" d="M14.0001 -6.22305e-07C6.26908 -6.22305e-07 0 6.42637 0 14.3543C0 20.6966 4.01146 26.0773 9.57413 27.9754C10.2738 28.1082 10.5307 27.6639 10.5307 27.2848C10.5307 26.9425 10.5177 25.8117 10.5117 24.6123C6.61684 25.4806 5.79497 22.9186 5.79497 22.9186C5.15812 21.2594 4.24052 20.8183 4.24052 20.8183C2.97029 19.9273 4.33626 19.9456 4.33626 19.9456C5.74212 20.0467 6.48237 21.4249 6.48237 21.4249C7.73104 23.6194 9.75752 22.9849 10.5564 22.6182C10.6821 21.6906 11.0449 21.0569 11.4453 20.6987C8.33566 20.3357 5.06678 19.1049 5.06678 13.6046C5.06678 12.0374 5.61368 10.7569 6.50926 9.75163C6.3639 9.38984 5.8847 7.9301 6.64489 5.95286C6.64489 5.95286 7.82053 5.56707 10.4959 7.42426C11.6127 7.10621 12.8103 6.94671 14.0001 6.94124C15.1899 6.94671 16.3885 7.10621 17.5073 7.42426C20.1795 5.56707 21.3535 5.95286 21.3535 5.95286C22.1155 7.9301 21.6361 9.38984 21.4907 9.75163C22.3884 10.7569 22.9316 12.0374 22.9316 13.6046C22.9316 19.1179 19.6565 20.3319 16.539 20.6873C17.0411 21.1327 17.4886 22.0063 17.4886 23.3455C17.4886 25.266 17.4723 26.8118 17.4723 27.2848C17.4723 27.6668 17.7243 28.1144 18.434 27.9734C23.9936 26.0732 28 20.6944 28 14.3543C28 6.42637 21.7319 -6.22305e-07 14.0001 -6.22305e-07" fill="white" fill-opacity="0.2"/>
</svg>
