<svg width="68" height="35" viewBox="0 0 68 35" fill="none" xmlns="http://www.w3.org/2000/svg">
<g opacity="0.2">
<path d="M61.7075 34.4935C61.2766 34.4935 60.8457 34.3892 60.4626 34.1597C59.4331 33.5547 59.1698 32.3446 59.8401 31.4684C61.8991 28.7979 62.9764 25.6684 62.9764 22.4137C62.9764 19.1591 61.8991 16.0296 59.8401 13.3591C59.1458 12.462 59.4331 11.2519 60.4387 10.6677C61.4681 10.0627 62.8328 10.3131 63.5271 11.1893C66.0888 14.5066 67.4295 18.3871 67.4295 22.4137C67.4295 26.4403 66.0888 30.3209 63.5271 33.6381C63.1201 34.2014 62.4258 34.4935 61.7075 34.4935Z" fill="white"/>
<path d="M55.3153 31.343C54.8844 31.343 54.4534 31.2387 54.0704 31.0092C53.0409 30.4041 52.7776 29.1941 53.4719 28.3178C54.8365 26.5653 55.5547 24.5416 55.5547 22.4136C55.5547 20.3064 54.8365 18.2618 53.4719 16.5093C52.7776 15.6122 53.0409 14.423 54.0704 13.818C55.0998 13.213 56.4645 13.4425 57.1588 14.3396C59.0262 16.7388 60.0077 19.5345 60.0077 22.4136C60.0077 25.3135 59.0262 28.1092 57.1588 30.4876C56.7518 31.0509 56.0335 31.343 55.3153 31.343Z" fill="white"/>
<path d="M44.9015 13.9433C44.0157 6.16138 36.4744 0.0693359 27.3052 0.0693359C19.716 0.0693359 12.9887 4.32542 10.5707 10.5009C4.84892 11.2311 0.419922 15.5289 0.419922 20.7239C0.419922 26.4195 5.75866 31.072 12.3184 31.072H42.7708C48.2531 31.072 52.73 27.1915 52.73 22.4138C52.73 18.262 49.3783 14.7987 44.9015 13.9433ZM42.7708 27.1915H12.3184C8.22454 27.1915 4.87286 24.2915 4.87286 20.7239C4.87286 17.1563 8.2006 14.2563 12.3184 14.2563C14.3054 14.2563 16.1728 14.9239 17.5853 16.1548C18.4472 16.9059 19.8596 16.9059 20.7454 16.1548C21.6073 15.4038 21.6073 14.1728 20.7454 13.4009C19.2133 12.0657 17.3219 11.1477 15.2631 10.6887C17.3698 6.64123 22.0622 3.92902 27.3052 3.92902C34.607 3.92902 40.5443 9.10309 40.5443 15.4455C40.5443 16.6764 40.3288 17.8865 39.8739 19.0548C39.4909 20.0771 40.1133 21.162 41.2864 21.5167C41.5258 21.5793 41.7653 21.621 41.9807 21.621C42.9144 21.621 43.7763 21.0994 44.0875 20.2857C44.3748 19.5138 44.5902 18.7419 44.7339 17.9491C46.7928 18.6376 48.2531 20.3692 48.2531 22.3929C48.2771 25.0425 45.7873 27.1915 42.7708 27.1915Z" fill="white"/>
</g>
</svg>
