<svg width="55" height="28" viewBox="0 0 55 28" fill="none" xmlns="http://www.w3.org/2000/svg">
<g opacity="0.2">
<path d="M49.8501 28C49.4996 28 49.1491 27.9151 48.8375 27.7285C48.0002 27.2364 47.786 26.2521 48.3312 25.5394C50.0059 23.3673 50.8822 20.8218 50.8822 18.1745C50.8822 15.5272 50.0059 12.9818 48.3312 10.8097C47.7665 10.08 48.0002 9.09571 48.8181 8.62056C49.6554 8.12844 50.7654 8.33207 51.3301 9.0448C53.4137 11.743 54.5042 14.8994 54.5042 18.1745C54.5042 21.4497 53.4137 24.606 51.3301 27.3042C50.9991 27.7624 50.4343 28 49.8501 28Z" fill="white"/>
<path d="M44.6508 25.4374C44.3003 25.4374 43.9498 25.3525 43.6382 25.1658C42.8009 24.6737 42.5867 23.6895 43.1514 22.9768C44.2614 21.5513 44.8456 19.9053 44.8456 18.1744C44.8456 16.4604 44.2614 14.7974 43.1514 13.372C42.5867 12.6423 42.8009 11.675 43.6382 11.1829C44.4756 10.6908 45.5855 10.8774 46.1503 11.6071C47.6692 13.5586 48.4676 15.8326 48.4676 18.1744C48.4676 20.5331 47.6692 22.8071 46.1503 24.7416C45.8192 25.1998 45.235 25.4374 44.6508 25.4374Z" fill="white"/>
<path d="M36.1804 11.2848C35.4599 4.95515 29.326 0 21.8679 0C15.6951 0 10.2232 3.46182 8.25645 8.48484C3.60246 9.07878 0 12.5745 0 16.8C0 21.4327 4.34243 25.217 9.67797 25.217H34.4473C38.9066 25.217 42.548 22.0606 42.548 18.1745C42.548 14.7976 39.8218 11.9806 36.1804 11.2848ZM34.4473 22.0606H9.67797C6.34812 22.0606 3.62193 19.7018 3.62193 16.8C3.62193 13.8982 6.32865 11.5394 9.67797 11.5394C11.2942 11.5394 12.8131 12.0824 13.962 13.0836C14.663 13.6945 15.8119 13.6945 16.5324 13.0836C17.2334 12.4727 17.2334 11.4715 16.5324 10.8436C15.2861 9.75757 13.7478 9.0109 12.0731 8.63757C13.7867 5.34545 17.6034 3.13939 21.8679 3.13939C27.8071 3.13939 32.6364 7.34788 32.6364 12.5067C32.6364 13.5079 32.4611 14.4921 32.0911 15.4424C31.7796 16.2739 32.2859 17.1564 33.24 17.4448C33.4347 17.4958 33.6295 17.5297 33.8047 17.5297C34.5642 17.5297 35.2652 17.1054 35.5183 16.4436C35.752 15.8157 35.9273 15.1879 36.0441 14.543C37.7188 15.103 38.9066 16.5115 38.9066 18.1576C38.9261 20.3127 36.9009 22.0606 34.4473 22.0606Z" fill="white"/>
</g>
</svg>
