<svg width="162" height="162" viewBox="0 0 162 162" fill="none" xmlns="http://www.w3.org/2000/svg">
<g filter="url(#filter0_d)">
<path d="M69.4059 155.665C43.436 152.427 18.6365 133.719 8.09575 109.414C-0.724129 89.077 0.0667696 64.8945 10.21 44.7677C22.7811 19.8236 45.2371 4.81516 73.5216 2.45358L78.9543 1.99998V7.57537V13.1507L76.4849 13.5586C75.1267 13.7829 72.9422 13.9697 71.6305 13.9737C67.594 13.986 56.5257 17.1333 50.6855 19.9295C32.9119 28.4394 20.7789 43.4149 15.4024 63.4786C9.30256 86.2415 16.3503 109.934 34.2366 126.794C42.6445 134.719 52.079 139.936 63.693 143.08C71.3061 145.141 85.6806 145.108 93.7708 143.01C122.933 135.447 142.171 113.131 144.526 84.1327L144.986 78.4648H150.493H156L155.999 82.2483C155.995 87.2013 154.414 96.8089 152.679 102.422C148.179 116.98 138.419 130.77 125.868 140.303C116.666 147.292 100.928 153.774 89.2058 155.403C84.4201 156.068 73.7698 156.209 69.4073 155.665L69.4059 155.665ZM76.6492 135.505C73.5706 134.089 72.7354 132.65 72.8111 128.892C72.9044 124.26 74.5664 120.262 82.2846 106.101C93.7864 84.9973 97.8513 75.4431 99.3014 66.1044C101.328 53.0554 95.2519 41.6579 80.8278 31.4492C73.3337 26.1452 72.1508 25.0538 73.1853 24.3977C73.6419 24.108 77.8944 23.8665 82.6354 23.861C89.1426 23.8534 92.5319 24.176 96.4641 25.1774C115.742 30.0867 131.109 44.7375 136.851 63.683C139.439 72.2194 139.754 85.2763 137.575 93.6491C132.388 113.58 117.551 128.861 98.0159 134.391C91.6891 136.182 79.5019 136.817 76.6492 135.505Z" fill="#BDBDBD"/>
</g>
<defs>
<filter id="filter0_d" x="0" y="0" width="162" height="162" filterUnits="userSpaceOnUse" color-interpolation-filters="sRGB">
<feFlood flood-opacity="0" result="BackgroundImageFix"/>
<feColorMatrix in="SourceAlpha" type="matrix" values="0 0 0 0 0 0 0 0 0 0 0 0 0 0 0 0 0 0 127 0"/>
<feOffset dx="2" dy="2"/>
<feGaussianBlur stdDeviation="2"/>
<feColorMatrix type="matrix" values="0 0 0 0 0.421667 0 0 0 0 0.419558 0 0 0 0 0.419558 0 0 0 0.7 0"/>
<feBlend mode="normal" in2="BackgroundImageFix" result="effect1_dropShadow"/>
<feBlend mode="normal" in="SourceGraphic" in2="effect1_dropShadow" result="shape"/>
</filter>
</defs>
</svg>
