<svg width="133" height="133" viewBox="0 0 133 133" fill="none" xmlns="http://www.w3.org/2000/svg">
<g filter="url(#filter0_d)">
<path d="M56.7126 126.728C35.6331 124.1 15.5037 108.914 6.94785 89.1865C-0.211144 72.6794 0.430819 53.0508 8.66398 36.7141C18.8677 16.4672 37.095 4.28505 60.0532 2.36818L64.4629 2V6.52547V11.0509L62.4585 11.382C61.3561 11.5641 59.583 11.7157 58.5182 11.7189C55.2419 11.7289 46.2579 14.2835 41.5175 16.5532C27.0908 23.4606 17.2426 35.616 12.8785 51.9015C7.9274 70.3779 13.648 89.6088 28.1661 103.294C34.9907 109.727 42.6486 113.961 52.0755 116.513C58.255 118.186 69.9225 118.159 76.4893 116.456C100.16 110.318 115.776 92.2036 117.687 68.6661L118.06 64.0656H122.53H127L126.999 67.1366C126.996 71.1569 125.713 78.9553 124.305 83.5114C120.652 95.3279 112.73 106.521 102.542 114.259C95.073 119.932 82.2987 125.193 72.784 126.515C68.8994 127.055 60.2547 127.17 56.7137 126.728L56.7126 126.728ZM62.5919 110.365C60.093 109.215 59.4151 108.047 59.4765 104.997C59.5523 101.237 60.9013 97.9919 67.1661 86.4974C76.5019 69.368 79.8014 61.6129 80.9784 54.0328C82.623 43.4411 77.6915 34.1898 65.9836 25.9036C59.9007 21.5984 58.9406 20.7126 59.7803 20.18C60.1509 19.9449 63.6026 19.7488 67.4508 19.7443C72.7326 19.7381 75.4837 20 78.6754 20.8128C94.3233 24.7977 106.796 36.6896 111.457 52.0674C113.557 58.9963 113.813 69.5944 112.045 76.3905C107.834 92.5679 95.7911 104.971 79.935 109.46C74.7996 110.914 64.9074 111.43 62.5919 110.365Z" fill="#8B8B8B"/>
</g>
<defs>
<filter id="filter0_d" x="0" y="0" width="133" height="133" filterUnits="userSpaceOnUse" color-interpolation-filters="sRGB">
<feFlood flood-opacity="0" result="BackgroundImageFix"/>
<feColorMatrix in="SourceAlpha" type="matrix" values="0 0 0 0 0 0 0 0 0 0 0 0 0 0 0 0 0 0 127 0"/>
<feOffset dx="2" dy="2"/>
<feGaussianBlur stdDeviation="2"/>
<feColorMatrix type="matrix" values="0 0 0 0 0.421667 0 0 0 0 0.419558 0 0 0 0 0.419558 0 0 0 0.7 0"/>
<feBlend mode="normal" in2="BackgroundImageFix" result="effect1_dropShadow"/>
<feBlend mode="normal" in="SourceGraphic" in2="effect1_dropShadow" result="shape"/>
</filter>
</defs>
</svg>
