<svg width="355" height="35" viewBox="0 0 355 35" fill="none" xmlns="http://www.w3.org/2000/svg">
<path d="M0.594828 12.362H1.58483V14H0.594828V12.362ZM7.61877 14.162C6.63477 14.162 5.87277 14.018 5.33277 13.73C4.80477 13.43 4.43277 12.956 4.21677 12.308C4.00077 11.648 3.89277 10.742 3.89277 9.59C3.89277 8.378 4.00677 7.436 4.23477 6.764C4.46277 6.08 4.84077 5.588 5.36877 5.288C5.90877 4.988 6.65877 4.838 7.61877 4.838C8.59077 4.838 9.34077 4.994 9.86877 5.306C10.4088 5.606 10.7868 6.098 11.0028 6.782C11.2308 7.454 11.3448 8.39 11.3448 9.59C11.3448 10.742 11.2368 11.648 11.0208 12.308C10.8168 12.956 10.4448 13.43 9.90477 13.73C9.37677 14.018 8.61477 14.162 7.61877 14.162ZM7.65477 13.37C8.43477 13.37 9.01677 13.25 9.40077 13.01C9.79677 12.77 10.0668 12.392 10.2108 11.876C10.3548 11.348 10.4268 10.586 10.4268 9.59C10.4268 8.534 10.3488 7.73 10.1928 7.178C10.0368 6.614 9.76077 6.218 9.36477 5.99C8.98077 5.75 8.41077 5.63 7.65477 5.63C6.88677 5.63 6.29877 5.75 5.89077 5.99C5.49477 6.218 5.21877 6.614 5.06277 7.178C4.90677 7.73 4.82877 8.534 4.82877 9.59C4.82877 10.574 4.90077 11.33 5.04477 11.858C5.18877 12.386 5.45877 12.77 5.85477 13.01C6.26277 13.25 6.86277 13.37 7.65477 13.37ZM12.7056 5H13.6776L16.0716 13.208H16.8096L19.2756 5H20.2116L17.5116 14H15.4056L12.7056 5ZM25.1952 14.162C23.8512 14.162 22.9032 13.808 22.3512 13.1C21.8112 12.392 21.5412 11.27 21.5412 9.734C21.5412 8.066 21.8352 6.836 22.4232 6.044C23.0232 5.24 23.9592 4.838 25.2312 4.838C26.4072 4.838 27.2772 5.186 27.8412 5.882C28.4052 6.566 28.6872 7.64 28.6872 9.104L28.6692 9.86H22.4412C22.4292 10.724 22.5132 11.414 22.6932 11.93C22.8732 12.434 23.1792 12.806 23.6112 13.046C24.0552 13.274 24.6672 13.388 25.4472 13.388C25.7712 13.388 26.1492 13.382 26.5812 13.37C27.0252 13.346 27.4332 13.316 27.8052 13.28L28.3452 13.226L28.3812 13.964C27.1332 14.096 26.0712 14.162 25.1952 14.162ZM27.7872 9.104C27.7872 7.856 27.5832 6.962 27.1752 6.422C26.7672 5.87 26.1192 5.594 25.2312 5.594C24.3072 5.594 23.6112 5.882 23.1432 6.458C22.6752 7.022 22.4352 7.904 22.4232 9.104H27.7872ZM30.9539 5H31.8359V6.332C32.8559 5.588 34.0139 5.078 35.3099 4.802V5.72C34.8179 5.816 34.2659 5.984 33.6539 6.224C33.0539 6.464 32.6159 6.68 32.3399 6.872L31.8539 7.142V14H30.9539V5ZM38.4758 2.282H34.4078V1.454H43.4078V2.282H39.3758V14H38.4758V2.282ZM45.0164 0.932H45.9164V5.54C46.9364 5.072 47.9504 4.838 48.9584 4.838C49.7504 4.838 50.3564 4.976 50.7764 5.252C51.1964 5.516 51.4904 5.966 51.6584 6.602C51.8264 7.226 51.9104 8.126 51.9104 9.302V14H51.0104V9.338C51.0104 8.306 50.9504 7.532 50.8304 7.016C50.7224 6.5 50.5124 6.14 50.2004 5.936C49.8884 5.732 49.4144 5.63 48.7784 5.63C47.9864 5.63 47.1584 5.798 46.2944 6.134L45.9164 6.278V14H45.0164V0.932ZM57.8554 14.162C56.5114 14.162 55.5634 13.808 55.0114 13.1C54.4714 12.392 54.2014 11.27 54.2014 9.734C54.2014 8.066 54.4954 6.836 55.0834 6.044C55.6834 5.24 56.6194 4.838 57.8914 4.838C59.0674 4.838 59.9374 5.186 60.5014 5.882C61.0654 6.566 61.3474 7.64 61.3474 9.104L61.3294 9.86H55.1014C55.0894 10.724 55.1734 11.414 55.3534 11.93C55.5334 12.434 55.8394 12.806 56.2714 13.046C56.7154 13.274 57.3274 13.388 58.1074 13.388C58.4314 13.388 58.8094 13.382 59.2414 13.37C59.6854 13.346 60.0934 13.316 60.4654 13.28L61.0054 13.226L61.0414 13.964C59.7934 14.096 58.7314 14.162 57.8554 14.162ZM60.4474 9.104C60.4474 7.856 60.2434 6.962 59.8354 6.422C59.4274 5.87 58.7794 5.594 57.8914 5.594C56.9674 5.594 56.2714 5.882 55.8034 6.458C55.3354 7.022 55.0954 7.904 55.0834 9.104H60.4474ZM72.6681 1.454V14H70.7961L65.1081 2.264H64.7661V14H63.8661V1.454H65.7561L71.3901 13.19H71.7861V1.454H72.6681ZM78.8788 14.162C77.5348 14.162 76.5868 13.808 76.0348 13.1C75.4948 12.392 75.2248 11.27 75.2248 9.734C75.2248 8.066 75.5188 6.836 76.1068 6.044C76.7068 5.24 77.6428 4.838 78.9148 4.838C80.0908 4.838 80.9608 5.186 81.5248 5.882C82.0888 6.566 82.3708 7.64 82.3708 9.104L82.3528 9.86H76.1248C76.1128 10.724 76.1968 11.414 76.3768 11.93C76.5568 12.434 76.8628 12.806 77.2948 13.046C77.7388 13.274 78.3508 13.388 79.1308 13.388C79.4548 13.388 79.8328 13.382 80.2648 13.37C80.7088 13.346 81.1168 13.316 81.4888 13.28L82.0288 13.226L82.0648 13.964C80.8168 14.096 79.7548 14.162 78.8788 14.162ZM81.4708 9.104C81.4708 7.856 81.2668 6.962 80.8588 6.422C80.4508 5.87 79.8028 5.594 78.9148 5.594C77.9908 5.594 77.2948 5.882 76.8268 6.458C76.3588 7.022 76.1188 7.904 76.1068 9.104H81.4708ZM83.7585 5H84.6585L86.8005 13.208H87.0165L89.5005 5.18H90.4365L92.9025 13.208H93.1545L95.2605 5H96.1785L93.8385 14H92.2545L89.9685 6.296L87.6825 14H86.0805L83.7585 5ZM99.3598 2.264V7.196H104.814V8.006H99.3598V13.19H105.894V14H98.4598V1.454H105.894V2.264H99.3598ZM110.029 14.162C109.237 14.162 108.631 13.934 108.211 13.478C107.803 13.022 107.599 12.38 107.599 11.552C107.599 10.724 107.803 10.1 108.211 9.68C108.619 9.248 109.273 8.978 110.173 8.87L113.395 8.546V7.682C113.395 6.986 113.245 6.476 112.945 6.152C112.657 5.816 112.255 5.648 111.739 5.648C111.211 5.648 110.719 5.666 110.263 5.702C109.807 5.738 109.093 5.81 108.121 5.918L108.067 5.18C109.363 4.952 110.515 4.838 111.523 4.838C112.471 4.838 113.167 5.066 113.611 5.522C114.055 5.978 114.277 6.698 114.277 7.682V12.668C114.289 12.86 114.403 13.022 114.619 13.154C114.835 13.286 115.135 13.376 115.519 13.424L115.483 14.162C115.051 14.162 114.661 14.096 114.313 13.964C113.977 13.832 113.713 13.646 113.521 13.406C112.393 13.91 111.229 14.162 110.029 14.162ZM110.101 13.388C111.037 13.388 111.973 13.22 112.909 12.884L113.395 12.722V9.284L110.281 9.59C109.657 9.638 109.207 9.812 108.931 10.112C108.667 10.412 108.535 10.856 108.535 11.444C108.535 12.74 109.057 13.388 110.101 13.388ZM117.104 5H117.986V6.332C119.006 5.588 120.164 5.078 121.46 4.802V5.72C120.968 5.816 120.416 5.984 119.804 6.224C119.204 6.464 118.766 6.68 118.49 6.872L118.004 7.142V14H117.104V5ZM125.924 14.198C125.348 14.198 124.898 14.102 124.574 13.91C124.25 13.718 124.016 13.394 123.872 12.938C123.728 12.47 123.656 11.81 123.656 10.958V5.792H122.288V5H123.656V2.138H124.52V5H127.67V5.792H124.52V10.346C124.52 11.174 124.55 11.792 124.61 12.2C124.67 12.596 124.802 12.896 125.006 13.1C125.222 13.304 125.57 13.406 126.05 13.406L127.76 13.262L127.832 14.018C126.992 14.138 126.356 14.198 125.924 14.198ZM129.339 0.932H130.239V5.54C131.259 5.072 132.273 4.838 133.281 4.838C134.073 4.838 134.679 4.976 135.099 5.252C135.519 5.516 135.813 5.966 135.981 6.602C136.149 7.226 136.233 8.126 136.233 9.302V14H135.333V9.338C135.333 8.306 135.273 7.532 135.153 7.016C135.045 6.5 134.835 6.14 134.523 5.936C134.211 5.732 133.737 5.63 133.101 5.63C132.309 5.63 131.481 5.798 130.617 6.134L130.239 6.278V14H129.339V0.932ZM142.839 5H143.703V14H142.839V5ZM142.839 1.4H143.703V2.588H142.839V1.4ZM149.16 14.162C148.428 14.162 147.582 14.09 146.622 13.946L146.082 13.856L146.154 13.064C147.51 13.268 148.536 13.37 149.232 13.37C150.072 13.37 150.69 13.226 151.086 12.938C151.482 12.65 151.68 12.188 151.68 11.552C151.68 11.096 151.578 10.754 151.374 10.526C151.182 10.286 150.93 10.118 150.618 10.022C150.318 9.926 149.898 9.842 149.358 9.77C149.274 9.746 149.136 9.722 148.944 9.698C148.164 9.566 147.564 9.416 147.144 9.248C146.724 9.08 146.424 8.852 146.244 8.564C146.064 8.276 145.974 7.886 145.974 7.394C145.974 6.446 146.256 5.786 146.82 5.414C147.396 5.042 148.224 4.856 149.304 4.856C150.264 4.856 151.098 4.916 151.806 5.036L152.274 5.126L152.238 5.9C151.014 5.708 150.024 5.612 149.268 5.612C148.428 5.612 147.816 5.75 147.432 6.026C147.06 6.302 146.874 6.716 146.874 7.268C146.874 7.652 146.964 7.946 147.144 8.15C147.324 8.354 147.558 8.504 147.846 8.6C148.146 8.684 148.578 8.774 149.142 8.87C149.226 8.894 149.352 8.918 149.52 8.942C150.312 9.086 150.912 9.242 151.32 9.41C151.74 9.566 152.052 9.8 152.256 10.112C152.472 10.424 152.58 10.868 152.58 11.444C152.58 12.404 152.298 13.1 151.734 13.532C151.182 13.952 150.324 14.162 149.16 14.162ZM160.601 14.162C159.809 14.162 159.203 13.934 158.783 13.478C158.375 13.022 158.171 12.38 158.171 11.552C158.171 10.724 158.375 10.1 158.783 9.68C159.191 9.248 159.845 8.978 160.745 8.87L163.967 8.546V7.682C163.967 6.986 163.817 6.476 163.517 6.152C163.229 5.816 162.827 5.648 162.311 5.648C161.783 5.648 161.291 5.666 160.835 5.702C160.379 5.738 159.665 5.81 158.693 5.918L158.639 5.18C159.935 4.952 161.087 4.838 162.095 4.838C163.043 4.838 163.739 5.066 164.183 5.522C164.627 5.978 164.849 6.698 164.849 7.682V12.668C164.861 12.86 164.975 13.022 165.191 13.154C165.407 13.286 165.707 13.376 166.091 13.424L166.055 14.162C165.623 14.162 165.233 14.096 164.885 13.964C164.549 13.832 164.285 13.646 164.093 13.406C162.965 13.91 161.801 14.162 160.601 14.162ZM160.673 13.388C161.609 13.388 162.545 13.22 163.481 12.884L163.967 12.722V9.284L160.853 9.59C160.229 9.638 159.779 9.812 159.503 10.112C159.239 10.412 159.107 10.856 159.107 11.444C159.107 12.74 159.629 13.388 160.673 13.388ZM167.677 5H168.559V5.684C169.135 5.372 169.669 5.156 170.161 5.036C170.653 4.904 171.163 4.838 171.691 4.838C172.459 4.838 173.047 4.976 173.455 5.252C173.875 5.516 174.163 5.966 174.319 6.602C174.487 7.226 174.571 8.126 174.571 9.302V14H173.707V9.32C173.707 8.348 173.647 7.604 173.527 7.088C173.419 6.572 173.221 6.2 172.933 5.972C172.645 5.744 172.219 5.63 171.655 5.63C171.163 5.63 170.659 5.696 170.143 5.828C169.627 5.96 169.237 6.098 168.973 6.242L168.577 6.44V14H167.677V5ZM184.471 14.162C183.127 14.162 182.179 13.808 181.627 13.1C181.087 12.392 180.817 11.27 180.817 9.734C180.817 8.066 181.111 6.836 181.699 6.044C182.299 5.24 183.235 4.838 184.507 4.838C185.683 4.838 186.553 5.186 187.117 5.882C187.681 6.566 187.963 7.64 187.963 9.104L187.945 9.86H181.717C181.705 10.724 181.789 11.414 181.969 11.93C182.149 12.434 182.455 12.806 182.887 13.046C183.331 13.274 183.943 13.388 184.723 13.388C185.047 13.388 185.425 13.382 185.857 13.37C186.301 13.346 186.709 13.316 187.081 13.28L187.621 13.226L187.657 13.964C186.409 14.096 185.347 14.162 184.471 14.162ZM187.063 9.104C187.063 7.856 186.859 6.962 186.451 6.422C186.043 5.87 185.395 5.594 184.507 5.594C183.583 5.594 182.887 5.882 182.419 6.458C181.951 7.022 181.711 7.904 181.699 9.104H187.063ZM190.337 0.932H191.237V14H190.337V0.932ZM197.25 14.162C195.906 14.162 194.958 13.808 194.406 13.1C193.866 12.392 193.596 11.27 193.596 9.734C193.596 8.066 193.89 6.836 194.478 6.044C195.078 5.24 196.014 4.838 197.286 4.838C198.462 4.838 199.332 5.186 199.896 5.882C200.46 6.566 200.742 7.64 200.742 9.104L200.724 9.86H194.496C194.484 10.724 194.568 11.414 194.748 11.93C194.928 12.434 195.234 12.806 195.666 13.046C196.11 13.274 196.722 13.388 197.502 13.388C197.826 13.388 198.204 13.382 198.636 13.37C199.08 13.346 199.488 13.316 199.86 13.28L200.4 13.226L200.436 13.964C199.188 14.096 198.126 14.162 197.25 14.162ZM199.842 9.104C199.842 7.856 199.638 6.962 199.23 6.422C198.822 5.87 198.174 5.594 197.286 5.594C196.362 5.594 195.666 5.882 195.198 6.458C194.73 7.022 194.49 7.904 194.478 9.104H199.842ZM206.249 14.162C205.325 14.162 204.605 14.006 204.089 13.694C203.573 13.382 203.207 12.89 202.991 12.218C202.775 11.546 202.667 10.64 202.667 9.5C202.667 8.636 202.733 7.88 202.865 7.232C202.997 6.572 203.309 6.002 203.801 5.522C204.293 5.042 205.037 4.802 206.033 4.802C206.405 4.802 206.771 4.82 207.131 4.856C207.491 4.88 207.995 4.946 208.643 5.054L208.589 5.792C207.641 5.684 206.909 5.63 206.393 5.63C205.661 5.63 205.091 5.75 204.683 5.99C204.287 6.218 204.005 6.614 203.837 7.178C203.669 7.73 203.585 8.522 203.585 9.554C203.585 10.526 203.663 11.282 203.819 11.822C203.987 12.362 204.275 12.758 204.683 13.01C205.103 13.25 205.703 13.37 206.483 13.37L208.625 13.208L208.661 13.964C207.569 14.096 206.765 14.162 206.249 14.162ZM213.568 14.198C212.992 14.198 212.542 14.102 212.218 13.91C211.894 13.718 211.66 13.394 211.516 12.938C211.372 12.47 211.3 11.81 211.3 10.958V5.792H209.932V5H211.3V2.138H212.164V5H215.314V5.792H212.164V10.346C212.164 11.174 212.194 11.792 212.254 12.2C212.314 12.596 212.446 12.896 212.65 13.1C212.866 13.304 213.214 13.406 213.694 13.406L215.404 13.262L215.476 14.018C214.636 14.138 214 14.198 213.568 14.198ZM216.983 5H217.865V6.332C218.885 5.588 220.043 5.078 221.339 4.802V5.72C220.847 5.816 220.295 5.984 219.683 6.224C219.083 6.464 218.645 6.68 218.369 6.872L217.883 7.142V14H216.983V5ZM226.132 14.162C225.148 14.162 224.386 14.018 223.846 13.73C223.318 13.43 222.946 12.956 222.73 12.308C222.514 11.648 222.406 10.742 222.406 9.59C222.406 8.378 222.52 7.436 222.748 6.764C222.976 6.08 223.354 5.588 223.882 5.288C224.422 4.988 225.172 4.838 226.132 4.838C227.104 4.838 227.854 4.994 228.382 5.306C228.922 5.606 229.3 6.098 229.516 6.782C229.744 7.454 229.858 8.39 229.858 9.59C229.858 10.742 229.75 11.648 229.534 12.308C229.33 12.956 228.958 13.43 228.418 13.73C227.89 14.018 227.128 14.162 226.132 14.162ZM226.168 13.37C226.948 13.37 227.53 13.25 227.914 13.01C228.31 12.77 228.58 12.392 228.724 11.876C228.868 11.348 228.94 10.586 228.94 9.59C228.94 8.534 228.862 7.73 228.706 7.178C228.55 6.614 228.274 6.218 227.878 5.99C227.494 5.75 226.924 5.63 226.168 5.63C225.4 5.63 224.812 5.75 224.404 5.99C224.008 6.218 223.732 6.614 223.576 7.178C223.42 7.73 223.342 8.534 223.342 9.59C223.342 10.574 223.414 11.33 223.558 11.858C223.702 12.386 223.972 12.77 224.368 13.01C224.776 13.25 225.376 13.37 226.168 13.37ZM232.241 5H233.123V5.684C233.699 5.372 234.233 5.156 234.725 5.036C235.217 4.904 235.727 4.838 236.255 4.838C237.023 4.838 237.611 4.976 238.019 5.252C238.439 5.516 238.727 5.966 238.883 6.602C239.051 7.226 239.135 8.126 239.135 9.302V14H238.271V9.32C238.271 8.348 238.211 7.604 238.091 7.088C237.983 6.572 237.785 6.2 237.497 5.972C237.209 5.744 236.783 5.63 236.219 5.63C235.727 5.63 235.223 5.696 234.707 5.828C234.191 5.96 233.801 6.098 233.537 6.242L233.141 6.44V14H232.241V5ZM241.786 5H242.65V14H241.786V5ZM241.786 1.4H242.65V2.588H241.786V1.4ZM248.524 14.162C247.6 14.162 246.88 14.006 246.364 13.694C245.848 13.382 245.482 12.89 245.266 12.218C245.05 11.546 244.942 10.64 244.942 9.5C244.942 8.636 245.008 7.88 245.14 7.232C245.272 6.572 245.584 6.002 246.076 5.522C246.568 5.042 247.312 4.802 248.308 4.802C248.68 4.802 249.046 4.82 249.406 4.856C249.766 4.88 250.27 4.946 250.918 5.054L250.864 5.792C249.916 5.684 249.184 5.63 248.668 5.63C247.936 5.63 247.366 5.75 246.958 5.99C246.562 6.218 246.28 6.614 246.112 7.178C245.944 7.73 245.86 8.522 245.86 9.554C245.86 10.526 245.938 11.282 246.094 11.822C246.262 12.362 246.55 12.758 246.958 13.01C247.378 13.25 247.978 13.37 248.758 13.37L250.9 13.208L250.936 13.964C249.844 14.096 249.04 14.162 248.524 14.162ZM257.009 5H257.891V5.684C258.815 5.12 259.787 4.838 260.807 4.838C261.947 4.838 262.715 5.156 263.111 5.792C263.495 5.54 264.011 5.318 264.659 5.126C265.307 4.934 265.967 4.838 266.639 4.838C267.359 4.838 267.917 4.982 268.313 5.27C268.709 5.558 268.985 6.02 269.141 6.656C269.297 7.292 269.375 8.174 269.375 9.302V14H268.493V9.32C268.493 8.324 268.439 7.574 268.331 7.07C268.223 6.554 268.025 6.188 267.737 5.972C267.449 5.744 267.017 5.63 266.441 5.63C265.925 5.63 265.415 5.696 264.911 5.828C264.407 5.96 264.035 6.098 263.795 6.242L263.417 6.44C263.621 6.608 263.723 7.568 263.723 9.32V14H262.823V9.356C262.823 8.372 262.769 7.622 262.661 7.106C262.553 6.578 262.355 6.2 262.067 5.972C261.791 5.744 261.377 5.63 260.825 5.63C260.345 5.63 259.859 5.696 259.367 5.828C258.875 5.948 258.503 6.086 258.251 6.242L257.909 6.44V14H257.009V5ZM274.81 14.162C274.042 14.162 273.454 14.03 273.046 13.766C272.638 13.502 272.35 13.058 272.182 12.434C272.026 11.798 271.948 10.886 271.948 9.698V5H272.848V9.644C272.848 10.652 272.902 11.42 273.01 11.948C273.118 12.464 273.316 12.83 273.604 13.046C273.892 13.262 274.324 13.37 274.9 13.37C275.908 13.37 276.874 13.1 277.798 12.56V5H278.68V14H277.78V13.316C277.3 13.604 276.832 13.82 276.376 13.964C275.932 14.096 275.41 14.162 274.81 14.162ZM284.125 14.162C283.393 14.162 282.547 14.09 281.587 13.946L281.047 13.856L281.119 13.064C282.475 13.268 283.501 13.37 284.197 13.37C285.037 13.37 285.655 13.226 286.051 12.938C286.447 12.65 286.645 12.188 286.645 11.552C286.645 11.096 286.543 10.754 286.339 10.526C286.147 10.286 285.895 10.118 285.583 10.022C285.283 9.926 284.863 9.842 284.323 9.77C284.239 9.746 284.101 9.722 283.909 9.698C283.129 9.566 282.529 9.416 282.109 9.248C281.689 9.08 281.389 8.852 281.209 8.564C281.029 8.276 280.939 7.886 280.939 7.394C280.939 6.446 281.221 5.786 281.785 5.414C282.361 5.042 283.189 4.856 284.269 4.856C285.229 4.856 286.063 4.916 286.771 5.036L287.239 5.126L287.203 5.9C285.979 5.708 284.989 5.612 284.233 5.612C283.393 5.612 282.781 5.75 282.397 6.026C282.025 6.302 281.839 6.716 281.839 7.268C281.839 7.652 281.929 7.946 282.109 8.15C282.289 8.354 282.523 8.504 282.811 8.6C283.111 8.684 283.543 8.774 284.107 8.87C284.191 8.894 284.317 8.918 284.485 8.942C285.277 9.086 285.877 9.242 286.285 9.41C286.705 9.566 287.017 9.8 287.221 10.112C287.437 10.424 287.545 10.868 287.545 11.444C287.545 12.404 287.263 13.1 286.699 13.532C286.147 13.952 285.289 14.162 284.125 14.162ZM289.739 5H290.603V14H289.739V5ZM289.739 1.4H290.603V2.588H289.739V1.4ZM296.477 14.162C295.553 14.162 294.833 14.006 294.317 13.694C293.801 13.382 293.435 12.89 293.219 12.218C293.003 11.546 292.895 10.64 292.895 9.5C292.895 8.636 292.961 7.88 293.093 7.232C293.225 6.572 293.537 6.002 294.029 5.522C294.521 5.042 295.265 4.802 296.261 4.802C296.633 4.802 296.999 4.82 297.359 4.856C297.719 4.88 298.223 4.946 298.871 5.054L298.817 5.792C297.869 5.684 297.137 5.63 296.621 5.63C295.889 5.63 295.319 5.75 294.911 5.99C294.515 6.218 294.233 6.614 294.065 7.178C293.897 7.73 293.813 8.522 293.813 9.554C293.813 10.526 293.891 11.282 294.047 11.822C294.215 12.362 294.503 12.758 294.911 13.01C295.331 13.25 295.931 13.37 296.711 13.37L298.853 13.208L298.889 13.964C297.797 14.096 296.993 14.162 296.477 14.162ZM304.962 5H305.844V5.72C306.816 5.132 307.812 4.838 308.832 4.838C309.936 4.838 310.728 5.198 311.208 5.918C311.7 6.638 311.946 7.796 311.946 9.392C311.946 10.532 311.82 11.45 311.568 12.146C311.316 12.83 310.902 13.34 310.326 13.676C309.75 14 308.976 14.162 308.004 14.162C307.272 14.162 306.558 14.09 305.862 13.946V18.086H304.962V5ZM308.13 13.388C309.186 13.388 309.936 13.082 310.38 12.47C310.824 11.846 311.046 10.844 311.046 9.464C311.046 8.096 310.854 7.118 310.47 6.53C310.098 5.93 309.54 5.63 308.796 5.63C308.388 5.63 307.938 5.702 307.446 5.846C306.966 5.978 306.57 6.122 306.258 6.278L305.862 6.512V13.154C306.918 13.31 307.674 13.388 308.13 13.388ZM314.313 5H315.195V6.332C316.215 5.588 317.373 5.078 318.669 4.802V5.72C318.177 5.816 317.625 5.984 317.013 6.224C316.413 6.464 315.975 6.68 315.699 6.872L315.213 7.142V14H314.313V5ZM323.463 14.162C322.479 14.162 321.717 14.018 321.177 13.73C320.649 13.43 320.277 12.956 320.061 12.308C319.845 11.648 319.737 10.742 319.737 9.59C319.737 8.378 319.851 7.436 320.079 6.764C320.307 6.08 320.685 5.588 321.213 5.288C321.753 4.988 322.503 4.838 323.463 4.838C324.435 4.838 325.185 4.994 325.713 5.306C326.253 5.606 326.631 6.098 326.847 6.782C327.075 7.454 327.189 8.39 327.189 9.59C327.189 10.742 327.081 11.648 326.865 12.308C326.661 12.956 326.289 13.43 325.749 13.73C325.221 14.018 324.459 14.162 323.463 14.162ZM323.499 13.37C324.279 13.37 324.861 13.25 325.245 13.01C325.641 12.77 325.911 12.392 326.055 11.876C326.199 11.348 326.271 10.586 326.271 9.59C326.271 8.534 326.193 7.73 326.037 7.178C325.881 6.614 325.605 6.218 325.209 5.99C324.825 5.75 324.255 5.63 323.499 5.63C322.731 5.63 322.143 5.75 321.735 5.99C321.339 6.218 321.063 6.614 320.907 7.178C320.751 7.73 320.673 8.534 320.673 9.59C320.673 10.574 320.745 11.33 320.889 11.858C321.033 12.386 321.303 12.77 321.699 13.01C322.107 13.25 322.707 13.37 323.499 13.37ZM327.195 17.24C327.891 16.856 328.401 16.52 328.725 16.232C329.061 15.956 329.289 15.644 329.409 15.296C329.529 14.948 329.589 14.468 329.589 13.856V5H330.453V13.874C330.453 14.594 330.369 15.176 330.201 15.62C330.045 16.076 329.763 16.478 329.355 16.826C328.959 17.174 328.365 17.552 327.573 17.96L327.195 17.24ZM329.589 1.4H330.453V2.588H329.589V1.4ZM336.381 14.162C335.037 14.162 334.089 13.808 333.537 13.1C332.997 12.392 332.727 11.27 332.727 9.734C332.727 8.066 333.021 6.836 333.609 6.044C334.209 5.24 335.145 4.838 336.417 4.838C337.593 4.838 338.463 5.186 339.027 5.882C339.591 6.566 339.873 7.64 339.873 9.104L339.855 9.86H333.627C333.615 10.724 333.699 11.414 333.879 11.93C334.059 12.434 334.365 12.806 334.797 13.046C335.241 13.274 335.853 13.388 336.633 13.388C336.957 13.388 337.335 13.382 337.767 13.37C338.211 13.346 338.619 13.316 338.991 13.28L339.531 13.226L339.567 13.964C338.319 14.096 337.257 14.162 336.381 14.162ZM338.973 9.104C338.973 7.856 338.769 6.962 338.361 6.422C337.953 5.87 337.305 5.594 336.417 5.594C335.493 5.594 334.797 5.882 334.329 6.458C333.861 7.022 333.621 7.904 333.609 9.104H338.973ZM345.379 14.162C344.455 14.162 343.735 14.006 343.219 13.694C342.703 13.382 342.337 12.89 342.121 12.218C341.905 11.546 341.797 10.64 341.797 9.5C341.797 8.636 341.863 7.88 341.995 7.232C342.127 6.572 342.439 6.002 342.931 5.522C343.423 5.042 344.167 4.802 345.163 4.802C345.535 4.802 345.901 4.82 346.261 4.856C346.621 4.88 347.125 4.946 347.773 5.054L347.719 5.792C346.771 5.684 346.039 5.63 345.523 5.63C344.791 5.63 344.221 5.75 343.813 5.99C343.417 6.218 343.135 6.614 342.967 7.178C342.799 7.73 342.715 8.522 342.715 9.554C342.715 10.526 342.793 11.282 342.949 11.822C343.117 12.362 343.405 12.758 343.813 13.01C344.233 13.25 344.833 13.37 345.613 13.37L347.755 13.208L347.791 13.964C346.699 14.096 345.895 14.162 345.379 14.162ZM352.699 14.198C352.123 14.198 351.673 14.102 351.349 13.91C351.025 13.718 350.791 13.394 350.647 12.938C350.503 12.47 350.431 11.81 350.431 10.958V5.792H349.063V5H350.431V2.138H351.295V5H354.445V5.792H351.295V10.346C351.295 11.174 351.325 11.792 351.385 12.2C351.445 12.596 351.577 12.896 351.781 13.1C351.997 13.304 352.345 13.406 352.825 13.406L354.535 13.262L354.607 14.018C353.767 14.138 353.131 14.198 352.699 14.198ZM54.0856 32.144C53.3536 32.144 52.6396 32.108 51.9436 32.036L51.5116 31.982V18.932H52.3756V23.522C53.3596 23.066 54.3616 22.838 55.3816 22.838C56.1616 22.838 56.7736 22.988 57.2176 23.288C57.6616 23.588 57.9796 24.068 58.1716 24.728C58.3636 25.388 58.4596 26.288 58.4596 27.428C58.4596 28.688 58.3336 29.654 58.0816 30.326C57.8296 30.986 57.3916 31.454 56.7676 31.73C56.1556 32.006 55.2616 32.144 54.0856 32.144ZM54.3556 31.37C55.2316 31.37 55.8976 31.238 56.3536 30.974C56.8096 30.71 57.1216 30.296 57.2896 29.732C57.4696 29.168 57.5596 28.382 57.5596 27.374C57.5596 26.426 57.4876 25.682 57.3436 25.142C57.1996 24.602 56.9596 24.218 56.6236 23.99C56.2876 23.75 55.8136 23.63 55.2016 23.63C54.4336 23.63 53.4916 23.846 52.3756 24.278V31.28C53.3596 31.34 54.0196 31.37 54.3556 31.37ZM62.7 32.162C61.908 32.162 61.302 31.934 60.882 31.478C60.474 31.022 60.27 30.38 60.27 29.552C60.27 28.724 60.474 28.1 60.882 27.68C61.29 27.248 61.944 26.978 62.844 26.87L66.066 26.546V25.682C66.066 24.986 65.916 24.476 65.616 24.152C65.328 23.816 64.926 23.648 64.41 23.648C63.882 23.648 63.39 23.666 62.934 23.702C62.478 23.738 61.764 23.81 60.792 23.918L60.738 23.18C62.034 22.952 63.186 22.838 64.194 22.838C65.142 22.838 65.838 23.066 66.282 23.522C66.726 23.978 66.948 24.698 66.948 25.682V30.668C66.96 30.86 67.074 31.022 67.29 31.154C67.506 31.286 67.806 31.376 68.19 31.424L68.154 32.162C67.722 32.162 67.332 32.096 66.984 31.964C66.648 31.832 66.384 31.646 66.192 31.406C65.064 31.91 63.9 32.162 62.7 32.162ZM62.772 31.388C63.708 31.388 64.644 31.22 65.58 30.884L66.066 30.722V27.284L62.952 27.59C62.328 27.638 61.878 27.812 61.602 28.112C61.338 28.412 61.206 28.856 61.206 29.444C61.206 30.74 61.728 31.388 62.772 31.388ZM72.4752 32.162C71.7432 32.162 70.8972 32.09 69.9372 31.946L69.3972 31.856L69.4692 31.064C70.8252 31.268 71.8512 31.37 72.5472 31.37C73.3872 31.37 74.0052 31.226 74.4012 30.938C74.7972 30.65 74.9952 30.188 74.9952 29.552C74.9952 29.096 74.8932 28.754 74.6892 28.526C74.4972 28.286 74.2452 28.118 73.9332 28.022C73.6332 27.926 73.2132 27.842 72.6732 27.77C72.5892 27.746 72.4512 27.722 72.2592 27.698C71.4792 27.566 70.8792 27.416 70.4592 27.248C70.0392 27.08 69.7392 26.852 69.5592 26.564C69.3792 26.276 69.2892 25.886 69.2892 25.394C69.2892 24.446 69.5712 23.786 70.1352 23.414C70.7112 23.042 71.5392 22.856 72.6192 22.856C73.5792 22.856 74.4132 22.916 75.1212 23.036L75.5892 23.126L75.5532 23.9C74.3292 23.708 73.3392 23.612 72.5832 23.612C71.7432 23.612 71.1312 23.75 70.7472 24.026C70.3752 24.302 70.1892 24.716 70.1892 25.268C70.1892 25.652 70.2792 25.946 70.4592 26.15C70.6392 26.354 70.8732 26.504 71.1612 26.6C71.4612 26.684 71.8932 26.774 72.4572 26.87C72.5412 26.894 72.6672 26.918 72.8352 26.942C73.6272 27.086 74.2272 27.242 74.6352 27.41C75.0552 27.566 75.3672 27.8 75.5712 28.112C75.7872 28.424 75.8952 28.868 75.8952 29.444C75.8952 30.404 75.6132 31.1 75.0492 31.532C74.4972 31.952 73.6392 32.162 72.4752 32.162ZM81.3837 32.162C80.0397 32.162 79.0917 31.808 78.5397 31.1C77.9997 30.392 77.7297 29.27 77.7297 27.734C77.7297 26.066 78.0237 24.836 78.6117 24.044C79.2117 23.24 80.1477 22.838 81.4197 22.838C82.5957 22.838 83.4657 23.186 84.0297 23.882C84.5937 24.566 84.8757 25.64 84.8757 27.104L84.8577 27.86H78.6297C78.6177 28.724 78.7017 29.414 78.8817 29.93C79.0617 30.434 79.3677 30.806 79.7997 31.046C80.2437 31.274 80.8557 31.388 81.6357 31.388C81.9597 31.388 82.3377 31.382 82.7697 31.37C83.2137 31.346 83.6217 31.316 83.9937 31.28L84.5337 31.226L84.5697 31.964C83.3217 32.096 82.2597 32.162 81.3837 32.162ZM83.9757 27.104C83.9757 25.856 83.7717 24.962 83.3637 24.422C82.9557 23.87 82.3077 23.594 81.4197 23.594C80.4957 23.594 79.7997 23.882 79.3317 24.458C78.8637 25.022 78.6237 25.904 78.6117 27.104H83.9757ZM89.8604 32.162C88.7564 32.162 87.9644 31.802 87.4844 31.082C87.0044 30.35 86.7644 29.216 86.7644 27.68C86.7644 26.516 86.8904 25.586 87.1424 24.89C87.4064 24.182 87.8204 23.666 88.3844 23.342C88.9604 23.006 89.7284 22.838 90.6884 22.838C91.4444 22.838 92.1764 22.91 92.8844 23.054V18.932H93.7484V32H92.8664V31.28C91.9304 31.868 90.9284 32.162 89.8604 32.162ZM89.9864 31.37C90.4184 31.37 90.8744 31.304 91.3544 31.172C91.8344 31.028 92.2064 30.884 92.4704 30.74L92.8844 30.542V23.846C92.0924 23.69 91.3484 23.612 90.6524 23.612C89.8964 23.612 89.3024 23.75 88.8704 24.026C88.4504 24.302 88.1504 24.722 87.9704 25.286C87.7904 25.85 87.7004 26.606 87.7004 27.554C87.7004 28.826 87.8684 29.78 88.2044 30.416C88.5524 31.052 89.1464 31.37 89.9864 31.37ZM103.815 32.162C102.831 32.162 102.069 32.018 101.529 31.73C101.001 31.43 100.629 30.956 100.413 30.308C100.197 29.648 100.089 28.742 100.089 27.59C100.089 26.378 100.203 25.436 100.431 24.764C100.659 24.08 101.037 23.588 101.565 23.288C102.105 22.988 102.855 22.838 103.815 22.838C104.787 22.838 105.537 22.994 106.065 23.306C106.605 23.606 106.983 24.098 107.199 24.782C107.427 25.454 107.541 26.39 107.541 27.59C107.541 28.742 107.433 29.648 107.217 30.308C107.013 30.956 106.641 31.43 106.101 31.73C105.573 32.018 104.811 32.162 103.815 32.162ZM103.851 31.37C104.631 31.37 105.213 31.25 105.597 31.01C105.993 30.77 106.263 30.392 106.407 29.876C106.551 29.348 106.623 28.586 106.623 27.59C106.623 26.534 106.545 25.73 106.389 25.178C106.233 24.614 105.957 24.218 105.561 23.99C105.177 23.75 104.607 23.63 103.851 23.63C103.083 23.63 102.495 23.75 102.087 23.99C101.691 24.218 101.415 24.614 101.259 25.178C101.103 25.73 101.025 26.534 101.025 27.59C101.025 28.574 101.097 29.33 101.241 29.858C101.385 30.386 101.655 30.77 102.051 31.01C102.459 31.25 103.059 31.37 103.851 31.37ZM112.696 32.162C111.928 32.162 111.34 32.03 110.932 31.766C110.524 31.502 110.236 31.058 110.068 30.434C109.912 29.798 109.834 28.886 109.834 27.698V23H110.734V27.644C110.734 28.652 110.788 29.42 110.896 29.948C111.004 30.464 111.202 30.83 111.49 31.046C111.778 31.262 112.21 31.37 112.786 31.37C113.794 31.37 114.76 31.1 115.684 30.56V23H116.566V32H115.666V31.316C115.186 31.604 114.718 31.82 114.262 31.964C113.818 32.096 113.296 32.162 112.696 32.162ZM122.1 32.198C121.524 32.198 121.074 32.102 120.75 31.91C120.426 31.718 120.192 31.394 120.048 30.938C119.904 30.47 119.832 29.81 119.832 28.958V23.792H118.464V23H119.832V20.138H120.696V23H123.846V23.792H120.696V28.346C120.696 29.174 120.726 29.792 120.786 30.2C120.846 30.596 120.978 30.896 121.182 31.1C121.398 31.304 121.746 31.406 122.226 31.406L123.936 31.262L124.008 32.018C123.168 32.138 122.532 32.198 122.1 32.198ZM132.837 32.162C131.853 32.162 131.091 32.018 130.551 31.73C130.023 31.43 129.651 30.956 129.435 30.308C129.219 29.648 129.111 28.742 129.111 27.59C129.111 26.378 129.225 25.436 129.453 24.764C129.681 24.08 130.059 23.588 130.587 23.288C131.127 22.988 131.877 22.838 132.837 22.838C133.809 22.838 134.559 22.994 135.087 23.306C135.627 23.606 136.005 24.098 136.221 24.782C136.449 25.454 136.563 26.39 136.563 27.59C136.563 28.742 136.455 29.648 136.239 30.308C136.035 30.956 135.663 31.43 135.123 31.73C134.595 32.018 133.833 32.162 132.837 32.162ZM132.873 31.37C133.653 31.37 134.235 31.25 134.619 31.01C135.015 30.77 135.285 30.392 135.429 29.876C135.573 29.348 135.645 28.586 135.645 27.59C135.645 26.534 135.567 25.73 135.411 25.178C135.255 24.614 134.979 24.218 134.583 23.99C134.199 23.75 133.629 23.63 132.873 23.63C132.105 23.63 131.517 23.75 131.109 23.99C130.713 24.218 130.437 24.614 130.281 25.178C130.125 25.73 130.047 26.534 130.047 27.59C130.047 28.574 130.119 29.33 130.263 29.858C130.407 30.386 130.677 30.77 131.073 31.01C131.481 31.25 132.081 31.37 132.873 31.37ZM139.305 23.792H138.099V23H139.305V22.01C139.305 21.17 139.377 20.516 139.521 20.048C139.677 19.58 139.923 19.25 140.259 19.058C140.595 18.866 141.057 18.77 141.645 18.77L143.373 18.878L143.355 19.598C142.515 19.586 142.011 19.58 141.843 19.58C141.675 19.568 141.567 19.562 141.519 19.562C140.991 19.562 140.637 19.76 140.457 20.156C140.277 20.552 140.187 21.176 140.187 22.028V23H142.995V23.792H140.187V32H139.305V23.792ZM155.524 28.364H149.746L148.666 32H147.784L151.492 19.454H153.778L157.486 32H156.604L155.524 28.364ZM153.112 20.264H152.176L149.98 27.518H155.29L153.112 20.264ZM162.108 32.162C161.34 32.162 160.752 32.03 160.344 31.766C159.936 31.502 159.648 31.058 159.48 30.434C159.324 29.798 159.246 28.886 159.246 27.698V23H160.146V27.644C160.146 28.652 160.2 29.42 160.308 29.948C160.416 30.464 160.614 30.83 160.902 31.046C161.19 31.262 161.622 31.37 162.198 31.37C163.206 31.37 164.172 31.1 165.096 30.56V23H165.978V32H165.078V31.316C164.598 31.604 164.13 31.82 163.674 31.964C163.23 32.096 162.708 32.162 162.108 32.162ZM171.422 32.162C170.69 32.162 169.844 32.09 168.884 31.946L168.344 31.856L168.416 31.064C169.772 31.268 170.798 31.37 171.494 31.37C172.334 31.37 172.952 31.226 173.348 30.938C173.744 30.65 173.942 30.188 173.942 29.552C173.942 29.096 173.84 28.754 173.636 28.526C173.444 28.286 173.192 28.118 172.88 28.022C172.58 27.926 172.16 27.842 171.62 27.77C171.536 27.746 171.398 27.722 171.206 27.698C170.426 27.566 169.826 27.416 169.406 27.248C168.986 27.08 168.686 26.852 168.506 26.564C168.326 26.276 168.236 25.886 168.236 25.394C168.236 24.446 168.518 23.786 169.082 23.414C169.658 23.042 170.486 22.856 171.566 22.856C172.526 22.856 173.36 22.916 174.068 23.036L174.536 23.126L174.5 23.9C173.276 23.708 172.286 23.612 171.53 23.612C170.69 23.612 170.078 23.75 169.694 24.026C169.322 24.302 169.136 24.716 169.136 25.268C169.136 25.652 169.226 25.946 169.406 26.15C169.586 26.354 169.82 26.504 170.108 26.6C170.408 26.684 170.84 26.774 171.404 26.87C171.488 26.894 171.614 26.918 171.782 26.942C172.574 27.086 173.174 27.242 173.582 27.41C174.002 27.566 174.314 27.8 174.518 28.112C174.734 28.424 174.842 28.868 174.842 29.444C174.842 30.404 174.56 31.1 173.996 31.532C173.444 31.952 172.586 32.162 171.422 32.162ZM179.827 32.198C179.251 32.198 178.801 32.102 178.477 31.91C178.153 31.718 177.919 31.394 177.775 30.938C177.631 30.47 177.559 29.81 177.559 28.958V23.792H176.191V23H177.559V20.138H178.423V23H181.573V23.792H178.423V28.346C178.423 29.174 178.453 29.792 178.513 30.2C178.573 30.596 178.705 30.896 178.909 31.1C179.125 31.304 179.473 31.406 179.953 31.406L181.663 31.262L181.735 32.018C180.895 32.138 180.259 32.198 179.827 32.198ZM183.242 23H184.106V32H183.242V23ZM183.242 19.4H184.106V20.588H183.242V19.4ZM186.863 23H187.745V23.684C188.321 23.372 188.855 23.156 189.347 23.036C189.839 22.904 190.349 22.838 190.877 22.838C191.645 22.838 192.233 22.976 192.641 23.252C193.061 23.516 193.349 23.966 193.505 24.602C193.673 25.226 193.757 26.126 193.757 27.302V32H192.893V27.32C192.893 26.348 192.833 25.604 192.713 25.088C192.605 24.572 192.407 24.2 192.119 23.972C191.831 23.744 191.405 23.63 190.841 23.63C190.349 23.63 189.845 23.696 189.329 23.828C188.813 23.96 188.423 24.098 188.159 24.242L187.763 24.44V32H186.863V23ZM196.552 30.308H197.542L196.516 34.214H195.76L196.552 30.308ZM207.006 20.282H202.938V19.454H211.938V20.282H207.906V32H207.006V20.282ZM216.589 25.79L212.593 19.454H213.655L217.183 25.142L220.711 19.454H221.737L217.777 25.808L221.737 32H220.693L217.183 26.42L213.619 32H212.593L216.589 25.79ZM229.323 32.162C228.531 32.162 227.925 31.934 227.505 31.478C227.097 31.022 226.893 30.38 226.893 29.552C226.893 28.724 227.097 28.1 227.505 27.68C227.913 27.248 228.567 26.978 229.467 26.87L232.689 26.546V25.682C232.689 24.986 232.539 24.476 232.239 24.152C231.951 23.816 231.549 23.648 231.033 23.648C230.505 23.648 230.013 23.666 229.557 23.702C229.101 23.738 228.387 23.81 227.415 23.918L227.361 23.18C228.657 22.952 229.809 22.838 230.817 22.838C231.765 22.838 232.461 23.066 232.905 23.522C233.349 23.978 233.571 24.698 233.571 25.682V30.668C233.583 30.86 233.697 31.022 233.913 31.154C234.129 31.286 234.429 31.376 234.813 31.424L234.777 32.162C234.345 32.162 233.955 32.096 233.607 31.964C233.271 31.832 233.007 31.646 232.815 31.406C231.687 31.91 230.523 32.162 229.323 32.162ZM229.395 31.388C230.331 31.388 231.267 31.22 232.203 30.884L232.689 30.722V27.284L229.575 27.59C228.951 27.638 228.501 27.812 228.225 28.112C227.961 28.412 227.829 28.856 227.829 29.444C227.829 30.74 228.351 31.388 229.395 31.388ZM236.398 23H237.28V23.684C237.856 23.372 238.39 23.156 238.882 23.036C239.374 22.904 239.884 22.838 240.412 22.838C241.18 22.838 241.768 22.976 242.176 23.252C242.596 23.516 242.884 23.966 243.04 24.602C243.208 25.226 243.292 26.126 243.292 27.302V32H242.428V27.32C242.428 26.348 242.368 25.604 242.248 25.088C242.14 24.572 241.942 24.2 241.654 23.972C241.366 23.744 240.94 23.63 240.376 23.63C239.884 23.63 239.38 23.696 238.864 23.828C238.348 23.96 237.958 24.098 237.694 24.242L237.298 24.44V32H236.398V23ZM248.661 32.162C247.557 32.162 246.765 31.802 246.285 31.082C245.805 30.35 245.565 29.216 245.565 27.68C245.565 26.516 245.691 25.586 245.943 24.89C246.207 24.182 246.621 23.666 247.185 23.342C247.761 23.006 248.529 22.838 249.489 22.838C250.245 22.838 250.977 22.91 251.685 23.054V18.932H252.549V32H251.667V31.28C250.731 31.868 249.729 32.162 248.661 32.162ZM248.787 31.37C249.219 31.37 249.675 31.304 250.155 31.172C250.635 31.028 251.007 30.884 251.271 30.74L251.685 30.542V23.846C250.893 23.69 250.149 23.612 249.453 23.612C248.697 23.612 248.103 23.75 247.671 24.026C247.251 24.302 246.951 24.722 246.771 25.286C246.591 25.85 246.501 26.606 246.501 27.554C246.501 28.826 246.669 29.78 247.005 30.416C247.353 31.052 247.947 31.37 248.787 31.37ZM263.714 32.162C262.454 32.162 261.482 31.922 260.798 31.442C260.126 30.95 259.664 30.248 259.412 29.336C259.16 28.412 259.034 27.2 259.034 25.7C259.034 24.26 259.148 23.09 259.376 22.19C259.616 21.278 260.072 20.57 260.744 20.066C261.428 19.55 262.406 19.292 263.678 19.292C264.59 19.292 265.67 19.406 266.918 19.634L266.864 20.462C265.688 20.234 264.614 20.12 263.642 20.12C262.622 20.12 261.854 20.306 261.338 20.678C260.822 21.038 260.468 21.632 260.276 22.46C260.084 23.288 259.988 24.482 259.988 26.042C259.988 27.302 260.078 28.304 260.258 29.048C260.45 29.78 260.828 30.344 261.392 30.74C261.956 31.136 262.79 31.334 263.894 31.334C264.758 31.334 265.748 31.214 266.864 30.974L266.918 31.802C265.754 32.042 264.686 32.162 263.714 32.162ZM273.883 19.454C275.623 19.454 276.781 20.036 277.357 21.2C277.933 22.364 278.221 23.756 278.221 25.376C278.221 27.644 277.837 29.318 277.069 30.398C276.313 31.466 275.251 32 273.883 32H269.293V19.454H273.883ZM273.883 31.19C274.555 31.19 275.149 30.98 275.665 30.56C276.181 30.14 276.583 29.516 276.871 28.688C277.159 27.848 277.303 26.822 277.303 25.61C277.303 23.798 276.997 22.454 276.385 21.578C275.785 20.702 274.951 20.264 273.883 20.264H270.193V31.19H273.883ZM292.701 19.454V32H291.801V20.372H291.585L287.409 31.586H286.257L282.063 20.372H281.865V32H280.965V19.454H282.711L286.833 30.578L290.955 19.454H292.701ZM298.731 25.79L294.735 19.454H295.797L299.325 25.142L302.853 19.454H303.879L299.919 25.808L303.879 32H302.835L299.325 26.42L295.761 32H294.735L298.731 25.79ZM305.567 30.362H306.557V32H305.567V30.362Z" fill="#BDBDBD"/>
</svg>
