<svg width="283" height="55" viewBox="0 0 283 55" fill="none" xmlns="http://www.w3.org/2000/svg">
<path d="M0.691523 1.454H1.62752L4.00352 13.172H4.63352L7.33352 1.598H8.39552L11.0955 13.172H11.7255L14.1015 1.454H15.0195L12.4095 14H10.4115L7.85552 2.786L5.31752 14H3.31952L0.691523 1.454ZM19.9462 14.162C18.6022 14.162 17.6542 13.808 17.1022 13.1C16.5622 12.392 16.2922 11.27 16.2922 9.734C16.2922 8.066 16.5862 6.836 17.1742 6.044C17.7742 5.24 18.7102 4.838 19.9822 4.838C21.1582 4.838 22.0282 5.186 22.5922 5.882C23.1562 6.566 23.4382 7.64 23.4382 9.104L23.4202 9.86H17.1922C17.1802 10.724 17.2642 11.414 17.4442 11.93C17.6242 12.434 17.9302 12.806 18.3622 13.046C18.8062 13.274 19.4182 13.388 20.1982 13.388C20.5222 13.388 20.9002 13.382 21.3322 13.37C21.7762 13.346 22.1842 13.316 22.5562 13.28L23.0962 13.226L23.1322 13.964C21.8842 14.096 20.8222 14.162 19.9462 14.162ZM22.5382 9.104C22.5382 7.856 22.3342 6.962 21.9262 6.422C21.5182 5.87 20.8702 5.594 19.9822 5.594C19.0582 5.594 18.3622 5.882 17.8942 6.458C17.4262 7.022 17.1862 7.904 17.1742 9.104H22.5382ZM32.9 14.162C31.976 14.162 31.256 14.006 30.74 13.694C30.224 13.382 29.858 12.89 29.642 12.218C29.426 11.546 29.318 10.64 29.318 9.5C29.318 8.636 29.384 7.88 29.516 7.232C29.648 6.572 29.96 6.002 30.452 5.522C30.944 5.042 31.688 4.802 32.684 4.802C33.056 4.802 33.422 4.82 33.782 4.856C34.142 4.88 34.646 4.946 35.294 5.054L35.24 5.792C34.292 5.684 33.56 5.63 33.044 5.63C32.312 5.63 31.742 5.75 31.334 5.99C30.938 6.218 30.656 6.614 30.488 7.178C30.32 7.73 30.236 8.522 30.236 9.554C30.236 10.526 30.314 11.282 30.47 11.822C30.638 12.362 30.926 12.758 31.334 13.01C31.754 13.25 32.354 13.37 33.134 13.37L35.276 13.208L35.312 13.964C34.22 14.096 33.416 14.162 32.9 14.162ZM37.4295 5H38.3115V6.332C39.3315 5.588 40.4895 5.078 41.7855 4.802V5.72C41.2935 5.816 40.7415 5.984 40.1295 6.224C39.5295 6.464 39.0915 6.68 38.8155 6.872L38.3295 7.142V14H37.4295V5ZM46.5067 14.162C45.1627 14.162 44.2147 13.808 43.6627 13.1C43.1227 12.392 42.8527 11.27 42.8527 9.734C42.8527 8.066 43.1467 6.836 43.7347 6.044C44.3347 5.24 45.2707 4.838 46.5427 4.838C47.7187 4.838 48.5887 5.186 49.1527 5.882C49.7167 6.566 49.9987 7.64 49.9987 9.104L49.9807 9.86H43.7527C43.7407 10.724 43.8247 11.414 44.0047 11.93C44.1847 12.434 44.4907 12.806 44.9227 13.046C45.3667 13.274 45.9787 13.388 46.7587 13.388C47.0827 13.388 47.4607 13.382 47.8927 13.37C48.3367 13.346 48.7447 13.316 49.1167 13.28L49.6567 13.226L49.6927 13.964C48.4447 14.096 47.3827 14.162 46.5067 14.162ZM49.0987 9.104C49.0987 7.856 48.8947 6.962 48.4867 6.422C48.0787 5.87 47.4307 5.594 46.5427 5.594C45.6187 5.594 44.9227 5.882 44.4547 6.458C43.9867 7.022 43.7467 7.904 43.7347 9.104H49.0987ZM54.1375 14.162C53.3455 14.162 52.7395 13.934 52.3195 13.478C51.9115 13.022 51.7075 12.38 51.7075 11.552C51.7075 10.724 51.9115 10.1 52.3195 9.68C52.7275 9.248 53.3815 8.978 54.2815 8.87L57.5035 8.546V7.682C57.5035 6.986 57.3535 6.476 57.0535 6.152C56.7655 5.816 56.3635 5.648 55.8475 5.648C55.3195 5.648 54.8275 5.666 54.3715 5.702C53.9155 5.738 53.2015 5.81 52.2295 5.918L52.1755 5.18C53.4715 4.952 54.6235 4.838 55.6315 4.838C56.5795 4.838 57.2755 5.066 57.7195 5.522C58.1635 5.978 58.3855 6.698 58.3855 7.682V12.668C58.3975 12.86 58.5115 13.022 58.7275 13.154C58.9435 13.286 59.2435 13.376 59.6275 13.424L59.5915 14.162C59.1595 14.162 58.7695 14.096 58.4215 13.964C58.0855 13.832 57.8215 13.646 57.6295 13.406C56.5015 13.91 55.3375 14.162 54.1375 14.162ZM54.2095 13.388C55.1455 13.388 56.0815 13.22 57.0175 12.884L57.5035 12.722V9.284L54.3895 9.59C53.7655 9.638 53.3155 9.812 53.0395 10.112C52.7755 10.412 52.6435 10.856 52.6435 11.444C52.6435 12.74 53.1655 13.388 54.2095 13.388ZM64.0027 14.198C63.4267 14.198 62.9767 14.102 62.6527 13.91C62.3287 13.718 62.0947 13.394 61.9507 12.938C61.8067 12.47 61.7347 11.81 61.7347 10.958V5.792H60.3667V5H61.7347V2.138H62.5987V5H65.7487V5.792H62.5987V10.346C62.5987 11.174 62.6287 11.792 62.6887 12.2C62.7487 12.596 62.8807 12.896 63.0847 13.1C63.3007 13.304 63.6487 13.406 64.1287 13.406L65.8387 13.262L65.9107 14.018C65.0707 14.138 64.4347 14.198 64.0027 14.198ZM70.7118 14.162C69.3678 14.162 68.4198 13.808 67.8678 13.1C67.3278 12.392 67.0578 11.27 67.0578 9.734C67.0578 8.066 67.3518 6.836 67.9398 6.044C68.5398 5.24 69.4758 4.838 70.7478 4.838C71.9238 4.838 72.7938 5.186 73.3578 5.882C73.9218 6.566 74.2038 7.64 74.2038 9.104L74.1858 9.86H67.9578C67.9458 10.724 68.0298 11.414 68.2098 11.93C68.3898 12.434 68.6958 12.806 69.1278 13.046C69.5718 13.274 70.1838 13.388 70.9638 13.388C71.2878 13.388 71.6658 13.382 72.0978 13.37C72.5418 13.346 72.9498 13.316 73.3218 13.28L73.8618 13.226L73.8978 13.964C72.6498 14.096 71.5878 14.162 70.7118 14.162ZM73.3038 9.104C73.3038 7.856 73.0998 6.962 72.6918 6.422C72.2838 5.87 71.6358 5.594 70.7478 5.594C69.8238 5.594 69.1278 5.882 68.6598 6.458C68.1918 7.022 67.9518 7.904 67.9398 9.104H73.3038ZM82.2976 14.162C81.5056 14.162 80.8996 13.934 80.4796 13.478C80.0716 13.022 79.8676 12.38 79.8676 11.552C79.8676 10.724 80.0716 10.1 80.4796 9.68C80.8876 9.248 81.5416 8.978 82.4416 8.87L85.6636 8.546V7.682C85.6636 6.986 85.5136 6.476 85.2136 6.152C84.9256 5.816 84.5236 5.648 84.0076 5.648C83.4796 5.648 82.9876 5.666 82.5316 5.702C82.0756 5.738 81.3616 5.81 80.3896 5.918L80.3356 5.18C81.6316 4.952 82.7836 4.838 83.7916 4.838C84.7396 4.838 85.4356 5.066 85.8796 5.522C86.3236 5.978 86.5456 6.698 86.5456 7.682V12.668C86.5576 12.86 86.6716 13.022 86.8876 13.154C87.1036 13.286 87.4036 13.376 87.7876 13.424L87.7516 14.162C87.3196 14.162 86.9296 14.096 86.5816 13.964C86.2456 13.832 85.9816 13.646 85.7896 13.406C84.6616 13.91 83.4976 14.162 82.2976 14.162ZM82.3696 13.388C83.3056 13.388 84.2416 13.22 85.1776 12.884L85.6636 12.722V9.284L82.5496 9.59C81.9256 9.638 81.4756 9.812 81.1996 10.112C80.9356 10.412 80.8036 10.856 80.8036 11.444C80.8036 12.74 81.3256 13.388 82.3696 13.388ZM92.1449 14.162C91.3769 14.162 90.7889 14.03 90.3809 13.766C89.9729 13.502 89.6849 13.058 89.5169 12.434C89.3609 11.798 89.2829 10.886 89.2829 9.698V5H90.1829V9.644C90.1829 10.652 90.2369 11.42 90.3449 11.948C90.4529 12.464 90.6509 12.83 90.9389 13.046C91.2269 13.262 91.6589 13.37 92.2349 13.37C93.2429 13.37 94.2089 13.1 95.1329 12.56V5H96.0149V14H95.1149V13.316C94.6349 13.604 94.1669 13.82 93.7109 13.964C93.2669 14.096 92.7449 14.162 92.1449 14.162ZM101.478 14.162C100.374 14.162 99.5816 13.802 99.1016 13.082C98.6216 12.35 98.3816 11.216 98.3816 9.68C98.3816 8.516 98.5076 7.586 98.7596 6.89C99.0236 6.182 99.4376 5.666 100.002 5.342C100.578 5.006 101.346 4.838 102.306 4.838C103.062 4.838 103.794 4.91 104.502 5.054V0.932H105.366V14H104.484V13.28C103.548 13.868 102.546 14.162 101.478 14.162ZM101.604 13.37C102.036 13.37 102.492 13.304 102.972 13.172C103.452 13.028 103.824 12.884 104.088 12.74L104.502 12.542V5.846C103.71 5.69 102.966 5.612 102.27 5.612C101.514 5.612 100.92 5.75 100.488 6.026C100.068 6.302 99.7676 6.722 99.5876 7.286C99.4076 7.85 99.3176 8.606 99.3176 9.554C99.3176 10.826 99.4856 11.78 99.8216 12.416C100.17 13.052 100.764 13.37 101.604 13.37ZM108.111 5H108.975V14H108.111V5ZM108.111 1.4H108.975V2.588H108.111V1.4ZM114.975 14.162C113.991 14.162 113.229 14.018 112.689 13.73C112.161 13.43 111.789 12.956 111.573 12.308C111.357 11.648 111.249 10.742 111.249 9.59C111.249 8.378 111.363 7.436 111.591 6.764C111.819 6.08 112.197 5.588 112.725 5.288C113.265 4.988 114.015 4.838 114.975 4.838C115.947 4.838 116.697 4.994 117.225 5.306C117.765 5.606 118.143 6.098 118.359 6.782C118.587 7.454 118.701 8.39 118.701 9.59C118.701 10.742 118.593 11.648 118.377 12.308C118.173 12.956 117.801 13.43 117.261 13.73C116.733 14.018 115.971 14.162 114.975 14.162ZM115.011 13.37C115.791 13.37 116.373 13.25 116.757 13.01C117.153 12.77 117.423 12.392 117.567 11.876C117.711 11.348 117.783 10.586 117.783 9.59C117.783 8.534 117.705 7.73 117.549 7.178C117.393 6.614 117.117 6.218 116.721 5.99C116.337 5.75 115.767 5.63 115.011 5.63C114.243 5.63 113.655 5.75 113.247 5.99C112.851 6.218 112.575 6.614 112.419 7.178C112.263 7.73 112.185 8.534 112.185 9.59C112.185 10.574 112.257 11.33 112.401 11.858C112.545 12.386 112.815 12.77 113.211 13.01C113.619 13.25 114.219 13.37 115.011 13.37ZM128.333 14.162C126.989 14.162 126.041 13.808 125.489 13.1C124.949 12.392 124.679 11.27 124.679 9.734C124.679 8.066 124.973 6.836 125.561 6.044C126.161 5.24 127.097 4.838 128.369 4.838C129.545 4.838 130.415 5.186 130.979 5.882C131.543 6.566 131.825 7.64 131.825 9.104L131.807 9.86H125.579C125.567 10.724 125.651 11.414 125.831 11.93C126.011 12.434 126.317 12.806 126.749 13.046C127.193 13.274 127.805 13.388 128.585 13.388C128.909 13.388 129.287 13.382 129.719 13.37C130.163 13.346 130.571 13.316 130.943 13.28L131.483 13.226L131.519 13.964C130.271 14.096 129.209 14.162 128.333 14.162ZM130.925 9.104C130.925 7.856 130.721 6.962 130.313 6.422C129.905 5.87 129.257 5.594 128.369 5.594C127.445 5.594 126.749 5.882 126.281 6.458C125.813 7.022 125.573 7.904 125.561 9.104H130.925ZM134.092 5H134.974V5.684C135.55 5.372 136.084 5.156 136.576 5.036C137.068 4.904 137.578 4.838 138.106 4.838C138.874 4.838 139.462 4.976 139.87 5.252C140.29 5.516 140.578 5.966 140.734 6.602C140.902 7.226 140.986 8.126 140.986 9.302V14H140.122V9.32C140.122 8.348 140.062 7.604 139.942 7.088C139.834 6.572 139.636 6.2 139.348 5.972C139.06 5.744 138.634 5.63 138.07 5.63C137.578 5.63 137.074 5.696 136.558 5.828C136.042 5.96 135.652 6.098 135.388 6.242L134.992 6.44V14H134.092V5ZM146.805 18.266C145.869 18.266 145.143 18.17 144.627 17.978C144.123 17.798 143.769 17.516 143.565 17.132C143.373 16.748 143.277 16.226 143.277 15.566C143.277 15.146 143.319 14.816 143.403 14.576C143.499 14.336 143.637 14.132 143.817 13.964C143.997 13.784 144.309 13.526 144.753 13.19C144.609 13.094 144.501 12.944 144.429 12.74C144.357 12.524 144.321 12.296 144.321 12.056C144.321 11.9 144.351 11.732 144.411 11.552C144.483 11.372 144.639 11.048 144.879 10.58C143.883 10.232 143.385 9.326 143.385 7.862C143.385 6.83 143.643 6.068 144.159 5.576C144.675 5.072 145.497 4.82 146.625 4.82C147.189 4.82 147.801 4.898 148.461 5.054L151.017 4.982V5.81H149.163C149.607 6.182 149.829 6.872 149.829 7.88C149.829 8.948 149.565 9.71 149.037 10.166C148.521 10.61 147.681 10.832 146.517 10.832C146.133 10.832 145.815 10.808 145.563 10.76C145.539 10.808 145.515 10.868 145.491 10.94C145.479 11 145.455 11.06 145.419 11.12C145.347 11.3 145.287 11.468 145.239 11.624C145.191 11.768 145.167 11.9 145.167 12.02C145.167 12.368 145.293 12.596 145.545 12.704C145.809 12.812 146.211 12.866 146.751 12.866H147.597C148.329 12.854 148.923 12.908 149.379 13.028C149.835 13.148 150.189 13.394 150.441 13.766C150.693 14.126 150.819 14.654 150.819 15.35C150.819 16.37 150.513 17.108 149.901 17.564C149.301 18.032 148.269 18.266 146.805 18.266ZM146.607 10.094C147.459 10.094 148.059 9.926 148.407 9.59C148.755 9.254 148.929 8.666 148.929 7.826C148.929 6.998 148.755 6.416 148.407 6.08C148.059 5.744 147.471 5.576 146.643 5.576C145.779 5.576 145.167 5.75 144.807 6.098C144.447 6.434 144.267 7.016 144.267 7.844C144.267 8.672 144.441 9.254 144.789 9.59C145.149 9.926 145.755 10.094 146.607 10.094ZM146.913 17.51C147.669 17.51 148.263 17.438 148.695 17.294C149.127 17.162 149.433 16.934 149.613 16.61C149.805 16.298 149.901 15.872 149.901 15.332C149.901 14.876 149.835 14.528 149.703 14.288C149.583 14.06 149.349 13.898 149.001 13.802C148.665 13.694 148.155 13.646 147.471 13.658L145.383 13.586C144.879 13.934 144.549 14.222 144.393 14.45C144.237 14.69 144.159 15.038 144.159 15.494C144.159 16.01 144.243 16.412 144.411 16.7C144.579 16.988 144.855 17.192 145.239 17.312C145.635 17.444 146.193 17.51 146.913 17.51ZM152.724 5H153.588V14H152.724V5ZM152.724 1.4H153.588V2.588H152.724V1.4ZM156.346 5H157.228V5.684C157.804 5.372 158.338 5.156 158.83 5.036C159.322 4.904 159.832 4.838 160.36 4.838C161.128 4.838 161.716 4.976 162.124 5.252C162.544 5.516 162.832 5.966 162.988 6.602C163.156 7.226 163.24 8.126 163.24 9.302V14H162.376V9.32C162.376 8.348 162.316 7.604 162.196 7.088C162.088 6.572 161.89 6.2 161.602 5.972C161.314 5.744 160.888 5.63 160.324 5.63C159.832 5.63 159.328 5.696 158.812 5.828C158.296 5.96 157.906 6.098 157.642 6.242L157.246 6.44V14H156.346V5ZM169.184 14.162C167.84 14.162 166.892 13.808 166.34 13.1C165.8 12.392 165.53 11.27 165.53 9.734C165.53 8.066 165.824 6.836 166.412 6.044C167.012 5.24 167.948 4.838 169.22 4.838C170.396 4.838 171.266 5.186 171.83 5.882C172.394 6.566 172.676 7.64 172.676 9.104L172.658 9.86H166.43C166.418 10.724 166.502 11.414 166.682 11.93C166.862 12.434 167.168 12.806 167.6 13.046C168.044 13.274 168.656 13.388 169.436 13.388C169.76 13.388 170.138 13.382 170.57 13.37C171.014 13.346 171.422 13.316 171.794 13.28L172.334 13.226L172.37 13.964C171.122 14.096 170.06 14.162 169.184 14.162ZM171.776 9.104C171.776 7.856 171.572 6.962 171.164 6.422C170.756 5.87 170.108 5.594 169.22 5.594C168.296 5.594 167.6 5.882 167.132 6.458C166.664 7.022 166.424 7.904 166.412 9.104H171.776ZM178.237 14.162C176.893 14.162 175.945 13.808 175.393 13.1C174.853 12.392 174.583 11.27 174.583 9.734C174.583 8.066 174.877 6.836 175.465 6.044C176.065 5.24 177.001 4.838 178.273 4.838C179.449 4.838 180.319 5.186 180.883 5.882C181.447 6.566 181.729 7.64 181.729 9.104L181.711 9.86H175.483C175.471 10.724 175.555 11.414 175.735 11.93C175.915 12.434 176.221 12.806 176.653 13.046C177.097 13.274 177.709 13.388 178.489 13.388C178.813 13.388 179.191 13.382 179.623 13.37C180.067 13.346 180.475 13.316 180.847 13.28L181.387 13.226L181.423 13.964C180.175 14.096 179.113 14.162 178.237 14.162ZM180.829 9.104C180.829 7.856 180.625 6.962 180.217 6.422C179.809 5.87 179.161 5.594 178.273 5.594C177.349 5.594 176.653 5.882 176.185 6.458C175.717 7.022 175.477 7.904 175.465 9.104H180.829ZM183.996 5H184.878V6.332C185.898 5.588 187.056 5.078 188.352 4.802V5.72C187.86 5.816 187.308 5.984 186.696 6.224C186.096 6.464 185.658 6.68 185.382 6.872L184.896 7.142V14H183.996V5ZM190.025 5H190.889V14H190.025V5ZM190.025 1.4H190.889V2.588H190.025V1.4ZM193.646 5H194.528V5.684C195.104 5.372 195.638 5.156 196.13 5.036C196.622 4.904 197.132 4.838 197.66 4.838C198.428 4.838 199.016 4.976 199.424 5.252C199.844 5.516 200.132 5.966 200.288 6.602C200.456 7.226 200.54 8.126 200.54 9.302V14H199.676V9.32C199.676 8.348 199.616 7.604 199.496 7.088C199.388 6.572 199.19 6.2 198.902 5.972C198.614 5.744 198.188 5.63 197.624 5.63C197.132 5.63 196.628 5.696 196.112 5.828C195.596 5.96 195.206 6.098 194.942 6.242L194.546 6.44V14H193.646V5ZM206.359 18.266C205.423 18.266 204.697 18.17 204.181 17.978C203.677 17.798 203.323 17.516 203.119 17.132C202.927 16.748 202.831 16.226 202.831 15.566C202.831 15.146 202.873 14.816 202.957 14.576C203.053 14.336 203.191 14.132 203.371 13.964C203.551 13.784 203.863 13.526 204.307 13.19C204.163 13.094 204.055 12.944 203.983 12.74C203.911 12.524 203.875 12.296 203.875 12.056C203.875 11.9 203.905 11.732 203.965 11.552C204.037 11.372 204.193 11.048 204.433 10.58C203.437 10.232 202.939 9.326 202.939 7.862C202.939 6.83 203.197 6.068 203.713 5.576C204.229 5.072 205.051 4.82 206.179 4.82C206.743 4.82 207.355 4.898 208.015 5.054L210.571 4.982V5.81H208.717C209.161 6.182 209.383 6.872 209.383 7.88C209.383 8.948 209.119 9.71 208.591 10.166C208.075 10.61 207.235 10.832 206.071 10.832C205.687 10.832 205.369 10.808 205.117 10.76C205.093 10.808 205.069 10.868 205.045 10.94C205.033 11 205.009 11.06 204.973 11.12C204.901 11.3 204.841 11.468 204.793 11.624C204.745 11.768 204.721 11.9 204.721 12.02C204.721 12.368 204.847 12.596 205.099 12.704C205.363 12.812 205.765 12.866 206.305 12.866H207.151C207.883 12.854 208.477 12.908 208.933 13.028C209.389 13.148 209.743 13.394 209.995 13.766C210.247 14.126 210.373 14.654 210.373 15.35C210.373 16.37 210.067 17.108 209.455 17.564C208.855 18.032 207.823 18.266 206.359 18.266ZM206.161 10.094C207.013 10.094 207.613 9.926 207.961 9.59C208.309 9.254 208.483 8.666 208.483 7.826C208.483 6.998 208.309 6.416 207.961 6.08C207.613 5.744 207.025 5.576 206.197 5.576C205.333 5.576 204.721 5.75 204.361 6.098C204.001 6.434 203.821 7.016 203.821 7.844C203.821 8.672 203.995 9.254 204.343 9.59C204.703 9.926 205.309 10.094 206.161 10.094ZM206.467 17.51C207.223 17.51 207.817 17.438 208.249 17.294C208.681 17.162 208.987 16.934 209.167 16.61C209.359 16.298 209.455 15.872 209.455 15.332C209.455 14.876 209.389 14.528 209.257 14.288C209.137 14.06 208.903 13.898 208.555 13.802C208.219 13.694 207.709 13.646 207.025 13.658L204.937 13.586C204.433 13.934 204.103 14.222 203.947 14.45C203.791 14.69 203.713 15.038 203.713 15.494C203.713 16.01 203.797 16.412 203.965 16.7C204.133 16.988 204.409 17.192 204.793 17.312C205.189 17.444 205.747 17.51 206.467 17.51ZM219.024 14.198C218.448 14.198 217.998 14.102 217.674 13.91C217.35 13.718 217.116 13.394 216.972 12.938C216.828 12.47 216.756 11.81 216.756 10.958V5.792H215.388V5H216.756V2.138H217.62V5H220.77V5.792H217.62V10.346C217.62 11.174 217.65 11.792 217.71 12.2C217.77 12.596 217.902 12.896 218.106 13.1C218.322 13.304 218.67 13.406 219.15 13.406L220.86 13.262L220.932 14.018C220.092 14.138 219.456 14.198 219.024 14.198ZM225.805 14.162C224.821 14.162 224.059 14.018 223.519 13.73C222.991 13.43 222.619 12.956 222.403 12.308C222.187 11.648 222.079 10.742 222.079 9.59C222.079 8.378 222.193 7.436 222.421 6.764C222.649 6.08 223.027 5.588 223.555 5.288C224.095 4.988 224.845 4.838 225.805 4.838C226.777 4.838 227.527 4.994 228.055 5.306C228.595 5.606 228.973 6.098 229.189 6.782C229.417 7.454 229.531 8.39 229.531 9.59C229.531 10.742 229.423 11.648 229.207 12.308C229.003 12.956 228.631 13.43 228.091 13.73C227.563 14.018 226.801 14.162 225.805 14.162ZM225.841 13.37C226.621 13.37 227.203 13.25 227.587 13.01C227.983 12.77 228.253 12.392 228.397 11.876C228.541 11.348 228.613 10.586 228.613 9.59C228.613 8.534 228.535 7.73 228.379 7.178C228.223 6.614 227.947 6.218 227.551 5.99C227.167 5.75 226.597 5.63 225.841 5.63C225.073 5.63 224.485 5.75 224.077 5.99C223.681 6.218 223.405 6.614 223.249 7.178C223.093 7.73 223.015 8.534 223.015 9.59C223.015 10.574 223.087 11.33 223.231 11.858C223.375 12.386 223.645 12.77 224.041 13.01C224.449 13.25 225.049 13.37 225.841 13.37ZM235.28 14.162C234.296 14.162 233.534 14.018 232.994 13.73C232.466 13.43 232.094 12.956 231.878 12.308C231.662 11.648 231.554 10.742 231.554 9.59C231.554 8.378 231.668 7.436 231.896 6.764C232.124 6.08 232.502 5.588 233.03 5.288C233.57 4.988 234.32 4.838 235.28 4.838C236.252 4.838 237.002 4.994 237.53 5.306C238.07 5.606 238.448 6.098 238.664 6.782C238.892 7.454 239.006 8.39 239.006 9.59C239.006 10.742 238.898 11.648 238.682 12.308C238.478 12.956 238.106 13.43 237.566 13.73C237.038 14.018 236.276 14.162 235.28 14.162ZM235.316 13.37C236.096 13.37 236.678 13.25 237.062 13.01C237.458 12.77 237.728 12.392 237.872 11.876C238.016 11.348 238.088 10.586 238.088 9.59C238.088 8.534 238.01 7.73 237.854 7.178C237.698 6.614 237.422 6.218 237.026 5.99C236.642 5.75 236.072 5.63 235.316 5.63C234.548 5.63 233.96 5.75 233.552 5.99C233.156 6.218 232.88 6.614 232.724 7.178C232.568 7.73 232.49 8.534 232.49 9.59C232.49 10.574 232.562 11.33 232.706 11.858C232.85 12.386 233.12 12.77 233.516 13.01C233.924 13.25 234.524 13.37 235.316 13.37ZM241.497 0.932H242.397V14H241.497V0.932ZM247.938 14.162C247.206 14.162 246.36 14.09 245.4 13.946L244.86 13.856L244.932 13.064C246.288 13.268 247.314 13.37 248.01 13.37C248.85 13.37 249.468 13.226 249.864 12.938C250.26 12.65 250.458 12.188 250.458 11.552C250.458 11.096 250.356 10.754 250.152 10.526C249.96 10.286 249.708 10.118 249.396 10.022C249.096 9.926 248.676 9.842 248.136 9.77C248.052 9.746 247.914 9.722 247.722 9.698C246.942 9.566 246.342 9.416 245.922 9.248C245.502 9.08 245.202 8.852 245.022 8.564C244.842 8.276 244.752 7.886 244.752 7.394C244.752 6.446 245.034 5.786 245.598 5.414C246.174 5.042 247.002 4.856 248.082 4.856C249.042 4.856 249.876 4.916 250.584 5.036L251.052 5.126L251.016 5.9C249.792 5.708 248.802 5.612 248.046 5.612C247.206 5.612 246.594 5.75 246.21 6.026C245.838 6.302 245.652 6.716 245.652 7.268C245.652 7.652 245.742 7.946 245.922 8.15C246.102 8.354 246.336 8.504 246.624 8.6C246.924 8.684 247.356 8.774 247.92 8.87C248.004 8.894 248.13 8.918 248.298 8.942C249.09 9.086 249.69 9.242 250.098 9.41C250.518 9.566 250.83 9.8 251.034 10.112C251.25 10.424 251.358 10.868 251.358 11.444C251.358 12.404 251.076 13.1 250.512 13.532C249.96 13.952 249.102 14.162 247.938 14.162ZM259.38 14.162C258.588 14.162 257.982 13.934 257.562 13.478C257.154 13.022 256.95 12.38 256.95 11.552C256.95 10.724 257.154 10.1 257.562 9.68C257.97 9.248 258.624 8.978 259.524 8.87L262.746 8.546V7.682C262.746 6.986 262.596 6.476 262.296 6.152C262.008 5.816 261.606 5.648 261.09 5.648C260.562 5.648 260.07 5.666 259.614 5.702C259.158 5.738 258.444 5.81 257.472 5.918L257.418 5.18C258.714 4.952 259.866 4.838 260.874 4.838C261.822 4.838 262.518 5.066 262.962 5.522C263.406 5.978 263.628 6.698 263.628 7.682V12.668C263.64 12.86 263.754 13.022 263.97 13.154C264.186 13.286 264.486 13.376 264.87 13.424L264.834 14.162C264.402 14.162 264.012 14.096 263.664 13.964C263.328 13.832 263.064 13.646 262.872 13.406C261.744 13.91 260.58 14.162 259.38 14.162ZM259.452 13.388C260.388 13.388 261.324 13.22 262.26 12.884L262.746 12.722V9.284L259.632 9.59C259.008 9.638 258.558 9.812 258.282 10.112C258.018 10.412 257.886 10.856 257.886 11.444C257.886 12.74 258.408 13.388 259.452 13.388ZM266.455 5H267.337V5.684C267.913 5.372 268.447 5.156 268.939 5.036C269.431 4.904 269.941 4.838 270.469 4.838C271.237 4.838 271.825 4.976 272.233 5.252C272.653 5.516 272.941 5.966 273.097 6.602C273.265 7.226 273.349 8.126 273.349 9.302V14H272.485V9.32C272.485 8.348 272.425 7.604 272.305 7.088C272.197 6.572 271.999 6.2 271.711 5.972C271.423 5.744 270.997 5.63 270.433 5.63C269.941 5.63 269.437 5.696 268.921 5.828C268.405 5.96 268.015 6.098 267.751 6.242L267.355 6.44V14H266.455V5ZM278.718 14.162C277.614 14.162 276.822 13.802 276.342 13.082C275.862 12.35 275.622 11.216 275.622 9.68C275.622 8.516 275.748 7.586 276 6.89C276.264 6.182 276.678 5.666 277.242 5.342C277.818 5.006 278.586 4.838 279.546 4.838C280.302 4.838 281.034 4.91 281.742 5.054V0.932H282.606V14H281.724V13.28C280.788 13.868 279.786 14.162 278.718 14.162ZM278.844 13.37C279.276 13.37 279.732 13.304 280.212 13.172C280.692 13.028 281.064 12.884 281.328 12.74L281.742 12.542V5.846C280.95 5.69 280.206 5.612 279.51 5.612C278.754 5.612 278.16 5.75 277.728 6.026C277.308 6.302 277.008 6.722 276.828 7.286C276.648 7.85 276.558 8.606 276.558 9.554C276.558 10.826 276.726 11.78 277.062 12.416C277.41 13.052 278.004 13.37 278.844 13.37ZM10.7723 23H11.6543V23.684C12.5783 23.12 13.5503 22.838 14.5703 22.838C15.7103 22.838 16.4783 23.156 16.8743 23.792C17.2583 23.54 17.7743 23.318 18.4223 23.126C19.0703 22.934 19.7303 22.838 20.4023 22.838C21.1223 22.838 21.6803 22.982 22.0763 23.27C22.4723 23.558 22.7483 24.02 22.9043 24.656C23.0603 25.292 23.1383 26.174 23.1383 27.302V32H22.2563V27.32C22.2563 26.324 22.2023 25.574 22.0943 25.07C21.9863 24.554 21.7883 24.188 21.5003 23.972C21.2123 23.744 20.7803 23.63 20.2043 23.63C19.6883 23.63 19.1783 23.696 18.6743 23.828C18.1703 23.96 17.7983 24.098 17.5583 24.242L17.1803 24.44C17.3843 24.608 17.4863 25.568 17.4863 27.32V32H16.5863V27.356C16.5863 26.372 16.5323 25.622 16.4243 25.106C16.3163 24.578 16.1183 24.2 15.8303 23.972C15.5543 23.744 15.1403 23.63 14.5883 23.63C14.1083 23.63 13.6223 23.696 13.1303 23.828C12.6383 23.948 12.2663 24.086 12.0143 24.242L11.6723 24.44V32H10.7723V23ZM29.0956 32.162C27.7516 32.162 26.8036 31.808 26.2516 31.1C25.7116 30.392 25.4416 29.27 25.4416 27.734C25.4416 26.066 25.7356 24.836 26.3236 24.044C26.9236 23.24 27.8596 22.838 29.1316 22.838C30.3076 22.838 31.1776 23.186 31.7416 23.882C32.3056 24.566 32.5876 25.64 32.5876 27.104L32.5696 27.86H26.3416C26.3296 28.724 26.4136 29.414 26.5936 29.93C26.7736 30.434 27.0796 30.806 27.5116 31.046C27.9556 31.274 28.5676 31.388 29.3476 31.388C29.6716 31.388 30.0496 31.382 30.4816 31.37C30.9256 31.346 31.3336 31.316 31.7056 31.28L32.2456 31.226L32.2816 31.964C31.0336 32.096 29.9716 32.162 29.0956 32.162ZM31.6876 27.104C31.6876 25.856 31.4836 24.962 31.0756 24.422C30.6676 23.87 30.0196 23.594 29.1316 23.594C28.2076 23.594 27.5116 23.882 27.0436 24.458C26.5756 25.022 26.3356 25.904 26.3236 27.104H31.6876ZM34.9623 18.932H35.8623V32H34.9623V18.932ZM41.9469 32.162C40.9629 32.162 40.2009 32.018 39.6609 31.73C39.1329 31.43 38.7609 30.956 38.5449 30.308C38.3289 29.648 38.2209 28.742 38.2209 27.59C38.2209 26.378 38.3349 25.436 38.5629 24.764C38.7909 24.08 39.1689 23.588 39.6969 23.288C40.2369 22.988 40.9869 22.838 41.9469 22.838C42.9189 22.838 43.6689 22.994 44.1969 23.306C44.7369 23.606 45.1149 24.098 45.3309 24.782C45.5589 25.454 45.6729 26.39 45.6729 27.59C45.6729 28.742 45.5649 29.648 45.3489 30.308C45.1449 30.956 44.7729 31.43 44.2329 31.73C43.7049 32.018 42.9429 32.162 41.9469 32.162ZM41.9829 31.37C42.7629 31.37 43.3449 31.25 43.7289 31.01C44.1249 30.77 44.3949 30.392 44.5389 29.876C44.6829 29.348 44.7549 28.586 44.7549 27.59C44.7549 26.534 44.6769 25.73 44.5209 25.178C44.3649 24.614 44.0889 24.218 43.6929 23.99C43.3089 23.75 42.7389 23.63 41.9829 23.63C41.2149 23.63 40.6269 23.75 40.2189 23.99C39.8229 24.218 39.5469 24.614 39.3909 25.178C39.2349 25.73 39.1569 26.534 39.1569 27.59C39.1569 28.574 39.2289 29.33 39.3729 29.858C39.5169 30.386 39.7869 30.77 40.1829 31.01C40.5909 31.25 41.1909 31.37 41.9829 31.37ZM50.7735 32.162C49.6695 32.162 48.8775 31.802 48.3975 31.082C47.9175 30.35 47.6775 29.216 47.6775 27.68C47.6775 26.516 47.8035 25.586 48.0555 24.89C48.3195 24.182 48.7335 23.666 49.2975 23.342C49.8735 23.006 50.6415 22.838 51.6015 22.838C52.3575 22.838 53.0895 22.91 53.7975 23.054V18.932H54.6615V32H53.7795V31.28C52.8435 31.868 51.8415 32.162 50.7735 32.162ZM50.8995 31.37C51.3315 31.37 51.7875 31.304 52.2675 31.172C52.7475 31.028 53.1195 30.884 53.3835 30.74L53.7975 30.542V23.846C53.0055 23.69 52.2615 23.612 51.5655 23.612C50.8095 23.612 50.2155 23.75 49.7835 24.026C49.3635 24.302 49.0635 24.722 48.8835 25.286C48.7035 25.85 48.6135 26.606 48.6135 27.554C48.6135 28.826 48.7815 29.78 49.1175 30.416C49.4655 31.052 50.0595 31.37 50.8995 31.37ZM57.4071 23H58.2711V32H57.4071V23ZM57.4071 19.4H58.2711V20.588H57.4071V19.4ZM64.1451 32.162C63.2211 32.162 62.5011 32.006 61.9851 31.694C61.4691 31.382 61.1031 30.89 60.8871 30.218C60.6711 29.546 60.5631 28.64 60.5631 27.5C60.5631 26.636 60.6291 25.88 60.7611 25.232C60.8931 24.572 61.2051 24.002 61.6971 23.522C62.1891 23.042 62.9331 22.802 63.9291 22.802C64.3011 22.802 64.6671 22.82 65.0271 22.856C65.3871 22.88 65.8911 22.946 66.5391 23.054L66.4851 23.792C65.5371 23.684 64.8051 23.63 64.2891 23.63C63.5571 23.63 62.9871 23.75 62.5791 23.99C62.1831 24.218 61.9011 24.614 61.7331 25.178C61.5651 25.73 61.4811 26.522 61.4811 27.554C61.4811 28.526 61.5591 29.282 61.7151 29.822C61.8831 30.362 62.1711 30.758 62.5791 31.01C62.9991 31.25 63.5991 31.37 64.3791 31.37L66.5211 31.208L66.5571 31.964C65.4651 32.096 64.6611 32.162 64.1451 32.162ZM72.6297 23H73.5117V23.684C74.4357 23.12 75.4077 22.838 76.4277 22.838C77.5677 22.838 78.3357 23.156 78.7317 23.792C79.1157 23.54 79.6317 23.318 80.2797 23.126C80.9277 22.934 81.5877 22.838 82.2597 22.838C82.9797 22.838 83.5377 22.982 83.9337 23.27C84.3297 23.558 84.6057 24.02 84.7617 24.656C84.9177 25.292 84.9957 26.174 84.9957 27.302V32H84.1137V27.32C84.1137 26.324 84.0597 25.574 83.9517 25.07C83.8437 24.554 83.6457 24.188 83.3577 23.972C83.0697 23.744 82.6377 23.63 82.0617 23.63C81.5457 23.63 81.0357 23.696 80.5317 23.828C80.0277 23.96 79.6557 24.098 79.4157 24.242L79.0377 24.44C79.2417 24.608 79.3437 25.568 79.3437 27.32V32H78.4437V27.356C78.4437 26.372 78.3897 25.622 78.2817 25.106C78.1737 24.578 77.9757 24.2 77.6877 23.972C77.4117 23.744 76.9977 23.63 76.4457 23.63C75.9657 23.63 75.4797 23.696 74.9877 23.828C74.4957 23.948 74.1237 24.086 73.8717 24.242L73.5297 24.44V32H72.6297V23ZM90.431 32.162C89.663 32.162 89.075 32.03 88.667 31.766C88.259 31.502 87.971 31.058 87.803 30.434C87.647 29.798 87.569 28.886 87.569 27.698V23H88.469V27.644C88.469 28.652 88.523 29.42 88.631 29.948C88.739 30.464 88.937 30.83 89.225 31.046C89.513 31.262 89.945 31.37 90.521 31.37C91.529 31.37 92.495 31.1 93.419 30.56V23H94.301V32H93.401V31.316C92.921 31.604 92.453 31.82 91.997 31.964C91.553 32.096 91.031 32.162 90.431 32.162ZM99.7457 32.162C99.0137 32.162 98.1677 32.09 97.2077 31.946L96.6677 31.856L96.7397 31.064C98.0957 31.268 99.1217 31.37 99.8177 31.37C100.658 31.37 101.276 31.226 101.672 30.938C102.068 30.65 102.266 30.188 102.266 29.552C102.266 29.096 102.164 28.754 101.96 28.526C101.768 28.286 101.516 28.118 101.204 28.022C100.904 27.926 100.484 27.842 99.9437 27.77C99.8597 27.746 99.7217 27.722 99.5297 27.698C98.7497 27.566 98.1497 27.416 97.7297 27.248C97.3097 27.08 97.0097 26.852 96.8297 26.564C96.6497 26.276 96.5597 25.886 96.5597 25.394C96.5597 24.446 96.8417 23.786 97.4057 23.414C97.9817 23.042 98.8097 22.856 99.8897 22.856C100.85 22.856 101.684 22.916 102.392 23.036L102.86 23.126L102.824 23.9C101.6 23.708 100.61 23.612 99.8537 23.612C99.0137 23.612 98.4017 23.75 98.0177 24.026C97.6457 24.302 97.4597 24.716 97.4597 25.268C97.4597 25.652 97.5497 25.946 97.7297 26.15C97.9097 26.354 98.1437 26.504 98.4317 26.6C98.7317 26.684 99.1637 26.774 99.7277 26.87C99.8117 26.894 99.9377 26.918 100.106 26.942C100.898 27.086 101.498 27.242 101.906 27.41C102.326 27.566 102.638 27.8 102.842 28.112C103.058 28.424 103.166 28.868 103.166 29.444C103.166 30.404 102.884 31.1 102.32 31.532C101.768 31.952 100.91 32.162 99.7457 32.162ZM105.36 23H106.224V32H105.36V23ZM105.36 19.4H106.224V20.588H105.36V19.4ZM112.098 32.162C111.174 32.162 110.454 32.006 109.938 31.694C109.422 31.382 109.056 30.89 108.84 30.218C108.624 29.546 108.516 28.64 108.516 27.5C108.516 26.636 108.582 25.88 108.714 25.232C108.846 24.572 109.158 24.002 109.65 23.522C110.142 23.042 110.886 22.802 111.882 22.802C112.254 22.802 112.62 22.82 112.98 22.856C113.34 22.88 113.844 22.946 114.492 23.054L114.438 23.792C113.49 23.684 112.758 23.63 112.242 23.63C111.51 23.63 110.94 23.75 110.532 23.99C110.136 24.218 109.854 24.614 109.686 25.178C109.518 25.73 109.434 26.522 109.434 27.554C109.434 28.526 109.512 29.282 109.668 29.822C109.836 30.362 110.124 30.758 110.532 31.01C110.952 31.25 111.552 31.37 112.332 31.37L114.474 31.208L114.51 31.964C113.418 32.096 112.614 32.162 112.098 32.162ZM123.373 32.198C122.797 32.198 122.347 32.102 122.023 31.91C121.699 31.718 121.465 31.394 121.321 30.938C121.177 30.47 121.105 29.81 121.105 28.958V23.792H119.737V23H121.105V20.138H121.969V23H125.119V23.792H121.969V28.346C121.969 29.174 121.999 29.792 122.059 30.2C122.119 30.596 122.251 30.896 122.455 31.1C122.671 31.304 123.019 31.406 123.499 31.406L125.209 31.262L125.281 32.018C124.441 32.138 123.805 32.198 123.373 32.198ZM126.788 18.932H127.688V23.54C128.708 23.072 129.722 22.838 130.73 22.838C131.522 22.838 132.128 22.976 132.548 23.252C132.968 23.516 133.262 23.966 133.43 24.602C133.598 25.226 133.682 26.126 133.682 27.302V32H132.782V27.338C132.782 26.306 132.722 25.532 132.602 25.016C132.494 24.5 132.284 24.14 131.972 23.936C131.66 23.732 131.186 23.63 130.55 23.63C129.758 23.63 128.93 23.798 128.066 24.134L127.688 24.278V32H126.788V18.932ZM138.205 32.162C137.413 32.162 136.807 31.934 136.387 31.478C135.979 31.022 135.775 30.38 135.775 29.552C135.775 28.724 135.979 28.1 136.387 27.68C136.795 27.248 137.449 26.978 138.349 26.87L141.571 26.546V25.682C141.571 24.986 141.421 24.476 141.121 24.152C140.833 23.816 140.431 23.648 139.915 23.648C139.387 23.648 138.895 23.666 138.439 23.702C137.983 23.738 137.269 23.81 136.297 23.918L136.243 23.18C137.539 22.952 138.691 22.838 139.699 22.838C140.647 22.838 141.343 23.066 141.787 23.522C142.231 23.978 142.453 24.698 142.453 25.682V30.668C142.465 30.86 142.579 31.022 142.795 31.154C143.011 31.286 143.311 31.376 143.695 31.424L143.659 32.162C143.227 32.162 142.837 32.096 142.489 31.964C142.153 31.832 141.889 31.646 141.697 31.406C140.569 31.91 139.405 32.162 138.205 32.162ZM138.277 31.388C139.213 31.388 140.149 31.22 141.085 30.884L141.571 30.722V27.284L138.457 27.59C137.833 27.638 137.383 27.812 137.107 28.112C136.843 28.412 136.711 28.856 136.711 29.444C136.711 30.74 137.233 31.388 138.277 31.388ZM148.07 32.198C147.494 32.198 147.044 32.102 146.72 31.91C146.396 31.718 146.162 31.394 146.018 30.938C145.874 30.47 145.802 29.81 145.802 28.958V23.792H144.434V23H145.802V20.138H146.666V23H149.816V23.792H146.666V28.346C146.666 29.174 146.696 29.792 146.756 30.2C146.816 30.596 146.948 30.896 147.152 31.1C147.368 31.304 147.716 31.406 148.196 31.406L149.906 31.262L149.978 32.018C149.138 32.138 148.502 32.198 148.07 32.198ZM158.14 32.162C157.408 32.162 156.562 32.09 155.602 31.946L155.062 31.856L155.134 31.064C156.49 31.268 157.516 31.37 158.212 31.37C159.052 31.37 159.67 31.226 160.066 30.938C160.462 30.65 160.66 30.188 160.66 29.552C160.66 29.096 160.558 28.754 160.354 28.526C160.162 28.286 159.91 28.118 159.598 28.022C159.298 27.926 158.878 27.842 158.338 27.77C158.254 27.746 158.116 27.722 157.924 27.698C157.144 27.566 156.544 27.416 156.124 27.248C155.704 27.08 155.404 26.852 155.224 26.564C155.044 26.276 154.954 25.886 154.954 25.394C154.954 24.446 155.236 23.786 155.8 23.414C156.376 23.042 157.204 22.856 158.284 22.856C159.244 22.856 160.078 22.916 160.786 23.036L161.254 23.126L161.218 23.9C159.994 23.708 159.004 23.612 158.248 23.612C157.408 23.612 156.796 23.75 156.412 24.026C156.04 24.302 155.854 24.716 155.854 25.268C155.854 25.652 155.944 25.946 156.124 26.15C156.304 26.354 156.538 26.504 156.826 26.6C157.126 26.684 157.558 26.774 158.122 26.87C158.206 26.894 158.332 26.918 158.5 26.942C159.292 27.086 159.892 27.242 160.3 27.41C160.72 27.566 161.032 27.8 161.236 28.112C161.452 28.424 161.56 28.868 161.56 29.444C161.56 30.404 161.278 31.1 160.714 31.532C160.162 31.952 159.304 32.162 158.14 32.162ZM167.121 32.162C166.137 32.162 165.375 32.018 164.835 31.73C164.307 31.43 163.935 30.956 163.719 30.308C163.503 29.648 163.395 28.742 163.395 27.59C163.395 26.378 163.509 25.436 163.737 24.764C163.965 24.08 164.343 23.588 164.871 23.288C165.411 22.988 166.161 22.838 167.121 22.838C168.093 22.838 168.843 22.994 169.371 23.306C169.911 23.606 170.289 24.098 170.505 24.782C170.733 25.454 170.847 26.39 170.847 27.59C170.847 28.742 170.739 29.648 170.523 30.308C170.319 30.956 169.947 31.43 169.407 31.73C168.879 32.018 168.117 32.162 167.121 32.162ZM167.157 31.37C167.937 31.37 168.519 31.25 168.903 31.01C169.299 30.77 169.569 30.392 169.713 29.876C169.857 29.348 169.929 28.586 169.929 27.59C169.929 26.534 169.851 25.73 169.695 25.178C169.539 24.614 169.263 24.218 168.867 23.99C168.483 23.75 167.913 23.63 167.157 23.63C166.389 23.63 165.801 23.75 165.393 23.99C164.997 24.218 164.721 24.614 164.565 25.178C164.409 25.73 164.331 26.534 164.331 27.59C164.331 28.574 164.403 29.33 164.547 29.858C164.691 30.386 164.961 30.77 165.357 31.01C165.765 31.25 166.365 31.37 167.157 31.37ZM173.229 23H174.111V23.684C175.035 23.12 176.007 22.838 177.027 22.838C178.167 22.838 178.935 23.156 179.331 23.792C179.715 23.54 180.231 23.318 180.879 23.126C181.527 22.934 182.187 22.838 182.859 22.838C183.579 22.838 184.137 22.982 184.533 23.27C184.929 23.558 185.205 24.02 185.361 24.656C185.517 25.292 185.595 26.174 185.595 27.302V32H184.713V27.32C184.713 26.324 184.659 25.574 184.551 25.07C184.443 24.554 184.245 24.188 183.957 23.972C183.669 23.744 183.237 23.63 182.661 23.63C182.145 23.63 181.635 23.696 181.131 23.828C180.627 23.96 180.255 24.098 180.015 24.242L179.637 24.44C179.841 24.608 179.943 25.568 179.943 27.32V32H179.043V27.356C179.043 26.372 178.989 25.622 178.881 25.106C178.773 24.578 178.575 24.2 178.287 23.972C178.011 23.744 177.597 23.63 177.045 23.63C176.565 23.63 176.079 23.696 175.587 23.828C175.095 23.948 174.723 24.086 174.471 24.242L174.129 24.44V32H173.229V23ZM191.553 32.162C190.209 32.162 189.261 31.808 188.709 31.1C188.169 30.392 187.899 29.27 187.899 27.734C187.899 26.066 188.193 24.836 188.781 24.044C189.381 23.24 190.317 22.838 191.589 22.838C192.765 22.838 193.635 23.186 194.199 23.882C194.763 24.566 195.045 25.64 195.045 27.104L195.027 27.86H188.799C188.787 28.724 188.871 29.414 189.051 29.93C189.231 30.434 189.537 30.806 189.969 31.046C190.413 31.274 191.025 31.388 191.805 31.388C192.129 31.388 192.507 31.382 192.939 31.37C193.383 31.346 193.791 31.316 194.163 31.28L194.703 31.226L194.739 31.964C193.491 32.096 192.429 32.162 191.553 32.162ZM194.145 27.104C194.145 25.856 193.941 24.962 193.533 24.422C193.125 23.87 192.477 23.594 191.589 23.594C190.665 23.594 189.969 23.882 189.501 24.458C189.033 25.022 188.793 25.904 188.781 27.104H194.145ZM200.031 32.198C199.455 32.198 199.005 32.102 198.681 31.91C198.357 31.718 198.123 31.394 197.979 30.938C197.835 30.47 197.763 29.81 197.763 28.958V23.792H196.395V23H197.763V20.138H198.627V23H201.777V23.792H198.627V28.346C198.627 29.174 198.657 29.792 198.717 30.2C198.777 30.596 198.909 30.896 199.113 31.1C199.329 31.304 199.677 31.406 200.157 31.406L201.867 31.262L201.939 32.018C201.099 32.138 200.463 32.198 200.031 32.198ZM203.446 23H204.31V32H203.446V23ZM203.446 19.4H204.31V20.588H203.446V19.4ZM207.067 23H207.949V23.684C208.873 23.12 209.845 22.838 210.865 22.838C212.005 22.838 212.773 23.156 213.169 23.792C213.553 23.54 214.069 23.318 214.717 23.126C215.365 22.934 216.025 22.838 216.697 22.838C217.417 22.838 217.975 22.982 218.371 23.27C218.767 23.558 219.043 24.02 219.199 24.656C219.355 25.292 219.433 26.174 219.433 27.302V32H218.551V27.32C218.551 26.324 218.497 25.574 218.389 25.07C218.281 24.554 218.083 24.188 217.795 23.972C217.507 23.744 217.075 23.63 216.499 23.63C215.983 23.63 215.473 23.696 214.969 23.828C214.465 23.96 214.093 24.098 213.853 24.242L213.475 24.44C213.679 24.608 213.781 25.568 213.781 27.32V32H212.881V27.356C212.881 26.372 212.827 25.622 212.719 25.106C212.611 24.578 212.413 24.2 212.125 23.972C211.849 23.744 211.435 23.63 210.883 23.63C210.403 23.63 209.917 23.696 209.425 23.828C208.933 23.948 208.561 24.086 208.309 24.242L207.967 24.44V32H207.067V23ZM225.391 32.162C224.047 32.162 223.099 31.808 222.547 31.1C222.007 30.392 221.737 29.27 221.737 27.734C221.737 26.066 222.031 24.836 222.619 24.044C223.219 23.24 224.155 22.838 225.427 22.838C226.603 22.838 227.473 23.186 228.037 23.882C228.601 24.566 228.883 25.64 228.883 27.104L228.865 27.86H222.637C222.625 28.724 222.709 29.414 222.889 29.93C223.069 30.434 223.375 30.806 223.807 31.046C224.251 31.274 224.863 31.388 225.643 31.388C225.967 31.388 226.345 31.382 226.777 31.37C227.221 31.346 227.629 31.316 228.001 31.28L228.541 31.226L228.577 31.964C227.329 32.096 226.267 32.162 225.391 32.162ZM227.983 27.104C227.983 25.856 227.779 24.962 227.371 24.422C226.963 23.87 226.315 23.594 225.427 23.594C224.503 23.594 223.807 23.882 223.339 24.458C222.871 25.022 222.631 25.904 222.619 27.104H227.983ZM233.849 32.162C233.117 32.162 232.271 32.09 231.311 31.946L230.771 31.856L230.843 31.064C232.199 31.268 233.225 31.37 233.921 31.37C234.761 31.37 235.379 31.226 235.775 30.938C236.171 30.65 236.369 30.188 236.369 29.552C236.369 29.096 236.267 28.754 236.063 28.526C235.871 28.286 235.619 28.118 235.307 28.022C235.007 27.926 234.587 27.842 234.047 27.77C233.963 27.746 233.825 27.722 233.633 27.698C232.853 27.566 232.253 27.416 231.833 27.248C231.413 27.08 231.113 26.852 230.933 26.564C230.753 26.276 230.663 25.886 230.663 25.394C230.663 24.446 230.945 23.786 231.509 23.414C232.085 23.042 232.913 22.856 233.993 22.856C234.953 22.856 235.787 22.916 236.495 23.036L236.963 23.126L236.927 23.9C235.703 23.708 234.713 23.612 233.957 23.612C233.117 23.612 232.505 23.75 232.121 24.026C231.749 24.302 231.563 24.716 231.563 25.268C231.563 25.652 231.653 25.946 231.833 26.15C232.013 26.354 232.247 26.504 232.535 26.6C232.835 26.684 233.267 26.774 233.831 26.87C233.915 26.894 234.041 26.918 234.209 26.942C235.001 27.086 235.601 27.242 236.009 27.41C236.429 27.566 236.741 27.8 236.945 28.112C237.161 28.424 237.269 28.868 237.269 29.444C237.269 30.404 236.987 31.1 236.423 31.532C235.871 31.952 235.013 32.162 233.849 32.162ZM246.587 36.266C245.651 36.266 244.925 36.17 244.409 35.978C243.905 35.798 243.551 35.516 243.347 35.132C243.155 34.748 243.059 34.226 243.059 33.566C243.059 33.146 243.101 32.816 243.185 32.576C243.281 32.336 243.419 32.132 243.599 31.964C243.779 31.784 244.091 31.526 244.535 31.19C244.391 31.094 244.283 30.944 244.211 30.74C244.139 30.524 244.103 30.296 244.103 30.056C244.103 29.9 244.133 29.732 244.193 29.552C244.265 29.372 244.421 29.048 244.661 28.58C243.665 28.232 243.167 27.326 243.167 25.862C243.167 24.83 243.425 24.068 243.941 23.576C244.457 23.072 245.279 22.82 246.407 22.82C246.971 22.82 247.583 22.898 248.243 23.054L250.799 22.982V23.81H248.945C249.389 24.182 249.611 24.872 249.611 25.88C249.611 26.948 249.347 27.71 248.819 28.166C248.303 28.61 247.463 28.832 246.299 28.832C245.915 28.832 245.597 28.808 245.345 28.76C245.321 28.808 245.297 28.868 245.273 28.94C245.261 29 245.237 29.06 245.201 29.12C245.129 29.3 245.069 29.468 245.021 29.624C244.973 29.768 244.949 29.9 244.949 30.02C244.949 30.368 245.075 30.596 245.327 30.704C245.591 30.812 245.993 30.866 246.533 30.866H247.379C248.111 30.854 248.705 30.908 249.161 31.028C249.617 31.148 249.971 31.394 250.223 31.766C250.475 32.126 250.601 32.654 250.601 33.35C250.601 34.37 250.295 35.108 249.683 35.564C249.083 36.032 248.051 36.266 246.587 36.266ZM246.389 28.094C247.241 28.094 247.841 27.926 248.189 27.59C248.537 27.254 248.711 26.666 248.711 25.826C248.711 24.998 248.537 24.416 248.189 24.08C247.841 23.744 247.253 23.576 246.425 23.576C245.561 23.576 244.949 23.75 244.589 24.098C244.229 24.434 244.049 25.016 244.049 25.844C244.049 26.672 244.223 27.254 244.571 27.59C244.931 27.926 245.537 28.094 246.389 28.094ZM246.695 35.51C247.451 35.51 248.045 35.438 248.477 35.294C248.909 35.162 249.215 34.934 249.395 34.61C249.587 34.298 249.683 33.872 249.683 33.332C249.683 32.876 249.617 32.528 249.485 32.288C249.365 32.06 249.131 31.898 248.783 31.802C248.447 31.694 247.937 31.646 247.253 31.658L245.165 31.586C244.661 31.934 244.331 32.222 244.175 32.45C244.019 32.69 243.941 33.038 243.941 33.494C243.941 34.01 244.025 34.412 244.193 34.7C244.361 34.988 244.637 35.192 245.021 35.312C245.417 35.444 245.975 35.51 246.695 35.51ZM255.801 32.162C254.457 32.162 253.509 31.808 252.957 31.1C252.417 30.392 252.147 29.27 252.147 27.734C252.147 26.066 252.441 24.836 253.029 24.044C253.629 23.24 254.565 22.838 255.837 22.838C257.013 22.838 257.883 23.186 258.447 23.882C259.011 24.566 259.293 25.64 259.293 27.104L259.275 27.86H253.047C253.035 28.724 253.119 29.414 253.299 29.93C253.479 30.434 253.785 30.806 254.217 31.046C254.661 31.274 255.273 31.388 256.053 31.388C256.377 31.388 256.755 31.382 257.187 31.37C257.631 31.346 258.039 31.316 258.411 31.28L258.951 31.226L258.987 31.964C257.739 32.096 256.677 32.162 255.801 32.162ZM258.393 27.104C258.393 25.856 258.189 24.962 257.781 24.422C257.373 23.87 256.725 23.594 255.837 23.594C254.913 23.594 254.217 23.882 253.749 24.458C253.281 25.022 253.041 25.904 253.029 27.104H258.393ZM264.279 32.198C263.703 32.198 263.253 32.102 262.929 31.91C262.605 31.718 262.371 31.394 262.227 30.938C262.083 30.47 262.011 29.81 262.011 28.958V23.792H260.643V23H262.011V20.138H262.875V23H266.025V23.792H262.875V28.346C262.875 29.174 262.905 29.792 262.965 30.2C263.025 30.596 263.157 30.896 263.361 31.1C263.577 31.304 263.925 31.406 264.405 31.406L266.115 31.262L266.187 32.018C265.347 32.138 264.711 32.198 264.279 32.198ZM270.394 32.162C269.662 32.162 268.816 32.09 267.856 31.946L267.316 31.856L267.388 31.064C268.744 31.268 269.77 31.37 270.466 31.37C271.306 31.37 271.924 31.226 272.32 30.938C272.716 30.65 272.914 30.188 272.914 29.552C272.914 29.096 272.812 28.754 272.608 28.526C272.416 28.286 272.164 28.118 271.852 28.022C271.552 27.926 271.132 27.842 270.592 27.77C270.508 27.746 270.37 27.722 270.178 27.698C269.398 27.566 268.798 27.416 268.378 27.248C267.958 27.08 267.658 26.852 267.478 26.564C267.298 26.276 267.208 25.886 267.208 25.394C267.208 24.446 267.49 23.786 268.054 23.414C268.63 23.042 269.458 22.856 270.538 22.856C271.498 22.856 272.332 22.916 273.04 23.036L273.508 23.126L273.472 23.9C272.248 23.708 271.258 23.612 270.502 23.612C269.662 23.612 269.05 23.75 268.666 24.026C268.294 24.302 268.108 24.716 268.108 25.268C268.108 25.652 268.198 25.946 268.378 26.15C268.558 26.354 268.792 26.504 269.08 26.6C269.38 26.684 269.812 26.774 270.376 26.87C270.46 26.894 270.586 26.918 270.754 26.942C271.546 27.086 272.146 27.242 272.554 27.41C272.974 27.566 273.286 27.8 273.49 28.112C273.706 28.424 273.814 28.868 273.814 29.444C273.814 30.404 273.532 31.1 272.968 31.532C272.416 31.952 271.558 32.162 270.394 32.162ZM8.52792 50.162C7.60392 50.162 6.88392 50.006 6.36792 49.694C5.85192 49.382 5.48592 48.89 5.26992 48.218C5.05392 47.546 4.94592 46.64 4.94592 45.5C4.94592 44.636 5.01192 43.88 5.14392 43.232C5.27592 42.572 5.58792 42.002 6.07992 41.522C6.57192 41.042 7.31592 40.802 8.31192 40.802C8.68392 40.802 9.04992 40.82 9.40992 40.856C9.76992 40.88 10.2739 40.946 10.9219 41.054L10.8679 41.792C9.91992 41.684 9.18792 41.63 8.67192 41.63C7.93992 41.63 7.36992 41.75 6.96192 41.99C6.56592 42.218 6.28392 42.614 6.11592 43.178C5.94792 43.73 5.86392 44.522 5.86392 45.554C5.86392 46.526 5.94192 47.282 6.09792 47.822C6.26592 48.362 6.55392 48.758 6.96192 49.01C7.38192 49.25 7.98192 49.37 8.76192 49.37L10.9039 49.208L10.9399 49.964C9.84792 50.096 9.04392 50.162 8.52792 50.162ZM14.9295 50.162C14.1375 50.162 13.5315 49.934 13.1115 49.478C12.7035 49.022 12.4995 48.38 12.4995 47.552C12.4995 46.724 12.7035 46.1 13.1115 45.68C13.5195 45.248 14.1735 44.978 15.0735 44.87L18.2955 44.546V43.682C18.2955 42.986 18.1455 42.476 17.8455 42.152C17.5575 41.816 17.1555 41.648 16.6395 41.648C16.1115 41.648 15.6195 41.666 15.1635 41.702C14.7075 41.738 13.9935 41.81 13.0215 41.918L12.9675 41.18C14.2635 40.952 15.4155 40.838 16.4235 40.838C17.3715 40.838 18.0675 41.066 18.5115 41.522C18.9555 41.978 19.1775 42.698 19.1775 43.682V48.668C19.1895 48.86 19.3035 49.022 19.5195 49.154C19.7355 49.286 20.0355 49.376 20.4195 49.424L20.3835 50.162C19.9515 50.162 19.5615 50.096 19.2135 49.964C18.8775 49.832 18.6135 49.646 18.4215 49.406C17.2935 49.91 16.1295 50.162 14.9295 50.162ZM15.0015 49.388C15.9375 49.388 16.8735 49.22 17.8095 48.884L18.2955 48.722V45.284L15.1815 45.59C14.5575 45.638 14.1075 45.812 13.8315 46.112C13.5675 46.412 13.4355 46.856 13.4355 47.444C13.4355 48.74 13.9575 49.388 15.0015 49.388ZM22.1127 36.932H23.0127V50H22.1127V36.932ZM25.9623 36.932H26.8623V50H25.9623V36.932ZM32.8749 50.162C31.5309 50.162 30.5829 49.808 30.0309 49.1C29.4909 48.392 29.2209 47.27 29.2209 45.734C29.2209 44.066 29.5149 42.836 30.1029 42.044C30.7029 41.24 31.6389 40.838 32.9109 40.838C34.0869 40.838 34.9569 41.186 35.5209 41.882C36.0849 42.566 36.3669 43.64 36.3669 45.104L36.3489 45.86H30.1209C30.1089 46.724 30.1929 47.414 30.3729 47.93C30.5529 48.434 30.8589 48.806 31.2909 49.046C31.7349 49.274 32.3469 49.388 33.1269 49.388C33.4509 49.388 33.8289 49.382 34.2609 49.37C34.7049 49.346 35.1129 49.316 35.4849 49.28L36.0249 49.226L36.0609 49.964C34.8129 50.096 33.7509 50.162 32.8749 50.162ZM35.4669 45.104C35.4669 43.856 35.2629 42.962 34.8549 42.422C34.4469 41.87 33.7989 41.594 32.9109 41.594C31.9869 41.594 31.2909 41.882 30.8229 42.458C30.3549 43.022 30.1149 43.904 30.1029 45.104H35.4669ZM41.3516 50.162C40.2476 50.162 39.4556 49.802 38.9756 49.082C38.4956 48.35 38.2556 47.216 38.2556 45.68C38.2556 44.516 38.3816 43.586 38.6336 42.89C38.8976 42.182 39.3116 41.666 39.8756 41.342C40.4516 41.006 41.2196 40.838 42.1796 40.838C42.9356 40.838 43.6676 40.91 44.3756 41.054V36.932H45.2396V50H44.3576V49.28C43.4216 49.868 42.4196 50.162 41.3516 50.162ZM41.4776 49.37C41.9096 49.37 42.3656 49.304 42.8456 49.172C43.3256 49.028 43.6976 48.884 43.9616 48.74L44.3756 48.542V41.846C43.5836 41.69 42.8396 41.612 42.1436 41.612C41.3876 41.612 40.7936 41.75 40.3616 42.026C39.9416 42.302 39.6416 42.722 39.4616 43.286C39.2816 43.85 39.1916 44.606 39.1916 45.554C39.1916 46.826 39.3596 47.78 39.6956 48.416C40.0436 49.052 40.6376 49.37 41.4776 49.37ZM54.7303 50.198C54.1543 50.198 53.7043 50.102 53.3803 49.91C53.0563 49.718 52.8223 49.394 52.6783 48.938C52.5343 48.47 52.4623 47.81 52.4623 46.958V41.792H51.0943V41H52.4623V38.138H53.3263V41H56.4763V41.792H53.3263V46.346C53.3263 47.174 53.3563 47.792 53.4163 48.2C53.4763 48.596 53.6083 48.896 53.8123 49.1C54.0283 49.304 54.3763 49.406 54.8563 49.406L56.5663 49.262L56.6383 50.018C55.7983 50.138 55.1623 50.198 54.7303 50.198ZM58.1453 41H59.0273V42.332C60.0473 41.588 61.2053 41.078 62.5013 40.802V41.72C62.0093 41.816 61.4573 41.984 60.8453 42.224C60.2453 42.464 59.8073 42.68 59.5313 42.872L59.0453 43.142V50H58.1453V41ZM66.0466 50.162C65.2546 50.162 64.6486 49.934 64.2286 49.478C63.8206 49.022 63.6166 48.38 63.6166 47.552C63.6166 46.724 63.8206 46.1 64.2286 45.68C64.6366 45.248 65.2906 44.978 66.1906 44.87L69.4126 44.546V43.682C69.4126 42.986 69.2626 42.476 68.9626 42.152C68.6746 41.816 68.2726 41.648 67.7566 41.648C67.2286 41.648 66.7366 41.666 66.2806 41.702C65.8246 41.738 65.1106 41.81 64.1386 41.918L64.0846 41.18C65.3806 40.952 66.5326 40.838 67.5406 40.838C68.4886 40.838 69.1846 41.066 69.6286 41.522C70.0726 41.978 70.2946 42.698 70.2946 43.682V48.668C70.3066 48.86 70.4206 49.022 70.6366 49.154C70.8526 49.286 71.1526 49.376 71.5366 49.424L71.5006 50.162C71.0686 50.162 70.6786 50.096 70.3306 49.964C69.9946 49.832 69.7306 49.646 69.5386 49.406C68.4106 49.91 67.2466 50.162 66.0466 50.162ZM66.1186 49.388C67.0546 49.388 67.9906 49.22 68.9266 48.884L69.4126 48.722V45.284L66.2986 45.59C65.6746 45.638 65.2246 45.812 64.9486 46.112C64.6846 46.412 64.5526 46.856 64.5526 47.444C64.5526 48.74 65.0746 49.388 66.1186 49.388ZM73.1219 41H74.0039V41.684C74.5799 41.372 75.1139 41.156 75.6059 41.036C76.0979 40.904 76.6079 40.838 77.1359 40.838C77.9039 40.838 78.4919 40.976 78.8999 41.252C79.3199 41.516 79.6079 41.966 79.7639 42.602C79.9319 43.226 80.0159 44.126 80.0159 45.302V50H79.1519V45.32C79.1519 44.348 79.0919 43.604 78.9719 43.088C78.8639 42.572 78.6659 42.2 78.3779 41.972C78.0899 41.744 77.6639 41.63 77.0999 41.63C76.6079 41.63 76.1039 41.696 75.5879 41.828C75.0719 41.96 74.6819 42.098 74.4179 42.242L74.0219 42.44V50H73.1219V41ZM85.9068 50.162C84.9828 50.162 84.2628 50.006 83.7468 49.694C83.2308 49.382 82.8648 48.89 82.6488 48.218C82.4328 47.546 82.3248 46.64 82.3248 45.5C82.3248 44.636 82.3908 43.88 82.5228 43.232C82.6548 42.572 82.9668 42.002 83.4588 41.522C83.9508 41.042 84.6948 40.802 85.6908 40.802C86.0628 40.802 86.4288 40.82 86.7888 40.856C87.1488 40.88 87.6528 40.946 88.3008 41.054L88.2468 41.792C87.2988 41.684 86.5668 41.63 86.0508 41.63C85.3188 41.63 84.7488 41.75 84.3408 41.99C83.9448 42.218 83.6628 42.614 83.4948 43.178C83.3268 43.73 83.2428 44.522 83.2428 45.554C83.2428 46.526 83.3208 47.282 83.4768 47.822C83.6448 48.362 83.9328 48.758 84.3408 49.01C84.7608 49.25 85.3608 49.37 86.1408 49.37L88.2828 49.208L88.3188 49.964C87.2268 50.096 86.4228 50.162 85.9068 50.162ZM93.6073 50.162C92.2633 50.162 91.3153 49.808 90.7633 49.1C90.2233 48.392 89.9533 47.27 89.9533 45.734C89.9533 44.066 90.2473 42.836 90.8353 42.044C91.4353 41.24 92.3713 40.838 93.6433 40.838C94.8193 40.838 95.6893 41.186 96.2533 41.882C96.8173 42.566 97.0993 43.64 97.0993 45.104L97.0813 45.86H90.8533C90.8413 46.724 90.9253 47.414 91.1053 47.93C91.2853 48.434 91.5913 48.806 92.0233 49.046C92.4673 49.274 93.0793 49.388 93.8593 49.388C94.1833 49.388 94.5613 49.382 94.9933 49.37C95.4373 49.346 95.8453 49.316 96.2173 49.28L96.7573 49.226L96.7933 49.964C95.5453 50.096 94.4833 50.162 93.6073 50.162ZM96.1993 45.104C96.1993 43.856 95.9953 42.962 95.5873 42.422C95.1793 41.87 94.5313 41.594 93.6433 41.594C92.7193 41.594 92.0233 41.882 91.5553 42.458C91.0873 43.022 90.8473 43.904 90.8353 45.104H96.1993ZM99.51 48.308H100.5L99.474 52.214H98.718L99.51 48.308ZM107.03 41H107.912V41.72C108.884 41.132 109.88 40.838 110.9 40.838C112.004 40.838 112.796 41.198 113.276 41.918C113.768 42.638 114.014 43.796 114.014 45.392C114.014 46.532 113.888 47.45 113.636 48.146C113.384 48.83 112.97 49.34 112.394 49.676C111.818 50 111.044 50.162 110.072 50.162C109.34 50.162 108.626 50.09 107.93 49.946V54.086H107.03V41ZM110.198 49.388C111.254 49.388 112.004 49.082 112.448 48.47C112.892 47.846 113.114 46.844 113.114 45.464C113.114 44.096 112.922 43.118 112.538 42.53C112.166 41.93 111.608 41.63 110.864 41.63C110.456 41.63 110.006 41.702 109.514 41.846C109.034 41.978 108.638 42.122 108.326 42.278L107.93 42.512V49.154C108.986 49.31 109.742 49.388 110.198 49.388ZM116.382 41H117.264V42.332C118.284 41.588 119.442 41.078 120.738 40.802V41.72C120.246 41.816 119.694 41.984 119.082 42.224C118.482 42.464 118.044 42.68 117.768 42.872L117.282 43.142V50H116.382V41ZM125.531 50.162C124.547 50.162 123.785 50.018 123.245 49.73C122.717 49.43 122.345 48.956 122.129 48.308C121.913 47.648 121.805 46.742 121.805 45.59C121.805 44.378 121.919 43.436 122.147 42.764C122.375 42.08 122.753 41.588 123.281 41.288C123.821 40.988 124.571 40.838 125.531 40.838C126.503 40.838 127.253 40.994 127.781 41.306C128.321 41.606 128.699 42.098 128.915 42.782C129.143 43.454 129.257 44.39 129.257 45.59C129.257 46.742 129.149 47.648 128.933 48.308C128.729 48.956 128.357 49.43 127.817 49.73C127.289 50.018 126.527 50.162 125.531 50.162ZM125.567 49.37C126.347 49.37 126.929 49.25 127.313 49.01C127.709 48.77 127.979 48.392 128.123 47.876C128.267 47.348 128.339 46.586 128.339 45.59C128.339 44.534 128.261 43.73 128.105 43.178C127.949 42.614 127.673 42.218 127.277 41.99C126.893 41.75 126.323 41.63 125.567 41.63C124.799 41.63 124.211 41.75 123.803 41.99C123.407 42.218 123.131 42.614 122.975 43.178C122.819 43.73 122.741 44.534 122.741 45.59C122.741 46.574 122.813 47.33 122.957 47.858C123.101 48.386 123.371 48.77 123.767 49.01C124.175 49.25 124.775 49.37 125.567 49.37ZM134.807 54.266C133.871 54.266 133.145 54.17 132.629 53.978C132.125 53.798 131.771 53.516 131.567 53.132C131.375 52.748 131.279 52.226 131.279 51.566C131.279 51.146 131.321 50.816 131.405 50.576C131.501 50.336 131.639 50.132 131.819 49.964C131.999 49.784 132.311 49.526 132.755 49.19C132.611 49.094 132.503 48.944 132.431 48.74C132.359 48.524 132.323 48.296 132.323 48.056C132.323 47.9 132.353 47.732 132.413 47.552C132.485 47.372 132.641 47.048 132.881 46.58C131.885 46.232 131.387 45.326 131.387 43.862C131.387 42.83 131.645 42.068 132.161 41.576C132.677 41.072 133.499 40.82 134.627 40.82C135.191 40.82 135.803 40.898 136.463 41.054L139.019 40.982V41.81H137.165C137.609 42.182 137.831 42.872 137.831 43.88C137.831 44.948 137.567 45.71 137.039 46.166C136.523 46.61 135.683 46.832 134.519 46.832C134.135 46.832 133.817 46.808 133.565 46.76C133.541 46.808 133.517 46.868 133.493 46.94C133.481 47 133.457 47.06 133.421 47.12C133.349 47.3 133.289 47.468 133.241 47.624C133.193 47.768 133.169 47.9 133.169 48.02C133.169 48.368 133.295 48.596 133.547 48.704C133.811 48.812 134.213 48.866 134.753 48.866H135.599C136.331 48.854 136.925 48.908 137.381 49.028C137.837 49.148 138.191 49.394 138.443 49.766C138.695 50.126 138.821 50.654 138.821 51.35C138.821 52.37 138.515 53.108 137.903 53.564C137.303 54.032 136.271 54.266 134.807 54.266ZM134.609 46.094C135.461 46.094 136.061 45.926 136.409 45.59C136.757 45.254 136.931 44.666 136.931 43.826C136.931 42.998 136.757 42.416 136.409 42.08C136.061 41.744 135.473 41.576 134.645 41.576C133.781 41.576 133.169 41.75 132.809 42.098C132.449 42.434 132.269 43.016 132.269 43.844C132.269 44.672 132.443 45.254 132.791 45.59C133.151 45.926 133.757 46.094 134.609 46.094ZM134.915 53.51C135.671 53.51 136.265 53.438 136.697 53.294C137.129 53.162 137.435 52.934 137.615 52.61C137.807 52.298 137.903 51.872 137.903 51.332C137.903 50.876 137.837 50.528 137.705 50.288C137.585 50.06 137.351 49.898 137.003 49.802C136.667 49.694 136.157 49.646 135.473 49.658L133.385 49.586C132.881 49.934 132.551 50.222 132.395 50.45C132.239 50.69 132.161 51.038 132.161 51.494C132.161 52.01 132.245 52.412 132.413 52.7C132.581 52.988 132.857 53.192 133.241 53.312C133.637 53.444 134.195 53.51 134.915 53.51ZM140.727 41H141.609V42.332C142.629 41.588 143.787 41.078 145.083 40.802V41.72C144.591 41.816 144.039 41.984 143.427 42.224C142.827 42.464 142.389 42.68 142.113 42.872L141.627 43.142V50H140.727V41ZM149.805 50.162C148.461 50.162 147.513 49.808 146.961 49.1C146.421 48.392 146.151 47.27 146.151 45.734C146.151 44.066 146.445 42.836 147.033 42.044C147.633 41.24 148.569 40.838 149.841 40.838C151.017 40.838 151.887 41.186 152.451 41.882C153.015 42.566 153.297 43.64 153.297 45.104L153.279 45.86H147.051C147.039 46.724 147.123 47.414 147.303 47.93C147.483 48.434 147.789 48.806 148.221 49.046C148.665 49.274 149.277 49.388 150.057 49.388C150.381 49.388 150.759 49.382 151.191 49.37C151.635 49.346 152.043 49.316 152.415 49.28L152.955 49.226L152.991 49.964C151.743 50.096 150.681 50.162 149.805 50.162ZM152.397 45.104C152.397 43.856 152.193 42.962 151.785 42.422C151.377 41.87 150.729 41.594 149.841 41.594C148.917 41.594 148.221 41.882 147.753 42.458C147.285 43.022 147.045 43.904 147.033 45.104H152.397ZM158.263 50.162C157.531 50.162 156.685 50.09 155.725 49.946L155.185 49.856L155.257 49.064C156.613 49.268 157.639 49.37 158.335 49.37C159.175 49.37 159.793 49.226 160.189 48.938C160.585 48.65 160.783 48.188 160.783 47.552C160.783 47.096 160.681 46.754 160.477 46.526C160.285 46.286 160.033 46.118 159.721 46.022C159.421 45.926 159.001 45.842 158.461 45.77C158.377 45.746 158.239 45.722 158.047 45.698C157.267 45.566 156.667 45.416 156.247 45.248C155.827 45.08 155.527 44.852 155.347 44.564C155.167 44.276 155.077 43.886 155.077 43.394C155.077 42.446 155.359 41.786 155.923 41.414C156.499 41.042 157.327 40.856 158.407 40.856C159.367 40.856 160.201 40.916 160.909 41.036L161.377 41.126L161.341 41.9C160.117 41.708 159.127 41.612 158.371 41.612C157.531 41.612 156.919 41.75 156.535 42.026C156.163 42.302 155.977 42.716 155.977 43.268C155.977 43.652 156.067 43.946 156.247 44.15C156.427 44.354 156.661 44.504 156.949 44.6C157.249 44.684 157.681 44.774 158.245 44.87C158.329 44.894 158.455 44.918 158.623 44.942C159.415 45.086 160.015 45.242 160.423 45.41C160.843 45.566 161.155 45.8 161.359 46.112C161.575 46.424 161.683 46.868 161.683 47.444C161.683 48.404 161.401 49.1 160.837 49.532C160.285 49.952 159.427 50.162 158.263 50.162ZM166.578 50.162C165.846 50.162 165 50.09 164.04 49.946L163.5 49.856L163.572 49.064C164.928 49.268 165.954 49.37 166.65 49.37C167.49 49.37 168.108 49.226 168.504 48.938C168.9 48.65 169.098 48.188 169.098 47.552C169.098 47.096 168.996 46.754 168.792 46.526C168.6 46.286 168.348 46.118 168.036 46.022C167.736 45.926 167.316 45.842 166.776 45.77C166.692 45.746 166.554 45.722 166.362 45.698C165.582 45.566 164.982 45.416 164.562 45.248C164.142 45.08 163.842 44.852 163.662 44.564C163.482 44.276 163.392 43.886 163.392 43.394C163.392 42.446 163.674 41.786 164.238 41.414C164.814 41.042 165.642 40.856 166.722 40.856C167.682 40.856 168.516 40.916 169.224 41.036L169.692 41.126L169.656 41.9C168.432 41.708 167.442 41.612 166.686 41.612C165.846 41.612 165.234 41.75 164.85 42.026C164.478 42.302 164.292 42.716 164.292 43.268C164.292 43.652 164.382 43.946 164.562 44.15C164.742 44.354 164.976 44.504 165.264 44.6C165.564 44.684 165.996 44.774 166.56 44.87C166.644 44.894 166.77 44.918 166.938 44.942C167.73 45.086 168.33 45.242 168.738 45.41C169.158 45.566 169.47 45.8 169.674 46.112C169.89 46.424 169.998 46.868 169.998 47.444C169.998 48.404 169.716 49.1 169.152 49.532C168.6 49.952 167.742 50.162 166.578 50.162ZM172.192 41H173.056V50H172.192V41ZM172.192 37.4H173.056V38.588H172.192V37.4ZM174.967 41H175.939L178.333 49.208H179.071L181.537 41H182.473L179.773 50H177.667L174.967 41ZM187.457 50.162C186.113 50.162 185.165 49.808 184.613 49.1C184.073 48.392 183.803 47.27 183.803 45.734C183.803 44.066 184.097 42.836 184.685 42.044C185.285 41.24 186.221 40.838 187.493 40.838C188.669 40.838 189.539 41.186 190.103 41.882C190.667 42.566 190.949 43.64 190.949 45.104L190.931 45.86H184.703C184.691 46.724 184.775 47.414 184.955 47.93C185.135 48.434 185.441 48.806 185.873 49.046C186.317 49.274 186.929 49.388 187.709 49.388C188.033 49.388 188.411 49.382 188.843 49.37C189.287 49.346 189.695 49.316 190.067 49.28L190.607 49.226L190.643 49.964C189.395 50.096 188.333 50.162 187.457 50.162ZM190.049 45.104C190.049 43.856 189.845 42.962 189.437 42.422C189.029 41.87 188.381 41.594 187.493 41.594C186.569 41.594 185.873 41.882 185.405 42.458C184.937 43.022 184.697 43.904 184.685 45.104H190.049ZM193.36 48.308H194.35L193.324 52.214H192.568L193.36 48.308ZM204.246 50.162C203.262 50.162 202.5 50.018 201.96 49.73C201.432 49.43 201.06 48.956 200.844 48.308C200.628 47.648 200.52 46.742 200.52 45.59C200.52 44.378 200.634 43.436 200.862 42.764C201.09 42.08 201.468 41.588 201.996 41.288C202.536 40.988 203.286 40.838 204.246 40.838C205.218 40.838 205.968 40.994 206.496 41.306C207.036 41.606 207.414 42.098 207.63 42.782C207.858 43.454 207.972 44.39 207.972 45.59C207.972 46.742 207.864 47.648 207.648 48.308C207.444 48.956 207.072 49.43 206.532 49.73C206.004 50.018 205.242 50.162 204.246 50.162ZM204.282 49.37C205.062 49.37 205.644 49.25 206.028 49.01C206.424 48.77 206.694 48.392 206.838 47.876C206.982 47.348 207.054 46.586 207.054 45.59C207.054 44.534 206.976 43.73 206.82 43.178C206.664 42.614 206.388 42.218 205.992 41.99C205.608 41.75 205.038 41.63 204.282 41.63C203.514 41.63 202.926 41.75 202.518 41.99C202.122 42.218 201.846 42.614 201.69 43.178C201.534 43.73 201.456 44.534 201.456 45.59C201.456 46.574 201.528 47.33 201.672 47.858C201.816 48.386 202.086 48.77 202.482 49.01C202.89 49.25 203.49 49.37 204.282 49.37ZM210.354 41H211.236V42.332C212.256 41.588 213.414 41.078 214.71 40.802V41.72C214.218 41.816 213.666 41.984 213.054 42.224C212.454 42.464 212.016 42.68 211.74 42.872L211.254 43.142V50H210.354V41ZM222.211 50.162C221.419 50.162 220.813 49.934 220.393 49.478C219.985 49.022 219.781 48.38 219.781 47.552C219.781 46.724 219.985 46.1 220.393 45.68C220.801 45.248 221.455 44.978 222.355 44.87L225.577 44.546V43.682C225.577 42.986 225.427 42.476 225.127 42.152C224.839 41.816 224.437 41.648 223.921 41.648C223.393 41.648 222.901 41.666 222.445 41.702C221.989 41.738 221.275 41.81 220.303 41.918L220.249 41.18C221.545 40.952 222.697 40.838 223.705 40.838C224.653 40.838 225.349 41.066 225.793 41.522C226.237 41.978 226.459 42.698 226.459 43.682V48.668C226.471 48.86 226.585 49.022 226.801 49.154C227.017 49.286 227.317 49.376 227.701 49.424L227.665 50.162C227.233 50.162 226.843 50.096 226.495 49.964C226.159 49.832 225.895 49.646 225.703 49.406C224.575 49.91 223.411 50.162 222.211 50.162ZM222.283 49.388C223.219 49.388 224.155 49.22 225.091 48.884L225.577 48.722V45.284L222.463 45.59C221.839 45.638 221.389 45.812 221.113 46.112C220.849 46.412 220.717 46.856 220.717 47.444C220.717 48.74 221.239 49.388 222.283 49.388ZM229.286 41H230.168V41.684C231.092 41.12 232.064 40.838 233.084 40.838C234.224 40.838 234.992 41.156 235.388 41.792C235.772 41.54 236.288 41.318 236.936 41.126C237.584 40.934 238.244 40.838 238.916 40.838C239.636 40.838 240.194 40.982 240.59 41.27C240.986 41.558 241.262 42.02 241.418 42.656C241.574 43.292 241.652 44.174 241.652 45.302V50H240.77V45.32C240.77 44.324 240.716 43.574 240.608 43.07C240.5 42.554 240.302 42.188 240.014 41.972C239.726 41.744 239.294 41.63 238.718 41.63C238.202 41.63 237.692 41.696 237.188 41.828C236.684 41.96 236.312 42.098 236.072 42.242L235.694 42.44C235.898 42.608 236 43.568 236 45.32V50H235.1V45.356C235.1 44.372 235.046 43.622 234.938 43.106C234.83 42.578 234.632 42.2 234.344 41.972C234.068 41.744 233.654 41.63 233.102 41.63C232.622 41.63 232.136 41.696 231.644 41.828C231.152 41.948 230.78 42.086 230.528 42.242L230.186 42.44V50H229.286V41ZM246.889 50.144C246.157 50.144 245.443 50.108 244.747 50.036L244.315 49.982V36.932H245.179V41.522C246.163 41.066 247.165 40.838 248.185 40.838C248.965 40.838 249.577 40.988 250.021 41.288C250.465 41.588 250.783 42.068 250.975 42.728C251.167 43.388 251.263 44.288 251.263 45.428C251.263 46.688 251.137 47.654 250.885 48.326C250.633 48.986 250.195 49.454 249.571 49.73C248.959 50.006 248.065 50.144 246.889 50.144ZM247.159 49.37C248.035 49.37 248.701 49.238 249.157 48.974C249.613 48.71 249.925 48.296 250.093 47.732C250.273 47.168 250.363 46.382 250.363 45.374C250.363 44.426 250.291 43.682 250.147 43.142C250.003 42.602 249.763 42.218 249.427 41.99C249.091 41.75 248.617 41.63 248.005 41.63C247.237 41.63 246.295 41.846 245.179 42.278V49.28C246.163 49.34 246.823 49.37 247.159 49.37ZM253.632 41H254.496V50H253.632V41ZM253.632 37.4H254.496V38.588H253.632V37.4ZM260.424 50.162C259.08 50.162 258.132 49.808 257.58 49.1C257.04 48.392 256.77 47.27 256.77 45.734C256.77 44.066 257.064 42.836 257.652 42.044C258.252 41.24 259.188 40.838 260.46 40.838C261.636 40.838 262.506 41.186 263.07 41.882C263.634 42.566 263.916 43.64 263.916 45.104L263.898 45.86H257.67C257.658 46.724 257.742 47.414 257.922 47.93C258.102 48.434 258.408 48.806 258.84 49.046C259.284 49.274 259.896 49.388 260.676 49.388C261 49.388 261.378 49.382 261.81 49.37C262.254 49.346 262.662 49.316 263.034 49.28L263.574 49.226L263.61 49.964C262.362 50.096 261.3 50.162 260.424 50.162ZM263.016 45.104C263.016 43.856 262.812 42.962 262.404 42.422C261.996 41.87 261.348 41.594 260.46 41.594C259.536 41.594 258.84 41.882 258.372 42.458C257.904 43.022 257.664 43.904 257.652 45.104H263.016ZM266.182 41H267.064V41.684C267.64 41.372 268.174 41.156 268.666 41.036C269.158 40.904 269.668 40.838 270.196 40.838C270.964 40.838 271.552 40.976 271.96 41.252C272.38 41.516 272.668 41.966 272.824 42.602C272.992 43.226 273.076 44.126 273.076 45.302V50H272.212V45.32C272.212 44.348 272.152 43.604 272.032 43.088C271.924 42.572 271.726 42.2 271.438 41.972C271.15 41.744 270.724 41.63 270.16 41.63C269.668 41.63 269.164 41.696 268.648 41.828C268.132 41.96 267.742 42.098 267.478 42.242L267.082 42.44V50H266.182V41ZM278.447 50.198C277.871 50.198 277.421 50.102 277.097 49.91C276.773 49.718 276.539 49.394 276.395 48.938C276.251 48.47 276.179 47.81 276.179 46.958V41.792H274.811V41H276.179V38.138H277.043V41H280.193V41.792H277.043V46.346C277.043 47.174 277.073 47.792 277.133 48.2C277.193 48.596 277.325 48.896 277.529 49.1C277.745 49.304 278.093 49.406 278.573 49.406L280.283 49.262L280.355 50.018C279.515 50.138 278.879 50.198 278.447 50.198ZM281.79 48.362H282.78V50H281.79V48.362Z" fill="#BDBDBD"/>
</svg>
