<svg width="28" height="28" viewBox="0 0 28 28" fill="none" xmlns="http://www.w3.org/2000/svg">
<g opacity="0.2">
<path d="M22.1566 12.436C17.7118 9.7964 10.3803 9.55369 6.13719 10.8415C5.45579 11.0483 4.73521 10.6635 4.52882 9.9823C4.32229 9.30045 4.70653 8.5804 5.38844 8.37326C10.2592 6.89481 18.3561 7.18032 23.473 10.2178C24.0859 10.5817 24.2869 11.3732 23.9237 11.985C23.5601 12.5978 22.768 12.7999 22.1566 12.436V12.436ZM22.011 16.3457C21.6992 16.8517 21.0376 17.0104 20.5322 16.6997C16.8266 14.4219 11.1761 13.762 6.79215 15.0928C6.22363 15.2646 5.62314 14.944 5.45045 14.3766C5.27916 13.8081 5.59986 13.2087 6.16735 13.0358C11.1754 11.5161 17.4013 12.2522 21.6574 14.8677C22.1627 15.1789 22.3217 15.8408 22.011 16.3457ZM20.3238 20.1004C20.076 20.5067 19.5469 20.634 19.142 20.3863C15.904 18.4073 11.8284 17.9604 7.02864 19.0567C6.56612 19.1628 6.10515 18.8729 5.99967 18.4104C5.89373 17.9481 6.18247 17.4871 6.64601 17.3815C11.8985 16.1807 16.4042 16.6975 20.0386 18.9184C20.4438 19.1659 20.5714 19.6953 20.3238 20.1004ZM14 0.21185C6.38469 0.21185 0.21106 6.38535 0.21106 14.0006C0.21106 21.6167 6.38469 27.7897 14 27.7897C21.6155 27.7897 27.7889 21.6167 27.7889 14.0006C27.7889 6.38535 21.6155 0.21185 14 0.21185Z" fill="#1ED760"/>
</g>
</svg>
