<svg width="235" height="31" viewBox="0 0 235 31" fill="none" xmlns="http://www.w3.org/2000/svg">
<g filter="url(#filter0_d)">
<path d="M2.16 21.27H3.81V24H2.16V21.27ZM13.8666 24.27C12.2266 24.27 10.9566 24.03 10.0566 23.55C9.17656 23.05 8.55656 22.26 8.19656 21.18C7.83656 20.08 7.65656 18.57 7.65656 16.65C7.65656 14.63 7.84656 13.06 8.22656 11.94C8.60656 10.8 9.23656 9.98 10.1166 9.48C11.0166 8.98 12.2666 8.73 13.8666 8.73C15.4866 8.73 16.7366 8.99 17.6166 9.51C18.5166 10.01 19.1466 10.83 19.5066 11.97C19.8866 13.09 20.0766 14.65 20.0766 16.65C20.0766 18.57 19.8966 20.08 19.5366 21.18C19.1966 22.26 18.5766 23.05 17.6766 23.55C16.7966 24.03 15.5266 24.27 13.8666 24.27ZM13.9266 22.95C15.2266 22.95 16.1966 22.75 16.8366 22.35C17.4966 21.95 17.9466 21.32 18.1866 20.46C18.4266 19.58 18.5466 18.31 18.5466 16.65C18.5466 14.89 18.4166 13.55 18.1566 12.63C17.8966 11.69 17.4366 11.03 16.7766 10.65C16.1366 10.25 15.1866 10.05 13.9266 10.05C12.6466 10.05 11.6666 10.25 10.9866 10.65C10.3266 11.03 9.86656 11.69 9.60656 12.63C9.34656 13.55 9.21656 14.89 9.21656 16.65C9.21656 18.29 9.33656 19.55 9.57656 20.43C9.81656 21.31 10.2666 21.95 10.9266 22.35C11.6066 22.75 12.6066 22.95 13.9266 22.95ZM22.3446 9H23.9646L27.9546 22.68H29.1846L33.2946 9H34.8546L30.3546 24H26.8446L22.3446 9ZM43.1606 24.27C40.9206 24.27 39.3406 23.68 38.4206 22.5C37.5206 21.32 37.0706 19.45 37.0706 16.89C37.0706 14.11 37.5606 12.06 38.5406 10.74C39.5406 9.4 41.1006 8.73 43.2206 8.73C45.1806 8.73 46.6306 9.31 47.5706 10.47C48.5106 11.61 48.9806 13.4 48.9806 15.84L48.9506 17.1H38.5706C38.5506 18.54 38.6906 19.69 38.9906 20.55C39.2906 21.39 39.8006 22.01 40.5206 22.41C41.2606 22.79 42.2806 22.98 43.5806 22.98C44.1206 22.98 44.7506 22.97 45.4706 22.95C46.2106 22.91 46.8906 22.86 47.5106 22.8L48.4106 22.71L48.4706 23.94C46.3906 24.16 44.6206 24.27 43.1606 24.27ZM47.4806 15.84C47.4806 13.76 47.1406 12.27 46.4606 11.37C45.7806 10.45 44.7006 9.99 43.2206 9.99C41.6806 9.99 40.5206 10.47 39.7406 11.43C38.9606 12.37 38.5606 13.84 38.5406 15.84H47.4806ZM52.7585 9H54.2285V11.22C55.9285 9.98 57.8585 9.13 60.0185 8.67V10.2C59.1985 10.36 58.2785 10.64 57.2585 11.04C56.2585 11.44 55.5285 11.8 55.0685 12.12L54.2585 12.57V24H52.7585V9ZM65.295 4.47H58.515V3.09H73.515V4.47H66.795V24H65.295V4.47ZM76.196 2.22H77.696V9.9C79.396 9.12 81.086 8.73 82.766 8.73C84.086 8.73 85.096 8.96 85.796 9.42C86.496 9.86 86.986 10.61 87.266 11.67C87.546 12.71 87.686 14.21 87.686 16.17V24H86.186V16.23C86.186 14.51 86.086 13.22 85.886 12.36C85.706 11.5 85.356 10.9 84.836 10.56C84.316 10.22 83.526 10.05 82.466 10.05C81.146 10.05 79.766 10.33 78.326 10.89L77.696 11.13V24H76.196V2.22ZM97.5942 24.27C95.3542 24.27 93.7742 23.68 92.8542 22.5C91.9542 21.32 91.5042 19.45 91.5042 16.89C91.5042 14.11 91.9942 12.06 92.9742 10.74C93.9742 9.4 95.5342 8.73 97.6542 8.73C99.6142 8.73 101.064 9.31 102.004 10.47C102.944 11.61 103.414 13.4 103.414 15.84L103.384 17.1H93.0042C92.9842 18.54 93.1242 19.69 93.4242 20.55C93.7242 21.39 94.2342 22.01 94.9542 22.41C95.6942 22.79 96.7142 22.98 98.0142 22.98C98.5542 22.98 99.1842 22.97 99.9042 22.95C100.644 22.91 101.324 22.86 101.944 22.8L102.844 22.71L102.904 23.94C100.824 24.16 99.0542 24.27 97.5942 24.27ZM101.914 15.84C101.914 13.76 101.574 12.27 100.894 11.37C100.214 10.45 99.1342 9.99 97.6542 9.99C96.1142 9.99 94.9542 10.47 94.1742 11.43C93.3942 12.37 92.9942 13.84 92.9742 15.84H101.914ZM122.282 3.09V24H119.162L109.682 4.44H109.112V24H107.612V3.09H110.762L120.152 22.65H120.812V3.09H122.282ZM132.633 24.27C130.393 24.27 128.813 23.68 127.893 22.5C126.993 21.32 126.543 19.45 126.543 16.89C126.543 14.11 127.033 12.06 128.013 10.74C129.013 9.4 130.573 8.73 132.693 8.73C134.653 8.73 136.103 9.31 137.043 10.47C137.983 11.61 138.453 13.4 138.453 15.84L138.423 17.1H128.043C128.023 18.54 128.163 19.69 128.463 20.55C128.763 21.39 129.273 22.01 129.993 22.41C130.733 22.79 131.753 22.98 133.053 22.98C133.593 22.98 134.223 22.97 134.943 22.95C135.683 22.91 136.363 22.86 136.983 22.8L137.883 22.71L137.943 23.94C135.863 24.16 134.093 24.27 132.633 24.27ZM136.953 15.84C136.953 13.76 136.613 12.27 135.933 11.37C135.253 10.45 134.173 9.99 132.693 9.99C131.153 9.99 129.993 10.47 129.213 11.43C128.433 12.37 128.033 13.84 128.013 15.84H136.953ZM140.766 9H142.266L145.836 22.68H146.196L150.336 9.3H151.896L156.006 22.68H156.426L159.936 9H161.466L157.566 24H154.926L151.116 11.16L147.306 24H144.636L140.766 9ZM166.768 4.44V12.66H175.858V14.01H166.768V22.65H177.658V24H165.268V3.09H177.658V4.44H166.768ZM184.55 24.27C183.23 24.27 182.22 23.89 181.52 23.13C180.84 22.37 180.5 21.3 180.5 19.92C180.5 18.54 180.84 17.5 181.52 16.8C182.2 16.08 183.29 15.63 184.79 15.45L190.16 14.91V13.47C190.16 12.31 189.91 11.46 189.41 10.92C188.93 10.36 188.26 10.08 187.4 10.08C186.52 10.08 185.7 10.11 184.94 10.17C184.18 10.23 182.99 10.35 181.37 10.53L181.28 9.3C183.44 8.92 185.36 8.73 187.04 8.73C188.62 8.73 189.78 9.11 190.52 9.87C191.26 10.63 191.63 11.83 191.63 13.47V21.78C191.65 22.1 191.84 22.37 192.2 22.59C192.56 22.81 193.06 22.96 193.7 23.04L193.64 24.27C192.92 24.27 192.27 24.16 191.69 23.94C191.13 23.72 190.69 23.41 190.37 23.01C188.49 23.85 186.55 24.27 184.55 24.27ZM184.67 22.98C186.23 22.98 187.79 22.7 189.35 22.14L190.16 21.87V16.14L184.97 16.65C183.93 16.73 183.18 17.02 182.72 17.52C182.28 18.02 182.06 18.76 182.06 19.74C182.06 21.9 182.93 22.98 184.67 22.98ZM196.343 9H197.812V11.22C199.513 9.98 201.443 9.13 203.603 8.67V10.2C202.783 10.36 201.863 10.64 200.843 11.04C199.843 11.44 199.113 11.8 198.653 12.12L197.843 12.57V24H196.343V9ZM211.041 24.33C210.081 24.33 209.331 24.17 208.791 23.85C208.251 23.53 207.861 22.99 207.621 22.23C207.381 21.45 207.261 20.35 207.261 18.93V10.32H204.981V9H207.261V4.23H208.701V9H213.951V10.32H208.701V17.91C208.701 19.29 208.751 20.32 208.851 21C208.951 21.66 209.171 22.16 209.511 22.5C209.871 22.84 210.451 23.01 211.251 23.01L214.101 22.77L214.221 24.03C212.821 24.23 211.761 24.33 211.041 24.33ZM216.733 2.22H218.233V9.9C219.933 9.12 221.623 8.73 223.303 8.73C224.623 8.73 225.633 8.96 226.333 9.42C227.033 9.86 227.523 10.61 227.803 11.67C228.083 12.71 228.223 14.21 228.223 16.17V24H226.723V16.23C226.723 14.51 226.623 13.22 226.423 12.36C226.243 11.5 225.893 10.9 225.373 10.56C224.853 10.22 224.063 10.05 223.003 10.05C221.683 10.05 220.303 10.33 218.863 10.89L218.233 11.13V24H216.733V2.22Z" fill="#BDBDBD"/>
</g>
<defs>
<filter id="filter0_d" x="0.160004" y="0.219971" width="234.063" height="30.11" filterUnits="userSpaceOnUse" color-interpolation-filters="sRGB">
<feFlood flood-opacity="0" result="BackgroundImageFix"/>
<feColorMatrix in="SourceAlpha" type="matrix" values="0 0 0 0 0 0 0 0 0 0 0 0 0 0 0 0 0 0 127 0"/>
<feOffset dx="2" dy="2"/>
<feGaussianBlur stdDeviation="2"/>
<feColorMatrix type="matrix" values="0 0 0 0 0.421667 0 0 0 0 0.419558 0 0 0 0 0.419558 0 0 0 0.7 0"/>
<feBlend mode="normal" in2="BackgroundImageFix" result="effect1_dropShadow"/>
<feBlend mode="normal" in="SourceGraphic" in2="effect1_dropShadow" result="shape"/>
</filter>
</defs>
</svg>
