<svg width="34" height="34" viewBox="0 0 34 34" fill="none" xmlns="http://www.w3.org/2000/svg">
<path d="M29.75 34H4.25C1.904 34 0 32.096 0 29.75V4.25C0 1.904 1.904 0 4.25 0H29.75C32.096 0 34 1.904 34 4.25V29.75C34 32.096 32.096 34 29.75 34Z" fill="#1DA1F2"/>
<path d="M13.056 25.636C21.0715 25.636 25.4575 18.989 25.4575 13.2345C25.4575 13.0475 25.4575 12.8605 25.449 12.6735C26.299 12.0615 27.0385 11.288 27.625 10.4125C26.843 10.761 26.0015 10.9905 25.1175 11.101C26.0185 10.5655 26.707 9.70701 27.0385 8.68701C26.197 9.18851 25.262 9.54551 24.2675 9.74101C23.4685 8.89101 22.338 8.36401 21.0885 8.36401C18.683 8.36401 16.728 10.319 16.728 12.7245C16.728 13.0645 16.7705 13.396 16.8385 13.719C13.2175 13.5405 10.0045 11.798 7.85398 9.16301C7.47998 9.80901 7.26748 10.557 7.26748 11.356C7.26748 12.869 8.04098 14.2035 9.20548 14.9855C8.49148 14.96 7.81998 14.7645 7.23348 14.4415C7.23348 14.4585 7.23348 14.4755 7.23348 14.501C7.23348 16.609 8.73798 18.377 10.727 18.7765C10.3615 18.8785 9.97898 18.9295 9.57948 18.9295C9.29898 18.9295 9.02698 18.904 8.76348 18.853C9.31598 20.587 10.931 21.845 12.835 21.879C11.339 23.052 9.46048 23.749 7.42048 23.749C7.07198 23.749 6.72348 23.732 6.38348 23.6895C8.30448 24.9135 10.5995 25.636 13.056 25.636Z" fill="white"/>
</svg>
