<svg width="46" height="29" viewBox="0 0 46 29" fill="none" xmlns="http://www.w3.org/2000/svg">
<path d="M44.6509 4.45566C44.1265 2.73457 42.5814 1.37928 40.6191 0.919309C37.0628 0.0833733 22.802 0.0833728 22.802 0.0833728C22.802 0.0833728 8.54122 0.0833733 4.98479 0.919309C3.02271 1.37928 1.47735 2.73457 0.952948 4.45566C0 7.57502 0 14.0834 0 14.0834C0 14.0834 0 20.5916 0.952948 23.7113C1.47735 25.4322 3.02271 26.7875 4.98479 27.2476C8.54122 28.0834 22.802 28.0834 22.802 28.0834C22.802 28.0834 37.0628 28.0834 40.6191 27.2476C42.5814 26.7875 44.1265 25.4322 44.6509 23.7113C45.6039 20.5916 45.6039 14.0834 45.6039 14.0834C45.6039 14.0834 45.6039 7.57502 44.6509 4.45566Z" fill="#ED1D24"/>
<path d="M18.1379 19.9923L30.0571 14.0833L18.1379 8.17368V19.9923Z" fill="white"/>
</svg>
