<svg width="57" height="35" viewBox="0 0 57 35" fill="none" xmlns="http://www.w3.org/2000/svg">
<path d="M54.8955 5.37541C54.2507 3.25943 52.3511 1.59318 49.9386 1.02768C45.5663 -4.67763e-05 28.0336 -4.67763e-05 28.0336 -4.67763e-05C28.0336 -4.67763e-05 10.5009 -4.67763e-05 6.12849 1.02768C3.71623 1.59318 1.81631 3.25943 1.17159 5.37541C0 9.21046 0 17.2121 0 17.2121C0 17.2121 0 25.2136 1.17159 29.049C1.81631 31.1647 3.71623 32.8309 6.12849 33.3967C10.5009 34.4242 28.0336 34.4242 28.0336 34.4242C28.0336 34.4242 45.5663 34.4242 49.9386 33.3967C52.3511 32.8309 54.2507 31.1647 54.8955 29.049C56.0672 25.2136 56.0672 17.2121 56.0672 17.2121C56.0672 17.2121 56.0672 9.21046 54.8955 5.37541Z" fill="#ED1D24"/>
<path d="M22.2995 24.4767L36.9533 17.2119L22.2995 9.94642V24.4767Z" fill="white"/>
</svg>
